SplineFontDB: 3.0
FontName: Muli
FullName: Muli
FamilyName: Muli
Weight: Regular
Copyright: Digitized data Copyright (c) 2011-2014, vernon adams.
Version: 2
ItalicAngle: 0
UnderlinePosition: 0
UnderlineWidth: 0
Ascent: 1638
Descent: 410
UFOAscent: 1560
UFODescent: -556
LayerCount: 2
Layer: 0 0 "Back"  1
Layer: 1 0 "Fore"  0
OS2Version: 0
OS2_WeightWidthSlopeOnly: 0
OS2_UseTypoMetrics: 0
CreationTime: 1393388530
ModificationTime: 1393388530
PfmFamily: 0
TTFWeight: 400
TTFWidth: 5
LineGap: 0
VLineGap: 0
OS2TypoAscent: 2412
OS2TypoAOffset: 0
OS2TypoDescent: -607
OS2TypoDOffset: 0
OS2TypoLinegap: 0
OS2WinAscent: 2412
OS2WinAOffset: 0
OS2WinDescent: 607
OS2WinDOffset: 0
HheadAscent: 2412
HheadAOffset: 0
HheadDescent: -607
HheadDOffset: 0
OS2Vendor: 'NeWT'
Lookup: 258 0 0 "kernHorizontalKerninginLatinloo"  {"kernHorizontalKerninginLatinloo subtable"  } ['kern' ('latn' <'dflt' > ) ]
DEI: 91125
LangName: 1033 "" "" "" "" "" "Version 2" "" "Muli is a trademark of Vernon Adams and may be registered in certain jurisdictions." "newtypography" "Vernon Adams" "" "newtypography.co.uk" "newtypography.co.uk" "Copyright (c) 2014, vernon adams.+AAoACgAA-This Font Software is licensed under the SIL Open Font License, Version 1.1.+AAoA-This license is available with a FAQ at:+AAoA-http://scripts.sil.org/OFL+AAoA" "http://scripts.sil.org/OFL" "" "Muli" "Regular" 
PickledData: "(dp1
S'com.typemytype.robofont.foreground.layerStrokeColor'
p2
(F0.5
F0
F0.5
F0.69999999999999996
tp3
sS'com.schriftgestaltung.fontMasterID'
p4
S'CAA31E91-2985-420A-82BA-6B4D8404D924'
p5
sS'GSDimensionPlugin.Dimensions'
p6
(dp7
S'CAA31E91-2985-420A-82BA-6B4D8404D924'
p8
(dp9
ssS'com.superpolator.editor.generateInfo'
p10
S'Generated with LTR Superpolator version 120823_1018_beta_'
p11
sS'com.typemytype.robofont.b.layerStrokeColor'
p12
(F1
F0.75
F0
F0.69999999999999996
tp13
sS'com.schriftgestaltung.useNiceNames'
p14
I01
sS'com.typemytype.robofont.layerOrder'
p15
(S'b'
tp16
sS'com.typemytype.robofont.segmentType'
p17

StartChar: A
Encoding: 65 65 0
Width: 1399
VWidth: 0
GlyphClass: 2
Flags: W
PickledData: "(dp1
S'org.robofab.postScriptHintData'
p2
(dp3
sS'com.typemytype.robofont.layerData'
p4
(dp5
s."
AnchorPoint: "top" 699 1456 basechar 0
LayerCount: 2
Fore
SplineSet
438 545 m 257
 952 545 l 257
 867.568 782.902 782.245 1019.91 696 1256 c 257
 609.862 1019.14 523.86 782.14 438 545 c 257
31 0 m 257
 596 1456 l 257
 800 1456 l 257
 1368 0 l 257
 1159 0 l 257
 1009 389 l 257
 386 389 l 257
 239 0 l 257
 31 0 l 257
EndSplineSet
EndChar

StartChar: AE
Encoding: 198 198 1
Width: 2062
VWidth: 0
GlyphClass: 2
Flags: W
PickledData: "(dp1
S'org.robofab.postScriptHintData'
p2
(dp3
sS'com.typemytype.robofont.layerData'
p4
(dp5
S'b'
(dp6
S'name'
p7
S'AE'
p8
sS'lib'
p9
(dp10
sS'unicodes'
p11
(tsS'width'
p12
F2073.5500000000002
sS'contours'
p13
(tsS'components'
p14
(tsS'anchors'
p15
(tsss."
AnchorPoint: "top" 1350 1456 basechar 0
LayerCount: 2
Fore
SplineSet
546 548 m 257
 1069 548 l 257
 1014 1291 l 257
 966 1291 l 257
 546 548 l 257
25 0 m 257
 869 1456 l 257
 1887 1456 l 257
 1887 1291 l 257
 1198 1291 l 257
 1237 829 l 257
 1855 829 l 257
 1855 671 l 257
 1253 671 l 257
 1299 163 l 257
 1912 163 l 257
 1912 0 l 257
 1118 0 l 257
 1083 401 l 257
 471 401 l 257
 243 0 l 257
 25 0 l 257
EndSplineSet
EndChar

StartChar: B
Encoding: 66 66 18
Width: 1356
VWidth: 0
GlyphClass: 2
Flags: W
PickledData: "(dp1
S'org.robofab.postScriptHintData'
p2
(dp3
sS'com.typemytype.robofont.layerData'
p4
(dp5
S'b'
(dp6
S'name'
p7
S'B'
sS'lib'
p8
(dp9
sS'unicodes'
p10
(tsS'width'
p11
F1346.45
sS'contours'
p12
(tsS'components'
p13
(tsS'anchors'
p14
(tsss."
AnchorPoint: "top" 647 1456 basechar 0
LayerCount: 2
Fore
SplineSet
393 840 m 257
 646 840 l 258
 828 840 968 897 968 1078 c 256
 968 1252 834 1295 614 1295 c 258
 393 1295 l 257
 393 840 l 257
394 163 m 257
 688 163 l 258
 914 163 1036 254 1036 419 c 256
 1036 615 930 682 662 682 c 258
 394 682 l 257
 394 163 l 257
202 0 m 257
 202 1456 l 257
 587 1456 l 258
 866 1456 1169 1410 1169 1101 c 256
 1169 944 1092 822 929 777 c 257
 1126 743 1239 608 1239 414 c 256
 1239 186 1067 0 719 0 c 258
 202 0 l 257
EndSplineSet
EndChar

StartChar: C
Encoding: 67 67 20
Width: 1399
VWidth: 0
GlyphClass: 2
Flags: W
PickledData: "(dp1
S'org.robofab.postScriptHintData'
p2
(dp3
sS'com.typemytype.robofont.guides'
p4
(tsS'com.typemytype.robofont.layerData'
p5
(dp6
S'b'
(dp7
S'name'
p8
S'C'
sS'lib'
p9
(dp10
sS'unicodes'
p11
(tsS'width'
p12
F1394.1500000000001
sS'contours'
p13
((dp14
S'points'
p15
((dp16
S'segmentType'
p17
S'curve'
p18
sS'x'
F785
sS'smooth'
p19
I01
sS'y'
F-23
s(dp20
S'y'
F-23
sS'x'
F346
sg19
I00
s(dp21
S'y'
F309
sS'x'
F108
sg19
I00
s(dp22
g17
S'curve'
p23
sS'x'
F108
sg19
I01
sS'y'
F713
s(dp24
S'y'
F1125
sS'x'
F108
sg19
I00
s(dp25
S'y'
F1483
sS'x'
F371
sg19
I00
s(dp26
g17
S'curve'
p27
sS'x'
F814
sg19
I01
sS'y'
F1483
s(dp28
S'y'
F1483
sS'x'
F995
sg19
I00
s(dp29
S'y'
F1437
sS'x'
F1144
sg19
I00
s(dp30
g17
S'curve'
p31
sS'x'
F1265
sg19
I00
sS'y'
F1329
s(dp32
g17
S'line'
p33
sS'x'
F1200
sg19
I00
sS'y'
F1219
s(dp34
S'y'
F1295
sS'x'
F1099
sg19
I00
s(dp35
S'y'
F1334
sS'x'
F969
sg19
I00
s(dp36
g17
S'curve'
p37
sS'x'
F833
sg19
I01
sS'y'
F1334
s(dp38
S'y'
F1334
sS'x'
F464
sg19
I00
s(dp39
S'y'
F1022
sS'x'
F291
sg19
I00
s(dp40
g17
S'curve'
p41
sS'x'
F291
sg19
I01
sS'y'
F712
s(dp42
S'y'
F398
sS'x'
F291
sg19
I00
s(dp43
S'y'
F125
sS'x'
F453
sg19
I00
s(dp44
g17
S'curve'
p45
sS'x'
F811
sg19
I01
sS'y'
F125
s(dp46
S'y'
F125
sS'x'
F974
sg19
I00
s(dp47
S'y'
F172
sS'x'
F1134
sg19
I00
s(dp48
g17
S'curve'
p49
sS'x'
F1243
sg19
I00
sS'y'
F268
s(dp50
g17
S'line'
p51
sS'x'
F1301
sg19
I00
sS'y'
F127
s(dp52
S'y'
F28
sS'x'
F1178
sg19
I00
s(dp53
S'y'
F-23
sS'x'
F996
sg19
I00
stp54
stp55
sS'components'
p56
(tsS'anchors'
p57
(tsss."
AnchorPoint: "top" 815 1456 basechar 0
LayerCount: 2
Fore
SplineSet
824 -22 m 256
 441 -22 107 234 107 716 c 256
 107 1179 414 1482 817 1482 c 256
 989 1482 1143 1440 1275 1332 c 257
 1199 1202 l 257
 1084 1287 960 1321 831 1321 c 256
 512 1321 308 1059 308 718 c 256
 308 359 528 139 833 139 c 256
 972 139 1112 183 1245 283 c 257
 1309 131 l 257
 1164 25 996 -22 824 -22 c 256
EndSplineSet
EndChar

StartChar: D
Encoding: 68 68 27
Width: 1539
VWidth: 0
GlyphClass: 2
Flags: W
PickledData: "(dp1
S'org.robofab.postScriptHintData'
p2
(dp3
sS'com.typemytype.robofont.layerData'
p4
(dp5
S'b'
(dp6
S'name'
p7
S'D'
sS'lib'
p8
(dp9
sS'unicodes'
p10
(tsS'width'
p11
F1526.5999999999999
sS'contours'
p12
(tsS'components'
p13
(tsS'anchors'
p14
(tsss."
AnchorPoint: "top" 697 1456 basechar 0
LayerCount: 2
Fore
SplineSet
202 0 m 257
 202 1456 l 257
 560 1456 l 258
 1108 1456 1428 1233 1428 726 c 256
 1428 264 1146 0 625 0 c 258
 202 0 l 257
393 161 m 257
 635 161 l 258
 1031 161 1226 372 1226 726 c 256
 1226 1115 1015 1295 578 1295 c 258
 393 1295 l 257
 393 161 l 257
EndSplineSet
EndChar

StartChar: uni007F
Encoding: 127 127 28
Width: 1521
VWidth: 0
GlyphClass: 2
Flags: W
PickledData: "(dp1
S'org.robofab.postScriptHintData'
p2
(dp3
s."
LayerCount: 2
Fore
SplineSet
188 0 m 257
 188 1456 l 257
 1333 1456 l 257
 1333 0 l 257
 188 0 l 257
360 124 m 257
 1161 124 l 257
 1161 1330 l 257
 360 1330 l 257
 360 124 l 257
EndSplineSet
EndChar

StartChar: uni0394
Encoding: 916 916 32
Width: 1305
VWidth: 0
GlyphClass: 2
Flags: W
PickledData: "(dp1
S'org.robofab.postScriptHintData'
p2
(dp3
s."
LayerCount: 2
Fore
SplineSet
254 142 m 257
 1047 142 l 257
 657 1237 l 257
 254 142 l 257
56 0 m 257
 56 84 l 257
 584 1455 l 257
 738 1455 l 257
 1249 84 l 257
 1249 0 l 257
 56 0 l 257
EndSplineSet
EndChar

StartChar: E
Encoding: 69 69 35
Width: 1204
VWidth: 0
GlyphClass: 2
Flags: W
PickledData: "(dp1
S'org.robofab.postScriptHintData'
p2
(dp3
sS'com.typemytype.robofont.layerData'
p4
(dp5
s."
AnchorPoint: "top" 645 1456 basechar 0
LayerCount: 2
Fore
SplineSet
202 0 m 257
 202 1456 l 257
 1074 1456 l 257
 1074 1295 l 257
 393 1295 l 257
 393 837 l 257
 1036 837 l 257
 1036 675 l 257
 393 675 l 257
 393 161 l 257
 1103 161 l 257
 1103 0 l 257
 202 0 l 257
EndSplineSet
EndChar

StartChar: Eng
Encoding: 330 330 46
Width: 1570
VWidth: 0
GlyphClass: 2
Flags: W
PickledData: "(dp1
S'org.robofab.postScriptHintData'
p2
(dp3
sS'com.typemytype.robofont.layerData'
p4
(dp5
s."
LayerCount: 2
Fore
SplineSet
1391 1456 m 257
 1391 56 l 257
 1390 -259 1261 -436 924 -436 c 257
 924 -289 l 257
 1102 -289 1205 -215 1205 -28 c 258
 1205 55 l 257
 486 1044 l 257
 384 1200 l 257
 384 0 l 257
 200 0 l 257
 200 1456 l 257
 407 1456 l 257
 1098 488 l 257
 1205 327 l 257
 1205 1456 l 257
 1391 1456 l 257
EndSplineSet
EndChar

StartChar: Euro
Encoding: 8364 8364 50
Width: 1480
VWidth: 0
GlyphClass: 2
Flags: W
PickledData: "(dp1
S'org.robofab.postScriptHintData'
p2
(dp3
sS'com.typemytype.robofont.layerData'
p4
(dp5
S'b'
(dp6
S'name'
p7
S'Euro'
p8
sS'lib'
p9
(dp10
sS'unicodes'
p11
(tsS'width'
p12
I1190
sS'contours'
p13
(tsS'components'
p14
(tsS'anchors'
p15
(tsss."
LayerCount: 2
Fore
SplineSet
916 -22 m 256
 1088 -22 1256 25 1401 131 c 257
 1337 283 l 257
 1204 183 1064 139 925 139 c 256
 679.961 139 489.787 281.001 424.483 523 c 257
 905 523 l 257
 912 627 l 257
 404.964 627 l 257
 401.685 656.233 400 686.584 400 718 c 256
 400 759.265 402.987 799.373 408.804 838 c 257
 941 838 l 257
 948 948 l 257
 434.231 948 l 257
 504.893 1169.97 680.8 1321 923 1321 c 256
 1052 1321 1176 1287 1291 1202 c 257
 1367 1332 l 257
 1235 1440 1081 1482 909 1482 c 256
 577.993 1482 311.75 1277.59 227.189 948 c 257
 34 948 l 257
 29 838 l 257
 206.428 838 l 257
 201.529 798.722 199 758.02 199 716 c 256
 199 685.421 200.344 655.752 202.96 627 c 257
 35 627 l 257
 30 523 l 257
 218.694 523 l 257
 295.621 165.958 587.822 -22 916 -22 c 256
EndSplineSet
EndChar

StartChar: F
Encoding: 70 70 51
Width: 1117
VWidth: 0
GlyphClass: 2
Flags: W
PickledData: "(dp1
S'org.robofab.postScriptHintData'
p2
(dp3
sS'com.typemytype.robofont.layerData'
p4
(dp5
s."
AnchorPoint: "top" 639 1456 basechar 0
LayerCount: 2
Fore
SplineSet
202 0 m 257
 202 1456 l 257
 1042 1456 l 257
 1042 1295 l 257
 393 1295 l 257
 393 837 l 257
 997 837 l 257
 997 675 l 257
 393 675 l 257
 393 0 l 257
 202 0 l 257
EndSplineSet
EndChar

StartChar: G
Encoding: 71 71 53
Width: 1527
VWidth: 0
GlyphClass: 2
Flags: W
PickledData: "(dp1
S'org.robofab.postScriptHintData'
p2
(dp3
sS'com.typemytype.robofont.layerData'
p4
(dp5
S'b'
(dp6
S'name'
p7
S'G'
sS'lib'
p8
(dp9
sS'unicodes'
p10
(tsS'width'
p11
F1528.2
sS'contours'
p12
((dp13
S'points'
p14
((dp15
S'segmentType'
p16
S'curve'
p17
sS'x'
F841
sS'smooth'
p18
I01
sS'y'
F-23
s(dp19
S'y'
F-23
sS'x'
F361
sg18
I00
s(dp20
S'y'
F267
sS'x'
F108
sg18
I00
s(dp21
g16
S'curve'
p22
sS'x'
F108
sg18
I01
sS'y'
F701
s(dp23
S'y'
F1129
sS'x'
F108
sg18
I00
s(dp24
S'y'
F1483
sS'x'
F382
sg18
I00
s(dp25
g16
S'curve'
p26
sS'x'
F852
sg18
I01
sS'y'
F1483
s(dp27
S'y'
F1483
sS'x'
F1059
sg18
I00
s(dp28
S'y'
F1415
sS'x'
F1233
sg18
I00
s(dp29
g16
S'curve'
p30
sS'x'
F1334
sg18
I00
sS'y'
F1308
s(dp31
g16
S'line'
p32
sS'x'
F1262
sg18
I00
sS'y'
F1196
s(dp33
S'y'
F1291
sS'x'
F1164
sg18
I00
s(dp34
S'y'
F1334
sS'x'
F1034
sg18
I00
s(dp35
g16
S'curve'
p36
sS'x'
F848
sg18
I01
sS'y'
F1334
s(dp37
S'y'
F1334
sS'x'
F477
sg18
I00
s(dp38
S'y'
F1033
sS'x'
F286
sg18
I00
s(dp39
g16
S'curve'
p40
sS'x'
F286
sg18
I01
sS'y'
F714
s(dp41
S'y'
F365
sS'x'
F286
sg18
I00
s(dp42
S'y'
F125
sS'x'
F472
sg18
I00
s(dp43
g16
S'curve'
p44
sS'x'
F855
sg18
I01
sS'y'
F125
s(dp45
S'y'
F125
sS'x'
F968
sg18
I00
s(dp46
S'y'
F143
sS'x'
F1088
sg18
I00
s(dp47
g16
S'curve'
p48
sS'x'
F1184
sg18
I00
sS'y'
F182
s(dp49
g16
S'line'
p50
sS'x'
F1184
sg18
I00
sS'y'
F608
s(dp51
g16
S'line'
p52
sS'x'
F811
sg18
I00
sS'y'
F608
s(dp53
g16
S'line'
p54
sS'x'
F811
sg18
I00
sS'y'
F757
s(dp55
g16
S'line'
p56
sS'x'
F1356
sg18
I00
sS'y'
F757
s(dp57
g16
S'line'
p58
sS'x'
F1356
sg18
I00
sS'y'
F81
s(dp59
S'y'
F6
sS'x'
F1195
sg18
I00
s(dp60
S'y'
F-23
sS'x'
F1012
sg18
I00
stp61
stp62
sS'components'
p63
(tsS'anchors'
p64
(tsss."
AnchorPoint: "top" 833 1456 basechar 0
LayerCount: 2
Fore
SplineSet
844 -22 m 256
 367 -22 108 266 108 704 c 256
 108 1156 414 1482 861 1482 c 256
 1054 1482 1210 1433 1340 1336 c 257
 1263 1203 l 257
 1146 1283 1017 1321 865 1321 c 256
 526 1321 306 1062 306 712 c 256
 306 373 488 139 852 139 c 256
 957 139 1078 156 1170 191 c 257
 1170 603 l 257
 802 603 l 257
 802 766 l 257
 1360 766 l 257
 1360 84 l 257
 1194 8 1014 -22 844 -22 c 256
EndSplineSet
EndChar

StartChar: H
Encoding: 72 72 60
Width: 1559
VWidth: 0
GlyphClass: 2
Flags: W
PickledData: "(dp1
S'org.robofab.postScriptHintData'
p2
(dp3
sS'com.typemytype.robofont.layerData'
p4
(dp5
S'b'
(dp6
S'name'
p7
S'H'
sS'lib'
p8
(dp9
sS'unicodes'
p10
(tsS'width'
p11
F1576.45
sS'contours'
p12
(tsS'components'
p13
(tsS'anchors'
p14
(tsss."
AnchorPoint: "top" 780 1456 basechar 0
LayerCount: 2
Fore
SplineSet
202 0 m 257
 202 1456 l 257
 394 1456 l 257
 394 827 l 257
 1167 827 l 257
 1167 1456 l 257
 1357 1456 l 257
 1357 0 l 257
 1168 0 l 257
 1168 666 l 257
 394 666 l 257
 394 0 l 257
 202 0 l 257
EndSplineSet
EndChar

StartChar: Hbar
Encoding: 294 294 61
Width: 1566
VWidth: 0
GlyphClass: 2
Flags: W
PickledData: "(dp1
S'org.robofab.postScriptHintData'
p2
(dp3
sS'com.typemytype.robofont.layerData'
p4
(dp5
S'b'
(dp6
S'name'
p7
S'Hbar'
p8
sS'lib'
p9
(dp10
sS'unicodes'
p11
(tsS'width'
p12
F1532.55
sS'contours'
p13
(tsS'components'
p14
(tsS'anchors'
p15
(tsss."
LayerCount: 2
Fore
SplineSet
98 1161 m 257
 97 1269 l 257
 1462 1269 l 257
 1462 1161 l 257
 98 1161 l 257
EndSplineSet
Refer: 60 72 N 1 0 0 1 0 0 2
EndChar

StartChar: I
Encoding: 73 73 63
Width: 602
VWidth: 0
GlyphClass: 2
Flags: W
PickledData: "(dp1
S'org.robofab.postScriptHintData'
p2
(dp3
sS'com.typemytype.robofont.layerData'
p4
(dp5
s."
AnchorPoint: "top" 321 1456 basechar 0
LayerCount: 2
Fore
SplineSet
218 0 m 257
 218 1456 l 257
 409 1456 l 257
 409 0 l 257
 218 0 l 257
EndSplineSet
EndChar

StartChar: J
Encoding: 74 74 77
Width: 786
VWidth: 0
GlyphClass: 2
Flags: W
PickledData: "(dp1
S'org.robofab.postScriptHintData'
p2
(dp3
sS'com.typemytype.robofont.layerData'
p4
(dp5
S'b'
(dp6
S'name'
p7
S'J'
sS'lib'
p8
(dp9
sS'unicodes'
p10
(tsS'width'
p11
F731.54999999999995
sS'contours'
p12
(tsS'components'
p13
(tsS'anchors'
p14
(tsss."
AnchorPoint: "top" 488 1456 basechar 0
LayerCount: 2
Fore
SplineSet
229 -326 m 256
 143 -326 56 -305 -7 -284 c 257
 20 -134 l 257
 71 -149 138 -165 204 -165 c 256
 357 -165 397 -78 397 120 c 258
 397 1456 l 257
 588 1456 l 257
 588 121 l 258
 588 -193 463 -326 229 -326 c 256
EndSplineSet
EndChar

StartChar: K
Encoding: 75 75 79
Width: 1296
VWidth: 0
GlyphClass: 2
Flags: W
PickledData: "(dp1
S'org.robofab.postScriptHintData'
p2
(dp3
sS'com.typemytype.robofont.layerData'
p4
(dp5
S'b'
(dp6
S'name'
p7
S'K'
sS'lib'
p8
(dp9
sS'unicodes'
p10
(tsS'width'
p11
F1289.95
sS'contours'
p12
(tsS'components'
p13
(tsS'anchors'
p14
(tsss."
AnchorPoint: "top" 671 1456 basechar 0
LayerCount: 2
Fore
SplineSet
202 0 m 257
 202 1456 l 257
 393 1456 l 257
 393 800 l 257
 1020 1456 l 257
 1257 1456 l 257
 584 755 l 257
 1305 0 l 257
 1063 0 l 257
 393 692 l 257
 393 0 l 257
 202 0 l 257
EndSplineSet
EndChar

StartChar: L
Encoding: 76 76 82
Width: 1109
VWidth: 0
GlyphClass: 2
Flags: W
PickledData: "(dp1
S'org.robofab.postScriptHintData'
p2
(dp3
sS'com.typemytype.robofont.layerData'
p4
(dp5
s."
AnchorPoint: "caron.alt" 313 1026 basechar 0
AnchorPoint: "top" 311 1456 basechar 0
LayerCount: 2
Fore
SplineSet
202 0 m 257
 202 1456 l 257
 393 1456 l 257
 393 161 l 257
 1070 161 l 257
 1070 0 l 257
 202 0 l 257
EndSplineSet
EndChar

StartChar: Lslash
Encoding: 321 321 88
Width: 1131
VWidth: 0
GlyphClass: 2
Flags: W
PickledData: "(dp1
S'org.robofab.postScriptHintData'
p2
(dp3
sS'com.typemytype.robofont.layerData'
p4
(dp5
s."
LayerCount: 2
Fore
SplineSet
51 472 m 257
 51 631 l 257
 689 1038 l 257
 689 879 l 257
 51 472 l 257
EndSplineSet
Refer: 82 76 N 1 0 0 1 0 0 2
EndChar

StartChar: M
Encoding: 77 77 89
Width: 1923
VWidth: 0
GlyphClass: 2
Flags: W
PickledData: "(dp1
S'org.robofab.postScriptHintData'
p2
(dp3
sS'com.typemytype.robofont.layerData'
p4
(dp5
S'b'
(dp6
S'name'
p7
S'M'
sS'lib'
p8
(dp9
sS'unicodes'
p10
(tsS'width'
p11
F1905.0999999999999
sS'contours'
p12
(tsS'components'
p13
(tsS'anchors'
p14
(tsss."
AnchorPoint: "top" 968 1456 basechar 0
LayerCount: 2
Fore
SplineSet
202 0 m 257
 202 1456 l 257
 434 1456 l 257
 609.823 1052.82 788.791 652.791 962 247 c 257
 1135.84 653.491 1316.89 1052.78 1494 1456 c 257
 1721 1456 l 257
 1721 0 l 257
 1539 0 l 257
 1539 1145 l 257
 1372.28 760.392 1199.34 381.998 1030 0 c 257
 893 0 l 257
 461 973 l 257
 386 1153 l 257
 386 0 l 257
 202 0 l 257
EndSplineSet
EndChar

StartChar: N
Encoding: 78 78 91
Width: 1598
VWidth: 0
GlyphClass: 2
Flags: W
PickledData: "(dp1
S'org.robofab.postScriptHintData'
p2
(dp3
sS'com.typemytype.robofont.layerData'
p4
(dp5
S'b'
(dp6
S'name'
p7
S'N'
sS'lib'
p8
(dp9
sS'unicodes'
p10
(tsS'width'
p11
F1578.1500000000001
sS'contours'
p12
(tsS'components'
p13
(tsS'anchors'
p14
(tsss."
AnchorPoint: "top" 809 1456 basechar 0
LayerCount: 2
Fore
SplineSet
202 0 m 257
 202 1456 l 257
 405 1456 l 257
 1107 432 l 257
 1215 262 l 257
 1215 1456 l 257
 1397 1456 l 257
 1397 0 l 257
 1193 0 l 257
 509 986 l 257
 381 1186 l 257
 381 0 l 257
 202 0 l 257
EndSplineSet
EndChar

StartChar: O
Encoding: 79 79 98
Width: 1626
VWidth: 0
GlyphClass: 2
Flags: W
PickledData: "(dp1
S'org.robofab.postScriptHintData'
p2
(dp3
sS'com.typemytype.robofont.guides'
p4
((dp5
S'y'
I727
sS'x'
I231
sS'magnetic'
p6
I5
sS'angle'
p7
I0
sS'isGlobal'
p8
I00
s(dp9
S'y'
I1254
sS'x'
I804
sg6
I5
sg7
F90
sg8
I00
stp10
sS'com.typemytype.robofont.layerData'
p11
(dp12
S'b'
(dp13
S'name'
p14
S'O'
sS'lib'
p15
(dp16
sS'unicodes'
p17
(tsS'width'
p18
F1630.8
sS'contours'
p19
(tsS'components'
p20
(tsS'anchors'
p21
(tsss."
AnchorPoint: "top" 817 1456 basechar 0
LayerCount: 2
Fore
SplineSet
816 -22 m 256
 373 -22 107 272 107 729 c 256
 107 1175 371 1482 818 1482 c 256
 1250 1482 1520 1176 1520 729 c 256
 1520 273 1256 -22 816 -22 c 256
814 139 m 256
 1146 139 1312 372 1312 729 c 256
 1312 1076 1147 1321 816 1321 c 256
 488 1321 311 1075 311 729 c 256
 311 371 484 139 814 139 c 256
EndSplineSet
EndChar

StartChar: OE
Encoding: 338 338 99
Width: 2049
VWidth: 0
GlyphClass: 2
Flags: W
PickledData: "(dp1
S'org.robofab.postScriptHintData'
p2
(dp3
sS'com.typemytype.robofont.layerData'
p4
(dp5
S'b'
(dp6
S'name'
p7
S'OE'
p8
sS'lib'
p9
(dp10
sS'unicodes'
p11
(tsS'width'
p12
F2049.1500000000001
sS'contours'
p13
(tsS'components'
p14
(tsS'anchors'
p15
(tsss."
LayerCount: 2
Fore
SplineSet
814.026 131.988 m 256
 991.151 131.988 1088.11 203.129 1130 254 c 257
 1130 1212 l 257
 1076.21 1265.79 980.555 1319.59 830.437 1319.59 c 256
 500.782 1319.59 312 1075.72 312 725 c 256
 312 384.343 478.683 131.988 814.026 131.988 c 256
1130 94 m 257
 1086.32 45.9469 961.853 -22.3062 789.085 -22.3062 c 256
 370.949 -22.3062 108 261.844 108 729 c 256
 108 1176.95 388.276 1483.05 805.335 1483.05 c 256
 977.52 1483.05 1086.69 1422.34 1130 1381 c 257
 1130 1456 l 257
 1941 1456 l 257
 1941 1291 l 257
 1322 1291 l 257
 1322 829 l 257
 1902 829 l 257
 1902 663 l 257
 1322 663 l 257
 1322 165 l 257
 1971 165 l 257
 1971 0 l 257
 1130 0 l 257
 1130 94 l 257
EndSplineSet
EndChar

StartChar: uni03A9
Encoding: 937 937 111
Width: 1603
VWidth: 0
GlyphClass: 2
Flags: W
PickledData: "(dp1
S'org.robofab.postScriptHintData'
p2
(dp3
sS'com.typemytype.robofont.layerData'
p4
(dp5
s."
LayerCount: 2
Fore
SplineSet
102 0 m 257
 81 144 l 257
 414 144 l 257
 235 285 106 531 106 798 c 256
 106 1208 404 1470 802 1470 c 256
 1216 1470 1476 1177 1476 793 c 256
 1476 519 1323 278 1163 144 c 257
 1476 144 l 257
 1461 0 l 257
 929 0 l 257
 929 133 l 257
 1129 269 1277 514 1277 776 c 256
 1277 1063 1116 1308 798 1308 c 256
 508 1308 306 1096 306 781 c 256
 306 519 445 266 649 133 c 257
 650 0 l 257
 102 0 l 257
EndSplineSet
EndChar

StartChar: Oslash
Encoding: 216 216 113
Width: 1626
VWidth: 0
GlyphClass: 2
Flags: W
PickledData: "(dp1
S'org.robofab.postScriptHintData'
p2
(dp3
sS'com.typemytype.robofont.layerData'
p4
(dp5
S'b'
(dp6
S'name'
p7
S'Oslash'
p8
sS'lib'
p9
(dp10
sS'unicodes'
p11
(tsS'width'
p12
F1663
sS'contours'
p13
(tsS'components'
p14
(tsS'anchors'
p15
(tsss."
LayerCount: 2
Fore
SplineSet
816 -22 m 256
 1256 -22 1520 273 1520 729 c 256
 1520 1011.78 1411.94 1238.13 1223.18 1366.28 c 257
 1308 1525 l 257
 1216 1572 l 257
 1133.07 1417.09 l 257
 1041.55 1459.25 935.798 1482 818 1482 c 256
 371 1482 107 1175 107 729 c 256
 107 432.776 218.761 205.038 418.043 81.4603 c 257
 330 -83 l 257
 423 -131 l 257
 511.166 33.9754 l 257
 600.093 -2.60144 702.207 -22 816 -22 c 256
1138.63 1208.08 m 257
 1254.28 1103.79 1312 934.237 1312 729 c 256
 1312 372 1146 139 814 139 c 256
 729.172 139 654.717 154.33 590.909 183.19 c 257
 1138.63 1208.08 l 257
1053.02 1267.57 m 257
 501.654 237.64 l 257
 375.773 338.061 311 509.943 311 729 c 256
 311 1075 488 1321 816 1321 c 256
 907.756 1321 986.756 1302.17 1053.02 1267.57 c 257
EndSplineSet
EndChar

StartChar: P
Encoding: 80 80 116
Width: 1260
VWidth: 0
GlyphClass: 2
Flags: W
PickledData: "(dp1
S'org.robofab.postScriptHintData'
p2
(dp3
sS'com.typemytype.robofont.layerData'
p4
(dp5
S'b'
(dp6
S'name'
p7
S'P'
sS'lib'
p8
(dp9
sS'unicodes'
p10
(tsS'width'
p11
F1252.6500000000001
sS'contours'
p12
((dp13
S'points'
p14
((dp15
S'segmentType'
p16
S'line'
p17
sS'x'
F360
sS'smooth'
p18
I00
sS'y'
F828
s(dp19
g16
S'line'
p20
sS'x'
F580
sg18
I01
sS'y'
F828
s(dp21
S'y'
F828
sS'x'
F775
sg18
I00
s(dp22
S'y'
F881
sS'x'
F973
sg18
I00
s(dp23
g16
S'curve'
p24
sS'x'
F973
sg18
I01
sS'y'
F1077
s(dp25
S'y'
F1272
sS'x'
F973
sg18
I00
s(dp26
S'y'
F1308
sS'x'
F807
sg18
I00
s(dp27
g16
S'curve'
p28
sS'x'
F592
sg18
I01
sS'y'
F1308
s(dp29
g16
S'line'
p30
sS'x'
F360
sg18
I00
sS'y'
F1308
stp31
s(dp32
g14
((dp33
g16
S'line'
p34
sS'x'
F360
sg18
I00
sS'y'
F148
s(dp35
g16
S'line'
p36
sS'x'
F667
sg18
I01
sS'y'
F148
s(dp37
S'y'
F148
sS'x'
F906
sg18
I00
s(dp38
S'y'
F230
sS'x'
F1041
sg18
I00
s(dp39
g16
S'curve'
p40
sS'x'
F1041
sg18
I01
sS'y'
F406
s(dp41
S'y'
F617
sS'x'
F1041
sg18
I00
s(dp42
S'y'
F680
sS'x'
F889
sg18
I00
s(dp43
g16
S'curve'
p44
sS'x'
F610
sg18
I01
sS'y'
F680
s(dp45
g16
S'line'
p46
sS'x'
F360
sg18
I00
sS'y'
F680
stp47
s(dp48
g14
((dp49
g16
S'line'
p50
sS'x'
F188
sg18
I00
sS'y'
F0
s(dp51
g16
S'line'
p52
sS'x'
F188
sg18
I00
sS'y'
F1456
s(dp53
g16
S'line'
p54
sS'x'
F502
sg18
I01
sS'y'
F1456
s(dp55
S'y'
F1456
sS'x'
F765
sg18
I00
s(dp56
S'y'
F1443
sS'x'
F1154
sg18
I00
s(dp57
g16
S'curve'
p58
sS'x'
F1154
sg18
I01
sS'y'
F1105
s(dp59
S'y'
F944
sS'x'
F1154
sg18
I00
s(dp60
S'y'
F814
sS'x'
F1045
sg18
I00
s(dp61
g16
S'curve'
p62
sS'x'
F889
sg18
I00
sS'y'
F769
s(dp63
S'y'
F734
sS'x'
F1086
sg18
I00
s(dp64
S'y'
F605
sS'x'
F1223
sg18
I00
s(dp65
g16
S'curve'
p66
sS'x'
F1223
sg18
I01
sS'y'
F403
s(dp67
S'y'
F189
sS'x'
F1223
sg18
I00
s(dp68
S'y'
F0
sS'x'
F1059
sg18
I00
s(dp69
g16
S'curve'
p70
sS'x'
F739
sg18
I01
sS'y'
F0
stp71
stp72
sS'components'
p73
(tsS'anchors'
p74
(tsss."
AnchorPoint: "top" 647 1456 basechar 0
LayerCount: 2
Fore
SplineSet
393 821 m 257
 658 821 l 258
 877 821 997 873 997 1056 c 256
 997 1254.97 871.426 1295.07 642.547 1295.07 c 256
 636.764 1295.07 630.915 1295.05 625 1295 c 258
 393 1295 l 257
 393 821 l 257
202 0 m 257
 202 1456 l 257
 621 1456 l 258
 963 1456 1192 1392 1192 1057 c 256
 1192 758 991 660 661 660 c 258
 393 660 l 257
 393 0 l 257
 202 0 l 257
EndSplineSet
EndChar

StartChar: Q
Encoding: 81 81 118
Width: 1626
VWidth: 0
GlyphClass: 2
Flags: W
PickledData: "(dp1
S'org.robofab.postScriptHintData'
p2
(dp3
sS'com.typemytype.robofont.layerData'
p4
(dp5
S'b'
(dp6
S'name'
p7
S'Q'
sS'lib'
p8
(dp9
sS'unicodes'
p10
(tsS'width'
p11
F1628.2
sS'contours'
p12
(tsS'components'
p13
(tsS'anchors'
p14
(tsss."
LayerCount: 2
Fore
SplineSet
814 139 m 256
 1146 139 1312 372 1312 729 c 256
 1312 1076 1147 1321 816 1321 c 256
 488 1321 311 1075 311 729 c 256
 311 371 484 139 814 139 c 256
816 -22 m 256
 373 -22 107 272 107 729 c 256
 107 1175 371 1482 818 1482 c 256
 1250 1482 1520 1176 1520 729 c 256
 1520 373.525 1359.57 115.889 1080.39 19.5735 c 257
 1177.08 -143.354 1335 -310 1335 -310 c 257
 1223 -428 l 257
 1223 -428 1029.73 -228.091 911.376 -17.1431 c 257
 880.585 -20.3626 848.781 -22 816 -22 c 256
EndSplineSet
EndChar

StartChar: R
Encoding: 82 82 119
Width: 1362
VWidth: 0
GlyphClass: 2
Flags: W
PickledData: "(dp1
S'org.robofab.postScriptHintData'
p2
(dp3
sS'com.typemytype.robofont.guides'
p4
(tsS'com.typemytype.robofont.layerData'
p5
(dp6
S'b'
(dp7
S'name'
p8
S'R'
sS'lib'
p9
(dp10
sS'unicodes'
p11
(tsS'width'
p12
F1341
sS'contours'
p13
((dp14
S'points'
p15
((dp16
S'segmentType'
p17
S'line'
p18
sS'x'
F360
sS'smooth'
p19
I00
sS'y'
F799
s(dp20
g17
S'line'
p21
sS'x'
F615
sg19
I01
sS'y'
F799
s(dp22
S'y'
F799
sS'x'
F795
sg19
I00
s(dp23
S'y'
F854
sS'x'
F932
sg19
I00
s(dp24
g17
S'curve'
p25
sS'x'
F932
sg19
I01
sS'y'
F1058
s(dp26
S'y'
F1259
sS'x'
F932
sg19
I00
s(dp27
S'y'
F1308
sS'x'
F833
sg19
I00
s(dp28
g17
S'curve'
p29
sS'x'
F626
sg19
I01
sS'y'
F1308
s(dp30
g17
S'line'
p31
sS'x'
F360
sg19
I00
sS'y'
F1308
stp32
s(dp33
g15
((dp34
g17
S'line'
p35
sS'x'
F188
sg19
I00
sS'y'
F0
s(dp36
g17
S'line'
p37
sS'x'
F188
sg19
I00
sS'y'
F1456
s(dp38
g17
S'line'
p39
sS'x'
F533
sg19
I01
sS'y'
F1456
s(dp40
S'y'
F1456
sS'x'
F771
sg19
I00
s(dp41
S'y'
F1452
sS'x'
F1114
sg19
I00
s(dp42
g17
S'curve'
p43
sS'x'
F1114
sg19
I01
sS'y'
F1074
s(dp44
S'y'
F890
sS'x'
F1114
sg19
I00
s(dp45
S'y'
F762
sS'x'
F1035
sg19
I00
s(dp46
g17
S'curve'
p47
sS'x'
F847
sg19
I00
sS'y'
F715
s(dp48
g17
S'line'
p49
sS'x'
F848
sg19
I00
sS'y'
F715
s(dp50
S'y'
F662
sS'x'
F1012
sg19
I00
s(dp51
S'y'
F510
sS'x'
F1039
sg19
I00
s(dp52
g17
S'curve'
p53
sS'x'
F1159
sg19
I01
sS'y'
F214
s(dp54
g17
S'line'
p55
sS'x'
F1246
sg19
I00
sS'y'
F0
s(dp56
g17
S'line'
p57
sS'x'
F1061
sg19
I00
sS'y'
F0
s(dp58
g17
S'line'
p59
sS'x'
F896
sg19
I01
sS'y'
F419
s(dp60
S'y'
F600
sS'x'
F825
sg19
I00
s(dp61
S'y'
F652
sS'x'
F797
sg19
I00
s(dp62
g17
S'curve'
p63
sS'x'
F619
sg19
I01
sS'y'
F652
s(dp64
g17
S'line'
p65
sS'x'
F360
sg19
I00
sS'y'
F652
s(dp66
g17
S'line'
p67
sS'x'
F360
sg19
I00
sS'y'
F0
stp68
stp69
sS'components'
p70
(tsS'anchors'
p71
(tsss."
AnchorPoint: "top" 652 1456 basechar 0
LayerCount: 2
Fore
SplineSet
392 808 m 257
 663 808 l 258
 842 808 968 868 968 1058 c 256
 968 1242.5 876.5 1295.06 683.102 1295.06 c 256
 679.438 1295.06 675.737 1295.04 672 1295 c 258
 392 1295 l 257
 392 808 l 257
202 0 m 257
 202 1456 l 257
 668 1456 l 258
 950 1456 1168 1386 1168 1069 c 256
 1168 894 1083 759 885 718 c 257
 1004 680 1054 584 1111 440 c 258
 1282 0 l 257
 1078 0 l 257
 918 428 l 258
 854 599 815 647 654 647 c 258
 393 647 l 257
 393 0 l 257
 202 0 l 257
EndSplineSet
EndChar

StartChar: S
Encoding: 83 83 125
Width: 1214
VWidth: 0
GlyphClass: 2
Flags: W
PickledData: "(dp1
S'org.robofab.postScriptHintData'
p2
(dp3
sS'com.typemytype.robofont.layerData'
p4
(dp5
S'b'
(dp6
S'name'
p7
S'S'
sS'lib'
p8
(dp9
sS'unicodes'
p10
(tsS'width'
p11
F1211
sS'contours'
p12
((dp13
S'points'
p14
((dp15
S'segmentType'
p16
S'curve'
p17
sS'x'
F596
sS'smooth'
p18
I01
sS'y'
F-23
s(dp19
S'y'
F-23
sS'x'
F321
sg18
I00
s(dp20
S'y'
F120
sS'x'
F158
sg18
I00
s(dp21
g16
S'curve'
p22
sS'x'
F140
sg18
I00
sS'y'
F141
s(dp23
g16
S'line'
p24
sS'x'
F219
sg18
I00
sS'y'
F271
s(dp25
S'y'
F243
sS'x'
F256
sg18
I00
s(dp26
S'y'
F125
sS'x'
F393
sg18
I00
s(dp27
g16
S'curve'
p28
sS'x'
F595
sg18
I01
sS'y'
F125
s(dp29
S'y'
F125
sS'x'
F797
sg18
I00
s(dp30
S'y'
F204
sS'x'
F898
sg18
I00
s(dp31
g16
S'curve'
p32
sS'x'
F898
sg18
I01
sS'y'
F360
s(dp33
S'y'
F536
sS'x'
F898
sg18
I00
s(dp34
S'y'
F601
sS'x'
F709
sg18
I00
s(dp35
g16
S'curve'
p36
sS'x'
F521
sg18
I01
sS'y'
F681
s(dp37
S'y'
F761
sS'x'
F333
sg18
I00
s(dp38
S'y'
F857
sS'x'
F145
sg18
I00
s(dp39
g16
S'curve'
p40
sS'x'
F145
sg18
I01
sS'y'
F1095
s(dp41
S'y'
F1350
sS'x'
F145
sg18
I00
s(dp42
S'y'
F1483
sS'x'
F357
sg18
I00
s(dp43
g16
S'curve'
p44
sS'x'
F620
sg18
I01
sS'y'
F1483
s(dp45
S'y'
F1483
sS'x'
F891
sg18
I00
s(dp46
S'y'
F1362
sS'x'
F1009
sg18
I00
s(dp47
g16
S'curve'
p48
sS'x'
F1034
sg18
I00
sS'y'
F1335
s(dp49
g16
S'line'
p50
sS'x'
F951
sg18
I00
sS'y'
F1217
s(dp51
S'y'
F1242
sS'x'
F921
sg18
I00
s(dp52
S'y'
F1334
sS'x'
F819
sg18
I00
s(dp53
g16
S'curve'
p54
sS'x'
F640
sg18
I01
sS'y'
F1334
s(dp55
S'y'
F1334
sS'x'
F478
sg18
I00
s(dp56
S'y'
F1270
sS'x'
F328
sg18
I00
s(dp57
g16
S'curve'
p58
sS'x'
F328
sg18
I01
sS'y'
F1105
s(dp59
S'y'
F934
sS'x'
F328
sg18
I00
s(dp60
S'y'
F868
sS'x'
F515
sg18
I00
s(dp61
g16
S'curve'
p62
sS'x'
F703
sg18
I01
sS'y'
F785
s(dp63
S'y'
F702
sS'x'
F891
sg18
I00
s(dp64
S'y'
F602
sS'x'
F1078
sg18
I00
s(dp65
g16
S'curve'
p66
sS'x'
F1078
sg18
I01
sS'y'
F364
s(dp67
S'y'
F78
sS'x'
F1078
sg18
I00
s(dp68
S'y'
F-23
sS'x'
F868
sg18
I00
stp69
stp70
sS'components'
p71
(tsS'anchors'
p72
(tsss."
AnchorPoint: "top" 623 1456 basechar 0
LayerCount: 2
Fore
SplineSet
600 139 m 256
 800.721 139 902.063 230.789 902.063 389.502 c 256
 902.063 522.522 854.133 582.526 623 655 c 256
 605 661 555 674 534 681 c 256
 271 757 134 857 134 1098 c 256
 134 1351 342 1482 617 1482 c 256
 886 1482 1003 1392 1066 1330 c 257
 971 1201 l 257
 911 1259 793 1321 640 1321 c 256
 464 1321 337 1251 337 1104 c 256
 337 965 379 917 583 853 c 256
 601 848 648 834 668 829 c 256
 1006.22 728.529 1101.01 616.184 1101.01 383.685 c 256
 1101.01 108.817 879.974 -22 608 -22 c 256
 363 -22 187 86 129 142 c 257
 214 280 l 257
 277 229 429 139 600 139 c 256
EndSplineSet
EndChar

StartChar: T
Encoding: 84 84 132
Width: 1145
VWidth: 0
GlyphClass: 2
Flags: W
PickledData: "(dp1
S'org.robofab.postScriptHintData'
p2
(dp3
sS'com.typemytype.robofont.layerData'
p4
(dp5
s."
AnchorPoint: "top" 571 1456 basechar 0
LayerCount: 2
Fore
SplineSet
475 0 m 257
 475 1295 l 257
 10 1295 l 257
 10 1456 l 257
 1134 1456 l 257
 1134 1295 l 257
 666 1295 l 257
 666 0 l 257
 475 0 l 257
EndSplineSet
EndChar

StartChar: Thorn
Encoding: 222 222 137
Width: 1280
VWidth: 0
GlyphClass: 2
Flags: W
PickledData: "(dp1
S'org.robofab.postScriptHintData'
p2
(dp3
sS'com.typemytype.robofont.layerData'
p4
(dp5
s."
LayerCount: 2
Fore
SplineSet
391 508 m 257
 649 508 l 258
 857 508 1000 589 1000 776 c 256
 1000 998 852 1051 610 1051 c 258
 391 1051 l 257
 391 508 l 257
200 0 m 257
 200 1456 l 257
 391 1456 l 257
 391 1212 l 257
 598 1212 l 258
 938 1212 1205 1140 1205 777 c 256
 1205 471 960 347 642 347 c 258
 391 347 l 257
 391 0 l 257
 200 0 l 257
EndSplineSet
EndChar

StartChar: U
Encoding: 85 85 138
Width: 1495
VWidth: 0
GlyphClass: 2
Flags: W
PickledData: "(dp1
S'org.robofab.postScriptHintData'
p2
(dp3
sS'com.typemytype.robofont.layerData'
p4
(dp5
S'b'
(dp6
S'name'
p7
S'U'
sS'lib'
p8
(dp9
sS'unicodes'
p10
(tsS'width'
p11
F1496.9000000000001
sS'contours'
p12
(tsS'components'
p13
(tsS'anchors'
p14
(tsss."
AnchorPoint: "top" 747 1456 basechar 0
LayerCount: 2
Fore
SplineSet
744 -22 m 256
 311 -22 170 225 170 560 c 258
 170 1456 l 257
 361 1456 l 257
 361 556 l 258
 361 267 495 139 746 139 c 256
 990 139 1132 265 1132 552 c 258
 1132 1456 l 257
 1322 1456 l 257
 1322 562 l 258
 1322 218 1164 -22 744 -22 c 256
EndSplineSet
EndChar

StartChar: V
Encoding: 86 86 152
Width: 1348
VWidth: 0
GlyphClass: 2
Flags: W
PickledData: "(dp1
S'org.robofab.postScriptHintData'
p2
(dp3
sS'com.typemytype.robofont.layerData'
p4
(dp5
S'b'
(dp6
S'name'
p7
S'V'
sS'lib'
p8
(dp9
sS'unicodes'
p10
(tsS'width'
p11
F1320.1500000000001
sS'contours'
p12
(tsS'components'
p13
(tsS'anchors'
p14
(tsss."
LayerCount: 2
Fore
SplineSet
576 0 m 257
 30 1456 l 257
 243 1456 l 257
 388.404 1046.74 532.287 635.953 679 228 c 257
 823.434 638.9 971.098 1046.57 1117 1456 c 257
 1318 1456 l 257
 776 0 l 257
 576 0 l 257
EndSplineSet
EndChar

StartChar: W
Encoding: 87 87 153
Width: 2022
VWidth: 0
GlyphClass: 2
Flags: W
PickledData: "(dp1
S'org.robofab.postScriptHintData'
p2
(dp3
sS'com.typemytype.robofont.layerData'
p4
(dp5
S'b'
(dp6
S'name'
p7
S'W'
sS'lib'
p8
(dp9
sS'unicodes'
p10
(tsS'width'
p11
F1988.8499999999999
sS'contours'
p12
(tsS'components'
p13
(tsS'anchors'
p14
(tsss."
AnchorPoint: "top" 1022 1456 basechar 0
LayerCount: 2
Fore
SplineSet
440 0 m 257
 42 1456 l 257
 247 1456 l 257
 504 452 l 257
 558 217 l 257
 671.632 638.035 801.875 1042.46 923 1456 c 257
 1114 1456 l 257
 1236.66 1043.66 1365.03 637.029 1483 220 c 257
 1576.92 638.079 1683.47 1043.53 1783 1456 c 257
 1980 1456 l 257
 1593 0 l 257
 1370 0 l 257
 1015 1199 l 257
 660 0 l 257
 440 0 l 257
EndSplineSet
EndChar

StartChar: X
Encoding: 88 88 158
Width: 1302
VWidth: 0
GlyphClass: 2
Flags: W
PickledData: "(dp1
S'org.robofab.postScriptHintData'
p2
(dp3
sS'com.typemytype.robofont.layerData'
p4
(dp5
S'b'
(dp6
S'name'
p7
S'X'
sS'lib'
p8
(dp9
sS'unicodes'
p10
(tsS'width'
p11
F1257.7
sS'contours'
p12
(tsS'components'
p13
(tsS'anchors'
p14
(tsss."
LayerCount: 2
Fore
SplineSet
35 0 m 257
 545 740 l 257
 57 1456 l 257
 288 1456 l 257
 662 896 l 257
 1037 1456 l 257
 1254 1456 l 257
 770 747 l 257
 1272 0 l 257
 1045 0 l 257
 655 589 l 257
 256 0 l 257
 35 0 l 257
EndSplineSet
EndChar

StartChar: Y
Encoding: 89 89 159
Width: 1239
VWidth: 0
GlyphClass: 2
Flags: W
PickledData: "(dp1
S'org.robofab.postScriptHintData'
p2
(dp3
sS'com.typemytype.robofont.layerData'
p4
(dp5
S'b'
(dp6
S'name'
p7
S'Y'
sS'lib'
p8
(dp9
sS'unicodes'
p10
(tsS'width'
p11
F1225.45
sS'contours'
p12
(tsS'components'
p13
(tsS'anchors'
p14
(tsss."
AnchorPoint: "top" 640 1456 basechar 0
LayerCount: 2
Fore
SplineSet
522 0 m 257
 522 575 l 257
 21 1456 l 257
 233 1456 l 257
 622 743 l 257
 1013 1456 l 257
 1226 1456 l 257
 714 578 l 257
 714 0 l 257
 522 0 l 257
EndSplineSet
EndChar

StartChar: Z
Encoding: 90 90 166
Width: 1185
VWidth: 0
GlyphClass: 2
Flags: W
PickledData: "(dp1
S'org.robofab.postScriptHintData'
p2
(dp3
sS'com.typemytype.robofont.layerData'
p4
(dp5
S'b'
(dp6
S'name'
p7
S'Z'
sS'lib'
p8
(dp9
sS'unicodes'
p10
(tsS'width'
p11
F1179.45
sS'contours'
p12
(tsS'components'
p13
(tsS'anchors'
p14
(tsss."
AnchorPoint: "top" 610 1456 basechar 0
LayerCount: 2
Fore
SplineSet
97 0 m 257
 97 103 l 257
 835 1295 l 257
 128 1295 l 257
 128 1456 l 257
 1091 1456 l 257
 1091 1357 l 257
 347 161 l 257
 1087 161 l 257
 1087 0 l 257
 97 0 l 257
EndSplineSet
EndChar

StartChar: a
Encoding: 97 97 170
Width: 1273
VWidth: 0
GlyphClass: 2
Flags: W
PickledData: "(dp1
S'org.robofab.postScriptHintData'
p2
(dp3
sS'com.typemytype.robofont.layerData'
p4
(dp5
S'b'
(dp6
S'name'
p7
S'a'
sS'lib'
p8
(dp9
sS'unicodes'
p10
(tsS'width'
p11
I1268
sS'contours'
p12
((dp13
S'points'
p14
((dp15
S'segmentType'
p16
S'curve'
p17
sS'x'
F595
sS'smooth'
p18
I01
sS'y'
F-22
s(dp19
S'y'
F-22
sS'x'
F262
sg18
I00
s(dp20
S'y'
F221
sS'x'
F100
sg18
I00
s(dp21
g16
S'curve'
p22
sS'x'
F100
sg18
I01
sS'y'
F518
s(dp23
S'y'
F824
sS'x'
F100
sg18
I00
s(dp24
S'y'
F1052
sS'x'
F287
sg18
I00
s(dp25
g16
S'curve'
p26
sS'x'
F603
sg18
I01
sS'y'
F1052
s(dp27
S'y'
F1052
sS'x'
F816
sg18
I00
s(dp28
S'y'
F903
sS'x'
F905
sg18
I00
s(dp29
g16
S'curve'
p30
sS'x'
F928
sg18
I00
sS'y'
F847
s(dp31
g16
S'line'
p32
sS'x'
F928
sg18
I00
sS'y'
F1026
s(dp33
g16
S'line'
p34
sS'x'
F1092
sg18
I00
sS'y'
F1026
s(dp35
g16
S'line'
p36
sS'x'
F1092
sg18
I00
sS'y'
F0
s(dp37
g16
S'line'
p38
sS'x'
F928
sg18
I00
sS'y'
F0
s(dp39
g16
S'line'
p40
sS'x'
F928
sg18
I00
sS'y'
F185
s(dp41
S'y'
F82
sS'x'
F881
sg18
I00
s(dp42
S'y'
F-22
sS'x'
F769
sg18
I00
stp43
s(dp44
g14
((dp45
g16
S'curve'
p46
sS'x'
F608
sg18
I01
sS'y'
F918
s(dp47
S'y'
F918
sS'x'
F359
sg18
I00
s(dp48
S'y'
F725
sS'x'
F270
sg18
I00
s(dp49
g16
S'curve'
p50
sS'x'
F270
sg18
I01
sS'y'
F516
s(dp51
S'y'
F308
sS'x'
F270
sg18
I00
s(dp52
S'y'
F112
sS'x'
F364
sg18
I00
s(dp53
g16
S'curve'
p54
sS'x'
F609
sg18
I01
sS'y'
F112
s(dp55
S'y'
F112
sS'x'
F813
sg18
I00
s(dp56
S'y'
F277
sS'x'
F934
sg18
I00
s(dp57
g16
S'curve'
p58
sS'x'
F934
sg18
I01
sS'y'
F526
s(dp59
S'y'
F734
sS'x'
F934
sg18
I00
s(dp60
S'y'
F918
sS'x'
F826
sg18
I00
stp61
stp62
sS'components'
p63
(tsS'anchors'
p64
(tsss."
AnchorPoint: "top" 593 1026 basechar 0
LayerCount: 2
Fore
SplineSet
615 128 m 256
 825 128 929 288 929 521 c 256
 929 738 823 902 613 902 c 256
 391 902 286 736 286 518 c 256
 286 300 391 128 615 128 c 256
589 -22 m 256
 274 -22 101 225 101 513 c 256
 101 811 288 1052 589 1052 c 256
 739 1052 864 970 923 863 c 257
 923 1026 l 257
 1105 1026 l 257
 1105 0 l 257
 921 0 l 257
 921 175 l 257
 863 55 743 -22 589 -22 c 256
EndSplineSet
EndChar

StartChar: acute
Encoding: 180 180 175
Width: 607
VWidth: 0
GlyphClass: 4
Flags: W
PickledData: "(dp1
S'org.robofab.postScriptHintData'
p2
(dp3
s."
AnchorPoint: "top" 141 1026 mark 0
LayerCount: 2
Fore
SplineSet
73 1172 m 257
 309 1532 l 257
 546 1532 l 257
 227 1172 l 257
 73 1172 l 257
EndSplineSet
EndChar

StartChar: ae
Encoding: 230 230 179
Width: 1791
VWidth: 0
GlyphClass: 2
Flags: W
PickledData: "(dp1
S'org.robofab.postScriptHintData'
p2
(dp3
sS'com.typemytype.robofont.layerData'
p4
(dp5
S'b'
(dp6
S'name'
p7
S'ae'
p8
sS'lib'
p9
(dp10
sS'unicodes'
p11
(tsS'width'
p12
F1790.05
sS'contours'
p13
(tsS'components'
p14
((dp15
S'transformation'
p16
(I1
I0
I0
I1
I642
I0
tp17
sS'baseGlyph'
p18
S'e'
stp19
sS'anchors'
p20
(tsss."
AnchorPoint: "top" 902 1026 basechar 0
LayerCount: 2
Fore
SplineSet
978 612 m 257
 1531 612 l 257
 1529 628 l 257
 1514 786 1420 905 1262 905 c 256
 1090 905 997 765 978 612 c 257
482 126 m 256
 703 126 789 302 791 485 c 257
 638 485 l 258
 429 485 269 446 269 294 c 256
 269 172 369 126 482 126 c 256
1284.72 -22.1385 m 256
 1097.26 -22.1385 949.894 73.8168 881 226 c 257
 815 84 667 -24 468 -24 c 256
 243 -24 86 90 86 285 c 256
 86 571 335 615 721 615 c 258
 789 615 l 257
 789 784 700 904 531 904 c 256
 402 904 275 853 209 822 c 257
 154 952 l 257
 181 967 333 1053 557 1053 c 256
 695 1053 846 979 898 840 c 257
 971.84 968.462 1098.46 1053.05 1257.76 1053.05 c 256
 1541.76 1053.05 1693 835.168 1693 523 c 256
 1693 513 1691 486 1691 486 c 257
 977 486 l 257
 977 459 l 257
 984.181 263.067 1079.77 127.7 1292.54 127.7 c 256
 1476.89 127.7 1608 239 1608 239 c 257
 1662 105 l 257
 1662 105 1524.27 -22.1385 1284.72 -22.1385 c 256
EndSplineSet
EndChar

StartChar: ampersand
Encoding: 38 38 185
Width: 1536
VWidth: 0
GlyphClass: 2
Flags: W
PickledData: "(dp1
S'org.robofab.postScriptHintData'
p2
(dp3
sS'com.typemytype.robofont.layerData'
p4
(dp5
S'b'
(dp6
S'name'
p7
S'ampersand'
p8
sS'lib'
p9
(dp10
sS'unicodes'
p11
(tsS'width'
p12
F1539.95
sS'contours'
p13
(tsS'components'
p14
(tsS'anchors'
p15
(tsss."
LayerCount: 2
Fore
SplineSet
595 920 m 257
 697 983 800 1070 800 1175 c 256
 800 1284 713 1326 637 1326 c 256
 545 1326 473 1275 473 1175 c 256
 473 1081 517 997 595 920 c 257
627 138 m 256
 782 138 880 201 968 293 c 257
 561 729 l 257
 430 656 320 575 320 413 c 256
 320 253 444 138 627 138 c 256
629 -24 m 256
 346 -24 130 137 130 411 c 256
 130 632 288 744 459 846 c 257
 365 950 295 1045 295 1179 c 256
 295 1375 446 1476 630 1476 c 256
 803 1476 977 1384 977 1185 c 256
 977 1029 845 902 702 815 c 257
 1061 423 l 257
 1141 554 1190 735 1190 903 c 257
 1360 875 l 257
 1354 671 1288 450 1180 293 c 257
 1238 234 1354 134 1493 100 c 257
 1371 -9 l 257
 1250 10 1130 118 1075 174 c 257
 968 61 825 -24 629 -24 c 256
EndSplineSet
EndChar

StartChar: approxequal
Encoding: 8776 8776 187
Width: 1351
VWidth: 0
GlyphClass: 2
Flags: W
PickledData: "(dp1
S'org.robofab.postScriptHintData'
p2
(dp3
sS'com.typemytype.robofont.layerData'
p4
(dp5
s."
LayerCount: 2
Fore
SplineSet
310 252 m 257
 175 288 l 257
 216 453 325 555 481 555 c 256
 573 555 660 512 739 469 c 256
 812 433 875 392 925 392 c 256
 1002 392 1049 453 1087 558 c 257
 1218 525 l 257
 1181 365 1088 257 920 257 c 256
 839 257 759 291 652 354 c 256
 589 390 530 418 479 418 c 256
 391 418 338 353 310 252 c 257
310 660 m 257
 173 691 l 257
 210 856 320 959 479 959 c 256
 566 959 640 926 731 872 c 256
 815 823 877 797 924 797 c 256
 1000 797 1049 856 1086 963 c 257
 1216 930 l 257
 1181 768 1085 663 918 663 c 256
 832 663 756 694 648 758 c 256
 584 796 528 825 476 825 c 256
 390 825 339 759 310 660 c 257
EndSplineSet
EndChar

StartChar: asciicircum
Encoding: 94 94 190
Width: 1628
VWidth: 0
GlyphClass: 2
Flags: W
PickledData: "(dp1
S'org.robofab.postScriptHintData'
p2
(dp3
sS'com.typemytype.robofont.layerData'
p4
(dp5
S'b'
(dp6
S'name'
p7
S'asciicircum'
p8
sS'lib'
p9
(dp10
sS'unicodes'
p11
(tsS'width'
p12
F1623.3499999999999
sS'contours'
p13
(tsS'components'
p14
(tsS'anchors'
p15
(tsss."
LayerCount: 2
Fore
SplineSet
271 563 m 257
 753 1456 l 257
 868 1456 l 257
 1357 563 l 257
 1179 563 l 257
 809 1256 l 257
 452 563 l 257
 271 563 l 257
EndSplineSet
EndChar

StartChar: asciitilde
Encoding: 126 126 191
Width: 1253
VWidth: 0
GlyphClass: 2
Flags: W
PickledData: "(dp1
S'org.robofab.postScriptHintData'
p2
(dp3
sS'com.typemytype.robofont.layerData'
p4
(dp5
s."
LayerCount: 2
Fore
SplineSet
262 373 m 257
 127 437 l 257
 157 580 252 691 422 691 c 256
 501 691 597 652 682 617 c 256
 741 595 831 554 873 554 c 256
 953 554 1006 641 1027 732 c 257
 1174 687 l 257
 1137 522 1036 402 873 402 c 256
 811 402 728 436 646 472 c 256
 588 495 484 540 426 540 c 256
 330 540 284 467 262 373 c 257
EndSplineSet
EndChar

StartChar: asterisk
Encoding: 42 42 192
Width: 1112
VWidth: 0
GlyphClass: 2
Flags: W
PickledData: "(dp1
S'org.robofab.postScriptHintData'
p2
(dp3
sS'com.typemytype.robofont.guides'
p4
((dp5
S'y'
I1149
sS'x'
I567
sS'magnetic'
p6
I5
sS'angle'
p7
I0
sS'isGlobal'
p8
I00
stp9
sS'com.typemytype.robofont.layerData'
p10
(dp11
S'b'
(dp12
S'name'
p13
S'asterisk'
p14
sS'lib'
p15
(dp16
sS'unicodes'
p17
(tsS'width'
p18
F1107.9000000000001
sS'contours'
p19
(tsS'components'
p20
(tsS'anchors'
p21
(tsss."
LayerCount: 2
Fore
SplineSet
718 711 m 257
 556 974 l 257
 397 716 l 257
 259 806 l 257
 453 1044 l 257
 183 1133 l 257
 238 1275 l 257
 491 1155 l 257
 461 1457 l 257
 631 1457 l 257
 616 1155 l 257
 851 1275 l 257
 919 1133 l 257
 656 1044 l 257
 858 798 l 257
 718 711 l 257
EndSplineSet
EndChar

StartChar: at
Encoding: 64 64 193
Width: 1768
VWidth: 0
GlyphClass: 2
Flags: W
PickledData: "(dp1
S'org.robofab.postScriptHintData'
p2
(dp3
sS'com.typemytype.robofont.layerData'
p4
(dp5
S'b'
(dp6
S'name'
p7
S'at'
p8
sS'lib'
p9
(dp10
sS'unicodes'
p11
(tsS'width'
p12
F1771.2
sS'contours'
p13
(tsS'components'
p14
(tsS'anchors'
p15
(tsss."
LayerCount: 2
Fore
SplineSet
1097.05 821.783 m 256
 1097.05 935.347 1038.61 1010.03 940.472 1010.03 c 256
 769.398 1010.03 653 793.644 653 596 c 256
 653 482 718 406 816 406 c 256
 971.818 406 1097.05 604.028 1097.05 821.783 c 256
924.629 1142.03 m 256
 1034.25 1142.03 1121.86 1092.59 1146 992 c 257
 1174 1114 l 257
 1329 1114 l 257
 1221 605 l 258
 1204 528 1197 485 1197 443 c 256
 1197 401 1220 359 1270 359 c 256
 1395 359 1530 550 1530 802 c 256
 1530 1150 1262 1355 937 1355 c 256
 563 1355 262 1109 262 676 c 256
 262 254 571 34 935 34 c 256
 1116 34 1303 89 1431 194 c 257
 1502 112 l 257
 1372 -20 1151 -88 925 -88 c 256
 457 -88 108 204 108 677 c 256
 108 1170 478 1478 933 1478 c 256
 1349 1478 1658 1199 1658 798 c 256
 1658 504 1480 258 1280 258 c 256
 1157.97 258 1087.65 326.316 1087.65 446.982 c 256
 1087.65 451.902 1087.76 456.908 1088 462 c 257
 1045 353 937 266 796 266 c 256
 638.951 266 480.927 386.975 480.927 613.508 c 256
 480.927 916.481 705.934 1142.03 924.629 1142.03 c 256
EndSplineSet
EndChar

StartChar: b
Encoding: 98 98 195
Width: 1274
VWidth: 0
GlyphClass: 2
Flags: W
PickledData: "(dp1
S'org.robofab.postScriptHintData'
p2
(dp3
sS'com.typemytype.robofont.layerData'
p4
(dp5
S'b'
(dp6
S'name'
p7
S'b'
sS'lib'
p8
(dp9
sS'unicodes'
p10
(tsS'width'
p11
F1270.0999999999999
sS'contours'
p12
(tsS'components'
p13
(tsS'anchors'
p14
(tsss."
AnchorPoint: "top" 707 1026 basechar 0
LayerCount: 2
Fore
SplineSet
679 128 m 256
 879 128 980 288 980 524 c 256
 980 744 872 902 678 902 c 256
 474 902 349 743 349 516 c 256
 349 287 472 128 679 128 c 256
703 -22 m 256
 532 -22 403 68 353 174 c 257
 352 0 l 257
 164 0 l 257
 167 100 171 224 171 270 c 258
 171 1486 l 257
 356 1486 l 257
 356 852 l 257
 399 947 519 1052 706 1052 c 256
 991 1052 1172 843 1172 526 c 256
 1172 192 973 -22 703 -22 c 256
EndSplineSet
EndChar

StartChar: backslash
Encoding: 92 92 196
Width: 834
VWidth: 0
GlyphClass: 2
Flags: W
PickledData: "(dp1
S'org.robofab.postScriptHintData'
p2
(dp3
sS'com.typemytype.robofont.layerData'
p4
(dp5
s."
LayerCount: 2
Fore
SplineSet
612 13 m 257
 53 1456 l 257
 220 1456 l 257
 784 13 l 257
 612 13 l 257
EndSplineSet
EndChar

StartChar: bar
Encoding: 124 124 197
Width: 950
VWidth: 0
GlyphClass: 2
Flags: W
PickledData: "(dp1
S'org.robofab.postScriptHintData'
p2
(dp3
sS'com.typemytype.robofont.layerData'
p4
(dp5
s."
LayerCount: 2
Fore
SplineSet
387 -482 m 257
 387 1535 l 257
 563 1535 l 257
 563 -482 l 257
 387 -482 l 257
EndSplineSet
EndChar

StartChar: braceleft
Encoding: 123 123 199
Width: 789
VWidth: 0
GlyphClass: 2
Flags: W
PickledData: "(dp1
S'org.robofab.postScriptHintData'
p2
(dp3
sS'com.typemytype.robofont.layerData'
p4
(dp5
s."
LayerCount: 2
Fore
SplineSet
504 1130 m 258
 504 868 l 258
 504 737 427 658 329 624 c 257
 433 581 504 489 504 354 c 258
 504 98 l 258
 504 -43 565 -78 699 -78 c 257
 699 -221 l 257
 413 -219 318 -104 318 83 c 258
 318 329 l 258
 318 475 270 553 126 565 c 257
 126 691 l 257
 259 701 316 775 317 910 c 257
 317 1155 l 258
 317 1336 396 1475 700 1475 c 257
 700 1332 l 257
 545 1331 504 1262 504 1130 c 258
EndSplineSet
EndChar

StartChar: braceright
Encoding: 125 125 200
Width: 787
VWidth: 0
GlyphClass: 2
Flags: W
PickledData: "(dp1
S'org.robofab.postScriptHintData'
p2
(dp3
sS'com.typemytype.robofont.layerData'
p4
(dp5
s."
LayerCount: 2
Fore
SplineSet
107 -221 m 257
 107 -77 l 257
 263 -77 304 -7 304 125 c 258
 304 387 l 258
 304 518 381 597 479 631 c 257
 375 674 304 766 304 901 c 258
 304 1157 l 258
 304 1298 243 1333 109 1333 c 257
 109 1475 l 257
 395 1473 490 1359 490 1172 c 258
 490 926 l 258
 490 780 538 702 682 690 c 257
 682 564 l 257
 549 554 491 480 490 345 c 257
 490 100 l 258
 490 -81 412 -221 107 -221 c 257
EndSplineSet
EndChar

StartChar: bracketleft
Encoding: 91 91 201
Width: 660
VWidth: 0
GlyphClass: 2
Flags: W
PickledData: "(dp1
S'org.robofab.postScriptHintData'
p2
(dp3
sS'com.typemytype.robofont.layerData'
p4
(dp5
s."
LayerCount: 2
Fore
SplineSet
172 -227 m 257
 172 1470 l 257
 582 1470 l 257
 582 1331 l 257
 353 1331 l 257
 353 -88 l 257
 583 -88 l 257
 583 -227 l 257
 172 -227 l 257
EndSplineSet
EndChar

StartChar: bracketright
Encoding: 93 93 202
Width: 660
VWidth: 0
GlyphClass: 2
Flags: W
PickledData: "(dp1
S'org.robofab.postScriptHintData'
p2
(dp3
sS'com.typemytype.robofont.layerData'
p4
(dp5
s."
LayerCount: 2
Fore
SplineSet
124 -227 m 257
 124 -88 l 257
 351 -88 l 257
 351 1331 l 257
 122 1331 l 257
 122 1470 l 257
 532 1470 l 257
 532 -227 l 257
 124 -227 l 257
EndSplineSet
EndChar

StartChar: breve
Encoding: 728 728 203
Width: 615
VWidth: 0
GlyphClass: 4
Flags: W
PickledData: "(dp1
S'org.robofab.postScriptHintData'
p2
(dp3
sS'com.typemytype.robofont.layerData'
p4
(dp5
S'b'
(dp6
S'name'
p7
S'breve'
p8
sS'lib'
p9
(dp10
sS'unicodes'
p11
(tsS'width'
p12
F621.60000000000002
sS'contours'
p13
(tsS'components'
p14
(tsS'anchors'
p15
(tsss."
AnchorPoint: "top" 315 1026 mark 0
LayerCount: 2
Fore
SplineSet
310 1180 m 256
 139 1180 44 1259 32 1440 c 257
 163 1440 l 257
 170 1341 226 1312 310 1312 c 256
 393 1312 444 1345 454 1440 c 257
 583 1440 l 257
 571 1261 475 1180 310 1180 c 256
EndSplineSet
EndChar

StartChar: brokenbar
Encoding: 166 166 204
Width: 500
VWidth: 0
GlyphClass: 2
Flags: W
PickledData: "(dp1
S'org.robofab.postScriptHintData'
p2
(dp3
sS'com.typemytype.robofont.layerData'
p4
(dp5
s."
LayerCount: 2
Fore
SplineSet
197 648 m 257
 197 1535 l 257
 357 1535 l 257
 357 648 l 257
 197 648 l 257
198 -482 m 257
 198 399 l 257
 358 399 l 257
 358 -482 l 257
 198 -482 l 257
EndSplineSet
EndChar

StartChar: bullet
Encoding: 8226 8226 205
Width: 989
VWidth: 0
GlyphClass: 2
Flags: W
PickledData: "(dp1
S'org.robofab.postScriptHintData'
p2
(dp3
sS'com.typemytype.robofont.layerData'
p4
(dp5
S'b'
(dp6
S'name'
p7
S'bullet'
p8
sS'lib'
p9
(dp10
sS'unicodes'
p11
(tsS'width'
p12
F989.64999999999998
sS'contours'
p13
(tsS'components'
p14
(tsS'anchors'
p15
(tsss."
LayerCount: 2
Fore
SplineSet
501 378 m 256
 310 378 176 522 176 691 c 256
 176 864 317 1010 501 1010 c 256
 689 1010 831 861 831 691 c 256
 831 518 687 378 501 378 c 256
EndSplineSet
EndChar

StartChar: c
Encoding: 99 99 207
Width: 1064
VWidth: 0
GlyphClass: 2
Flags: W
PickledData: "(dp1
S'org.robofab.postScriptHintData'
p2
(dp3
sS'com.typemytype.robofont.layerData'
p4
(dp5
S'b'
(dp6
S'name'
p7
S'c'
sS'lib'
p8
(dp9
sS'unicodes'
p10
(tsS'width'
p11
F1035.55
sS'contours'
p12
((dp13
S'points'
p14
((dp15
S'segmentType'
p16
S'curve'
p17
sS'x'
F605
sS'smooth'
p18
I01
sS'y'
F-22
s(dp19
S'y'
F-22
sS'x'
F302
sg18
I00
s(dp20
S'y'
F180
sS'x'
F98
sg18
I00
s(dp21
g16
S'curve'
p22
sS'x'
F98
sg18
I01
sS'y'
F503
s(dp23
S'y'
F840
sS'x'
F98
sg18
I00
s(dp24
S'y'
F1052
sS'x'
F301
sg18
I00
s(dp25
g16
S'curve'
p26
sS'x'
F624
sg18
I01
sS'y'
F1052
s(dp27
S'y'
F1052
sS'x'
F750
sg18
I00
s(dp28
S'y'
F1001
sS'x'
F871
sg18
I00
s(dp29
g16
S'curve'
p30
sS'x'
F938
sg18
I00
sS'y'
F922
s(dp31
g16
S'line'
p32
sS'x'
F890
sg18
I00
sS'y'
F805
s(dp33
S'y'
F874
sS'x'
F825
sg18
I00
s(dp34
S'y'
F918
sS'x'
F721
sg18
I00
s(dp35
g16
S'curve'
p36
sS'x'
F619
sg18
I01
sS'y'
F918
s(dp37
S'y'
F918
sS'x'
F406
sg18
I00
s(dp38
S'y'
F756
sS'x'
F268
sg18
I00
s(dp39
g16
S'curve'
p40
sS'x'
F268
sg18
I01
sS'y'
F505
s(dp41
S'y'
F260
sS'x'
F268
sg18
I00
s(dp42
S'y'
F112
sS'x'
F407
sg18
I00
s(dp43
g16
S'curve'
p44
sS'x'
F611
sg18
I01
sS'y'
F112
s(dp45
S'y'
F112
sS'x'
F716
sg18
I00
s(dp46
S'y'
F145
sS'x'
F827
sg18
I00
s(dp47
g16
S'curve'
p48
sS'x'
F901
sg18
I00
sS'y'
F202
s(dp49
g16
S'line'
p50
sS'x'
F953
sg18
I00
sS'y'
F87
s(dp51
S'y'
F19
sS'x'
F873
sg18
I00
s(dp52
S'y'
F-22
sS'x'
F747
sg18
I00
stp53
stp54
sS'components'
p55
(tsS'anchors'
p56
(tsss."
AnchorPoint: "top" 602 1026 basechar 0
LayerCount: 2
Fore
SplineSet
624 -22 m 256
 302 -22 101 202 101 507 c 256
 101 830 310 1052 628 1052 c 256
 767 1052 887 1009 967 930 c 257
 902 808 l 257
 840 862 749 901 641 901 c 256
 438 901 291 765 291 508 c 256
 291 276 425 128 638 128 c 256
 760 128 857 177 918 224 c 257
 976 91 l 257
 882 18 766 -22 624 -22 c 256
EndSplineSet
EndChar

StartChar: caron
Encoding: 711 711 209
Width: 699
VWidth: 0
GlyphClass: 4
Flags: W
PickledData: "(dp1
S'org.robofab.postScriptHintData'
p2
(dp3
s."
AnchorPoint: "top" 349 1026 mark 0
LayerCount: 2
Fore
SplineSet
268 1154 m 257
 21 1505 l 257
 185 1505 l 257
 347 1275 l 257
 510 1505 l 257
 678 1505 l 257
 432 1154 l 257
 268 1154 l 257
EndSplineSet
EndChar

StartChar: caron.alt
Encoding: 65537 -1 210
Width: 600
VWidth: 0
GlyphClass: 4
Flags: W
PickledData: "(dp1
S'org.robofab.postScriptHintData'
p2
(dp3
s."
AnchorPoint: "caron.alt" 48 1026 mark 0
LayerCount: 2
Fore
SplineSet
325 994 m 257
 434 1468 l 257
 643 1468 l 257
 475 994 l 257
 325 994 l 257
EndSplineSet
EndChar

StartChar: cedilla
Encoding: 184 184 215
Width: 529
VWidth: 0
GlyphClass: 2
Flags: W
PickledData: "(dp1
S'org.robofab.postScriptHintData'
p2
(dp3
sS'com.typemytype.robofont.layerData'
p4
(dp5
S'b'
(dp6
S'name'
p7
S'cedilla'
p8
sS'lib'
p9
(dp10
sS'unicodes'
p11
(tsS'width'
p12
I529
sS'contours'
p13
(tsS'components'
p14
(tsS'anchors'
p15
(tsss."
LayerCount: 2
Fore
SplineSet
221 -447 m 256
 156 -447 77 -430 45 -419 c 257
 58 -322 l 257
 83 -333 155 -349 212 -349 c 256
 213.154 -349.017 214.3 -349.025 215.439 -349.025 c 256
 282.393 -349.025 323 -320.214 323 -274 c 256
 323 -235 283 -187 163 -187 c 258
 141 -187 l 257
 173 9 l 257
 270 9 l 257
 250 -119 l 257
 387 -132 478 -189 478 -279 c 256
 478 -389.059 366.908 -447.013 224.656 -447.013 c 256
 223.44 -447.013 222.221 -447.008 221 -447 c 256
EndSplineSet
EndChar

StartChar: cent
Encoding: 162 162 216
Width: 1030
VWidth: 0
GlyphClass: 2
Flags: W
PickledData: "(dp1
S'org.robofab.postScriptHintData'
p2
(dp3
sS'com.typemytype.robofont.layerData'
p4
(dp5
S'b'
(dp6
S'name'
p7
S'cent'
p8
sS'lib'
p9
(dp10
sS'unicodes'
p11
(tsS'width'
p12
F1033.2
sS'contours'
p13
(tsS'components'
p14
(tsS'anchors'
p15
(tsss."
LayerCount: 2
Fore
SplineSet
669 -20.6156 m 257
 669 -213 l 257
 586 -213 l 257
 586 -20.937 l 257
 286.264 -3.97664 101 214.182 101 507 c 256
 101 815.555 291.725 1031.94 586 1050.68 c 257
 586 1252 l 257
 669 1252 l 257
 669 1050.72 l 257
 790.538 1043.07 894.978 1001.12 967 930 c 257
 902 808 l 257
 845.435 857.267 764.73 894.048 669 900.117 c 257
 669 129.061 l 257
 776.463 136.437 862.261 181.053 918 224 c 257
 976 91 l 257
 892.128 25.8656 790.742 -12.9971 669 -20.6156 c 257
586 131.098 m 257
 586 897.498 l 257
 411.981 874.714 291 741.148 291 508 c 256
 291 295.499 403.422 153.472 586 131.098 c 257
EndSplineSet
EndChar

StartChar: circumflex
Encoding: 710 710 217
Width: 699
VWidth: 0
GlyphClass: 4
Flags: W
PickledData: "(dp1
S'org.robofab.postScriptHintData'
p2
(dp3
sS'com.typemytype.robofont.layerData'
p4
(dp5
S'b'
(dp6
S'name'
p7
S'circumflex'
p8
sS'lib'
p9
(dp10
sS'unicodes'
p11
(tsS'width'
p12
I699
sS'contours'
p13
(tsS'components'
p14
(tsS'anchors'
p15
(tsss."
AnchorPoint: "top" 346 1026 mark 0
LayerCount: 2
Fore
SplineSet
34 1154 m 257
 268 1501 l 257
 430 1501 l 257
 666 1154 l 257
 510 1154 l 257
 348 1372 l 257
 184 1154 l 257
 34 1154 l 257
EndSplineSet
EndChar

StartChar: colon
Encoding: 58 58 218
Width: 541
VWidth: 0
GlyphClass: 2
Flags: W
PickledData: "(dp1
S'org.robofab.postScriptHintData'
p2
(dp3
sS'com.typemytype.robofont.layerData'
p4
(dp5
S'b'
(dp6
S'name'
p7
S'colon'
p8
sS'lib'
p9
(dp10
sS'unicodes'
p11
(tsS'width'
p12
F544.60000000000002
sS'contours'
p13
(tsS'components'
p14
(tsS'anchors'
p15
(tsss."
LayerCount: 2
Fore
SplineSet
173 832 m 257
 173 1058 l 257
 391 1058 l 257
 391 832 l 257
 173 832 l 257
173 1 m 257
 173 227 l 257
 391 227 l 257
 391 1 l 257
 173 1 l 257
EndSplineSet
EndChar

StartChar: comma
Encoding: 44 44 219
Width: 487
VWidth: 0
GlyphClass: 2
Flags: W
PickledData: "(dp1
S'org.robofab.postScriptHintData'
p2
(dp3
sS'com.typemytype.robofont.layerData'
p4
(dp5
S'b'
(dp6
S'name'
p7
S'comma'
p8
sS'lib'
p9
(dp10
sS'unicodes'
p11
(tsS'width'
p12
F491.10000000000002
sS'contours'
p13
(tsS'components'
p14
(tsS'anchors'
p15
(tsss."
LayerCount: 2
Fore
SplineSet
72 -265 m 257
 180 222 l 257
 389 222 l 257
 222 -265 l 257
 72 -265 l 257
EndSplineSet
EndChar

StartChar: copyright
Encoding: 169 169 220
Width: 1728
VWidth: 0
GlyphClass: 2
Flags: W
PickledData: "(dp1
S'org.robofab.postScriptHintData'
p2
(dp3
sS'com.typemytype.robofont.layerData'
p4
(dp5
S'b'
(dp6
S'name'
p7
S'copyright'
p8
sS'lib'
p9
(dp10
sS'unicodes'
p11
(tsS'width'
p12
I1733
sS'contours'
p13
(tsS'components'
p14
(tsS'anchors'
p15
(tsss."
LayerCount: 2
Fore
SplineSet
863 -25 m 256
 448 -25 108 312 108 728 c 256
 108 1144 448 1483 863 1483 c 256
 1280 1483 1621 1144 1621 728 c 256
 1621 312 1280 -25 863 -25 c 256
865 75 m 256
 1218 75 1503 371 1503 725 c 256
 1503 1080 1218 1381 865 1381 c 256
 510 1381 225 1080 225 725 c 256
 225 371 510 75 865 75 c 256
886 286 m 256
 640 286 452 459 452 718 c 256
 452 992 630 1173 889 1173 c 256
 1000 1173 1099 1137 1164 1072 c 257
 1111 970 l 257
 1059 1014 982 1047 898 1047 c 256
 747 1047 611 948 611 719 c 256
 611 520 731 411 893 411 c 256
 980 411 1063 442 1124 490 c 257
 1174 381 l 257
 1092 319 995 286 886 286 c 256
EndSplineSet
EndChar

StartChar: currency
Encoding: 164 164 221
Width: 1218
VWidth: 0
GlyphClass: 2
Flags: W
PickledData: "(dp1
S'org.robofab.postScriptHintData'
p2
(dp3
s."
LayerCount: 2
Fore
SplineSet
609 712 m 256
 783 712 911 850 911 1024 c 256
 911 1198 783 1333 609 1333 c 256
 435 1333 307 1198 307 1024 c 256
 307 850 435 712 609 712 c 256
171 545 m 257
 120 596 l 257
 307 783 l 257
 252 849 219 933 219 1026 c 256
 219 1123 255 1211 314 1278 c 257
 119 1473 l 257
 170 1524 l 257
 367 1328 l 257
 433 1380 518 1411 610 1411 c 256
 702 1411 786 1380 853 1329 c 257
 1048 1524 l 257
 1099 1473 l 257
 906 1280 l 257
 966 1212 1002 1124 1002 1026 c 256
 1002 933 969 848 913 781 c 257
 1099 596 l 257
 1048 545 l 257
 862 731 l 257
 794 675 706 641 610 641 c 256
 514 641 426 675 358 732 c 257
 171 545 l 257
EndSplineSet
EndChar

StartChar: d
Encoding: 100 100 222
Width: 1264
VWidth: 0
GlyphClass: 2
Flags: W
PickledData: "(dp1
S'org.robofab.postScriptHintData'
p2
(dp3
sS'com.typemytype.robofont.layerData'
p4
(dp5
S'b'
(dp6
S'name'
p7
S'd'
sS'lib'
p8
(dp9
sS'unicodes'
p10
(tsS'width'
p11
F1265.05
sS'contours'
p12
(tsS'components'
p13
(tsS'anchors'
p14
(tsss."
AnchorPoint: "caron.alt" 898 1026 basechar 0
AnchorPoint: "top" 553 1026 basechar 0
LayerCount: 2
Fore
SplineSet
597 128 m 256
 803 128 912 287 912 522 c 256
 912 741 800 902 600 902 c 256
 401 902 292 742 292 514 c 256
 292 289 396 128 597 128 c 256
570 -22 m 256
 299 -22 101 184 101 510 c 256
 101 824 277 1052 580 1052 c 256
 747 1052 867 962 908 872 c 257
 908 1486 l 257
 1093 1486 l 257
 1093 266 l 257
 1094 204 1096 126 1100 0 c 257
 913 0 l 257
 909 174 l 257
 872 78 757 -22 570 -22 c 256
EndSplineSet
EndChar

StartChar: dagger
Encoding: 8224 8224 223
Width: 1022
VWidth: 0
GlyphClass: 2
Flags: W
PickledData: "(dp1
S'org.robofab.postScriptHintData'
p2
(dp3
sS'com.typemytype.robofont.layerData'
p4
(dp5
s."
LayerCount: 2
Fore
SplineSet
445 0 m 257
 445 903 l 257
 117 903 l 257
 117 1034 l 257
 445 1034 l 257
 445 1458 l 257
 603 1458 l 257
 603 1034 l 257
 938 1034 l 257
 938 903 l 257
 597 903 l 257
 597 0 l 257
 445 0 l 257
EndSplineSet
EndChar

StartChar: daggerdbl
Encoding: 8225 8225 224
Width: 1086
VWidth: 0
GlyphClass: 2
Flags: W
PickledData: "(dp1
S'org.robofab.postScriptHintData'
p2
(dp3
sS'com.typemytype.robofont.layerData'
p4
(dp5
S'b'
(dp6
S'name'
p7
S'daggerdbl'
p8
sS'lib'
p9
(dp10
sS'unicodes'
p11
(tsS'width'
p12
F1092.6500000000001
sS'contours'
p13
(tsS'components'
p14
(tsS'anchors'
p15
(tsss."
LayerCount: 2
Fore
SplineSet
127 1034 m 257
 462 1034 l 257
 462 1459 l 257
 626 1459 l 257
 626 1034 l 257
 961 1034 l 257
 961 919 l 257
 626 919 l 257
 626 510 l 257
 954 510 l 257
 954 399 l 257
 626 399 l 257
 626 0 l 257
 462 0 l 257
 462 399 l 257
 123 399 l 257
 123 510 l 257
 462 510 l 257
 462 919 l 257
 127 919 l 257
 127 1034 l 257
EndSplineSet
EndChar

StartChar: degree
Encoding: 176 176 228
Width: 854
VWidth: 0
GlyphClass: 2
Flags: W
PickledData: "(dp1
S'org.robofab.postScriptHintData'
p2
(dp3
sS'com.typemytype.robofont.layerData'
p4
(dp5
S'b'
(dp6
S'name'
p7
S'degree'
p8
sS'lib'
p9
(dp10
sS'unicodes'
p11
(tsS'width'
p12
F856.60000000000002
sS'contours'
p13
(tsS'components'
p14
(tsS'anchors'
p15
(tsss."
LayerCount: 2
Fore
SplineSet
427 854 m 256
 255 854 123 988 123 1152 c 256
 123 1318 255 1450 427 1450 c 256
 600 1450 731 1318 731 1152 c 256
 731 988 599 854 427 854 c 256
427 968 m 256
 539 968 607 1053 607 1153 c 256
 607 1253 538 1336 427 1336 c 256
 317 1336 247 1253 247 1153 c 256
 247 1053 315 968 427 968 c 256
EndSplineSet
EndChar

StartChar: dieresis
Encoding: 168 168 229
Width: 743
VWidth: 0
GlyphClass: 4
Flags: W
PickledData: "(dp1
S'org.robofab.postScriptHintData'
p2
(dp3
s."
AnchorPoint: "top" 371 1026 mark 0
LayerCount: 2
Fore
SplineSet
480 1182 m 257
 480 1371 l 257
 666 1371 l 257
 666 1182 l 257
 480 1182 l 257
77 1182 m 257
 77 1371 l 257
 264 1371 l 257
 264 1182 l 257
 77 1182 l 257
EndSplineSet
EndChar

StartChar: divide
Encoding: 247 247 230
Width: 1286
VWidth: 0
GlyphClass: 2
Flags: W
PickledData: "(dp1
S'org.robofab.postScriptHintData'
p2
(dp3
sS'com.typemytype.robofont.layerData'
p4
(dp5
s."
LayerCount: 2
Fore
SplineSet
524 865 m 257
 524 1090 l 257
 761 1090 l 257
 761 865 l 257
 524 865 l 257
157 476 m 257
 157 632 l 257
 1122 632 l 257
 1122 476 l 257
 157 476 l 257
525 11 m 257
 525 237 l 257
 762 237 l 257
 762 11 l 257
 525 11 l 257
EndSplineSet
EndChar

StartChar: dollar
Encoding: 36 36 232
Width: 1197
VWidth: 0
GlyphClass: 2
Flags: W
PickledData: "(dp1
S'org.robofab.postScriptHintData'
p2
(dp3
sS'com.typemytype.robofont.layerData'
p4
(dp5
S'b'
(dp6
S'name'
p7
S'dollar'
p8
sS'lib'
p9
(dp10
sS'unicodes'
p11
(tsS'width'
p12
F1200.0999999999999
sS'contours'
p13
(tsS'components'
p14
(tsS'anchors'
p15
(tsss."
LayerCount: 2
Fore
SplineSet
590 -203 m 257
 675 -203 l 257
 675 -19.2506 l 257
 915.304 0.8797 1101.01 131.707 1101.01 383.685 c 256
 1101.01 614.572 1007.53 726.966 675 826.908 c 257
 675 1319.91 l 257
 810.977 1311.39 915.659 1254.5 971 1201 c 257
 1066 1330 l 257
 1007.72 1387.35 903.246 1468.66 675 1480.53 c 257
 675 1628 l 257
 590 1628 l 257
 590 1481.57 l 257
 328.499 1473.22 134 1342.65 134 1098 c 256
 134 857 271 757 534 681 c 256
 546.612 676.796 569.682 670.428 590 664.712 c 257
 590 139.102 l 257
 423.095 142.502 275.769 229.996 214 280 c 257
 129 142 l 257
 185.57 87.3811 354.391 -16.7046 590 -21.8053 c 257
 590 -203 l 257
675 143.939 m 257
 675 637.81 l 257
 861.491 572.463 902.063 511.885 902.063 389.502 c 256
 902.063 251.712 826.882 165.261 675 143.939 c 257
590 851.024 m 257
 383.667 909.9 337 966.068 337 1104 c 256
 337 1236.67 440.447 1306.62 590 1319 c 257
 590 851.024 l 257
EndSplineSet
EndChar

StartChar: dotaccent
Encoding: 729 729 233
Width: 524
VWidth: 0
GlyphClass: 4
Flags: W
PickledData: "(dp1
S'org.robofab.postScriptHintData'
p2
(dp3
sS'com.typemytype.robofont.layerData'
p4
(dp5
S'b'
(dp6
S'name'
p7
S'dotaccent'
p8
sS'lib'
p9
(dp10
sS'unicodes'
p11
(tsS'width'
p12
F524
sS'contours'
p13
(tsS'components'
p14
(tsS'anchors'
p15
(tsss."
AnchorPoint: "top" 265 1026 mark 0
LayerCount: 2
Fore
SplineSet
168 1256 m 257
 168 1438 l 257
 356 1438 l 257
 356 1256 l 257
 168 1256 l 257
EndSplineSet
EndChar

StartChar: dotlessi
Encoding: 305 305 234
Width: 533
VWidth: 0
GlyphClass: 2
Flags: W
PickledData: "(dp1
S'org.robofab.postScriptHintData'
p2
(dp3
sS'com.typemytype.robofont.layerData'
p4
(dp5
s."
AnchorPoint: "top" 268 1026 basechar 0
LayerCount: 2
Fore
SplineSet
177 0 m 257
 176 1026 l 257
 361 1026 l 257
 362 0 l 257
 177 0 l 257
EndSplineSet
EndChar

StartChar: uni0237
Encoding: 567 567 235
Width: 503
VWidth: 0
GlyphClass: 2
Flags: W
PickledData: "(dp1
S'org.robofab.postScriptHintData'
p2
(dp3
s."
AnchorPoint: "top" 259 1026 basechar 0
LayerCount: 2
Fore
SplineSet
21 -423 m 256
 -17 -423 -59 -420 -106 -411 c 257
 -106 -260 l 257
 -67 -269 -39 -272 -18 -272 c 256
 106 -272 169 -176 169 36 c 258
 169 1026 l 257
 343 1026 l 257
 343 104 l 258
 343 -127 313 -423 21 -423 c 256
EndSplineSet
EndChar

StartChar: e
Encoding: 101 101 238
Width: 1166
VWidth: 0
GlyphClass: 2
Flags: W
PickledData: "(dp1
S'org.robofab.postScriptHintData'
p2
(dp3
sS'com.typemytype.robofont.layerData'
p4
(dp5
S'b'
(dp6
S'name'
p7
S'e'
sS'lib'
p8
(dp9
sS'unicodes'
p10
(tsS'width'
p11
F1169.75
sS'contours'
p12
(tsS'components'
p13
(tsS'anchors'
p14
(tsssS'com.fontlab.hintData'
p15
(dp16
S'vhints'
p17
((dp18
S'position'
p19
I106
sg11
I195
stp20
sS'hhints'
p21
((dp22
g19
I-22
sg11
I154
s(dp23
g19
I486
sg11
I131
s(dp24
g19
I901
sg11
I151
stp25
ssS'com.typemytype.robofont.guides'
p26
(ts."
HStem: -22 154 486 131 901 151
VStem: 106 195
AnchorPoint: "top" 591 1026 basechar 0
LayerCount: 2
Fore
SplineSet
296 613 m 257
 885 613 l 257
 871 803 769 906 611 906 c 256
 444 906 323 796 296 613 c 257
634 -22 m 256
 306 -22 101 190 101 510 c 256
 101 822 298 1052 606 1052 c 256
 902 1052 1054 835 1054 536 c 256
 1054 531 1053 507 1051 487 c 257
 291 487 l 257
 295 252 439 128 644 128 c 256
 764 128 875 166 970 242 c 257
 1025 106 l 257
 917 22 783 -22 634 -22 c 256
EndSplineSet
EndChar

StartChar: eight
Encoding: 56 56 247
Width: 1232
VWidth: 0
GlyphClass: 2
Flags: W
PickledData: "(dp1
S'org.robofab.postScriptHintData'
p2
(dp3
sS'com.typemytype.robofont.layerData'
p4
(dp5
S'b'
(dp6
S'name'
p7
S'eight'
p8
sS'lib'
p9
(dp10
sS'unicodes'
p11
(tsS'width'
p12
F1235.45
sS'contours'
p13
(tsS'components'
p14
(tsS'anchors'
p15
(tsss."
LayerCount: 2
Fore
SplineSet
619 843 m 257
 784 879 883 975 883 1115 c 256
 883 1256 760 1333 620 1333 c 256
 478 1333 356 1258 356 1113 c 256
 356 975 455 878 619 843 c 257
619 131 m 256
 790 131 912 217 912 384 c 256
 912 535 788 646 621 682 c 257
 453 646 328 539 328 382 c 256
 328 219 450 131 619 131 c 256
620 -22 m 256
 363 -22 139 122 139 380 c 256
 139 560 251 697 437 763 c 257
 279 824 172 942 172 1110 c 256
 172 1344 368 1482 619 1482 c 256
 875 1482 1068 1343 1068 1107 c 256
 1068 939 964 821 804 763 c 257
 986 698 1100 556 1100 377 c 256
 1100 120 873 -22 620 -22 c 256
EndSplineSet
EndChar

StartChar: ellipsis
Encoding: 8230 8230 249
Width: 1620
VWidth: 0
GlyphClass: 2
Flags: W
PickledData: "(dp1
S'org.robofab.postScriptHintData'
p2
(dp3
s."
LayerCount: 2
Fore
SplineSet
1219 -11 m 257
 1219 214 l 257
 1456 214 l 257
 1456 -11 l 257
 1219 -11 l 257
684 -11 m 257
 684 214 l 257
 921 214 l 257
 921 -11 l 257
 684 -11 l 257
148 -11 m 257
 148 214 l 257
 386 214 l 257
 386 -11 l 257
 148 -11 l 257
EndSplineSet
EndChar

StartChar: emdash
Encoding: 8212 8212 251
Width: 2171
VWidth: 0
GlyphClass: 2
Flags: W
PickledData: "(dp1
S'org.robofab.postScriptHintData'
p2
(dp3
s."
LayerCount: 2
Fore
SplineSet
16 480 m 257
 16 634 l 257
 2149 634 l 257
 2149 480 l 257
 16 480 l 257
EndSplineSet
EndChar

StartChar: endash
Encoding: 8211 8211 252
Width: 1103
VWidth: 0
GlyphClass: 2
Flags: W
PickledData: "(dp1
S'org.robofab.postScriptHintData'
p2
(dp3
sS'com.typemytype.robofont.layerData'
p4
(dp5
s."
LayerCount: 2
Fore
SplineSet
3 488 m 257
 3 634 l 257
 1097 634 l 257
 1097 488 l 257
 3 488 l 257
EndSplineSet
EndChar

StartChar: eng
Encoding: 331 331 253
Width: 1235
VWidth: 0
GlyphClass: 2
Flags: W
PickledData: "(dp1
S'org.robofab.postScriptHintData'
p2
(dp3
sS'com.typemytype.robofont.layerData'
p4
(dp5
s."
LayerCount: 2
Fore
SplineSet
602 -408 m 257
 602 -269 l 257
 834 -269 895 -145 895 100 c 258
 895 549 l 258
 895 769 863 900 667 900 c 256
 494 900 362 749 361 643 c 257
 361 0 l 257
 176 0 l 257
 176 742 l 258
 176 896 166 1026 166 1026 c 257
 358 1026 l 257
 359 882 l 257
 434 995 563 1051 703 1051 c 256
 984 1051 1081 869 1081 559 c 258
 1081 130 l 258
 1081 -210 951 -408 602 -408 c 257
EndSplineSet
EndChar

StartChar: equal
Encoding: 61 61 255
Width: 1290
VWidth: 0
GlyphClass: 2
Flags: W
PickledData: "(dp1
S'org.robofab.postScriptHintData'
p2
(dp3
sS'com.typemytype.robofont.layerData'
p4
(dp5
S'b'
(dp6
S'name'
p7
S'equal'
p8
sS'lib'
p9
(dp10
sS'unicodes'
p11
(tsS'width'
p12
I1229
sS'contours'
p13
(tsS'components'
p14
(tsS'anchors'
p15
(tsss."
LayerCount: 2
Fore
SplineSet
171 683 m 257
 171 837 l 257
 1118 837 l 257
 1118 683 l 257
 171 683 l 257
172 292 m 257
 172 445 l 257
 1120 445 l 257
 1120 292 l 257
 172 292 l 257
EndSplineSet
EndChar

StartChar: estimated
Encoding: 8494 8494 256
Width: 1206
VWidth: 0
GlyphClass: 2
Flags: W
PickledData: "(dp1
S'org.robofab.postScriptHintData'
p2
(dp3
s."
LayerCount: 2
Fore
SplineSet
316 713 m 257
 886 713 l 257
 886 1037 749 1141 609 1141 c 256
 473 1141 318 1036 316 713 c 257
627 114 m 256
 342 114 106 294 106 652 c 256
 106 1050 362 1199 611 1199 c 256
 846 1199 1064 1075 1064 700 c 256
 1064 689 1063 671 1059 655 c 257
 316 655 l 257
 315.988 652.971 315.982 650.949 315.982 648.933 c 256
 315.982 321.209 477.222 176 676 176 c 256
 778 176 904 218 1029 299 c 257
 1056 247 l 257
 920 158 769 114 627 114 c 256
EndSplineSet
EndChar

StartChar: eth
Encoding: 240 240 257
Width: 1223
VWidth: 0
GlyphClass: 2
Flags: W
PickledData: "(dp1
S'org.robofab.postScriptHintData'
p2
(dp3
sS'com.typemytype.robofont.layerData'
p4
(dp5
S'b'
(dp6
S'name'
p7
S'eth'
p8
sS'lib'
p9
(dp10
sS'unicodes'
p11
(tsS'width'
p12
F1222.55
sS'contours'
p13
(tsS'components'
p14
(tsS'anchors'
p15
(tsss."
LayerCount: 2
Fore
SplineSet
601 138 m 256
 788 138 903 274 903 475 c 256
 903 642 755 752 596 752 c 256
 421 752 299 640 299 452 c 256
 299 257 429 138 601 138 c 256
597 -22 m 256
 295 -22 107 187 107 454 c 256
 107 721 309 905 592 905 c 256
 759 905 880 813 927 726 c 257
 924 821 847 1067 682 1211 c 257
 461 1069 l 257
 395 1171 l 257
 581 1290 l 257
 489 1351 384 1399 268 1427 c 257
 339 1552 l 257
 468 1523 600 1464 718 1377 c 257
 934 1516 l 257
 1000 1414 l 257
 815 1296 l 257
 986 1136 1105 912 1105 623 c 256
 1105 208 920 -22 597 -22 c 256
EndSplineSet
EndChar

StartChar: exclam
Encoding: 33 33 259
Width: 582
VWidth: 0
GlyphClass: 2
Flags: W
PickledData: "(dp1
S'org.robofab.postScriptHintData'
p2
(dp3
sS'com.typemytype.robofont.layerData'
p4
(dp5
S'b'
(dp6
S'name'
p7
S'exclam'
p8
sS'lib'
p9
(dp10
sS'unicodes'
p11
(tsS'width'
p12
F590
sS'contours'
p13
(tsS'components'
p14
(tsS'anchors'
p15
(tsss."
LayerCount: 2
Fore
SplineSet
249 377 m 257
 194 1456 l 257
 412 1456 l 257
 357 377 l 257
 249 377 l 257
211 0 m 257
 211 220 l 257
 397 220 l 257
 397 0 l 257
 211 0 l 257
EndSplineSet
EndChar

StartChar: exclamdown
Encoding: 161 161 260
Width: 572
VWidth: 0
GlyphClass: 2
Flags: W
PickledData: "(dp1
S'org.robofab.postScriptHintData'
p2
(dp3
sS'com.typemytype.robofont.layerData'
p4
(dp5
S'b'
(dp6
S'name'
p7
S'exclamdown'
p8
sS'lib'
p9
(dp10
sS'unicodes'
p11
(tsS'width'
p12
F614.5
sS'contours'
p13
(tsS'components'
p14
(tsS'anchors'
p15
(tsss."
LayerCount: 2
Fore
SplineSet
194 1140 m 257
 380 1140 l 257
 380 920 l 257
 194 920 l 257
 194 1140 l 257
232 763 m 257
 340 763 l 257
 395 -316 l 257
 177 -316 l 257
 232 763 l 257
EndSplineSet
EndChar

StartChar: f
Encoding: 102 102 261
Width: 727
VWidth: 0
GlyphClass: 2
Flags: W
PickledData: "(dp1
S'org.robofab.postScriptHintData'
p2
(dp3
sS'com.typemytype.robofont.layerData'
p4
(dp5
S'b'
(dp6
S'name'
p7
S'f'
sS'lib'
p8
(dp9
sS'unicodes'
p10
(tsS'width'
p11
F733.10000000000002
sS'contours'
p12
(tsS'components'
p13
(tsS'anchors'
p14
(tsss."
AnchorPoint: "top" 358 1456 basechar 0
LayerCount: 2
Fore
SplineSet
252 0 m 257
 252 903 l 257
 69 903 l 257
 69 1026 l 257
 252 1026 l 257
 252 1110 l 258
 252 1371 295 1485 645 1485 c 258
 692 1485 l 257
 688 1342 l 257
 452 1342 436 1300 436 1125 c 258
 436 1026 l 257
 681 1026 l 257
 681 903 l 257
 436 903 l 257
 436 0 l 257
 252 0 l 257
EndSplineSet
EndChar

StartChar: uniFB00
Encoding: 64256 64256 262
Width: 1349
VWidth: 0
GlyphClass: 2
Flags: W
PickledData: "(dp1
S'org.robofab.postScriptHintData'
p2
(dp3
sS'com.typemytype.robofont.layerData'
p4
(dp5
s."
LayerCount: 2
Fore
SplineSet
1062 913 m 257
 1062 0 l 257
 892 0 l 257
 892 913 l 257
 420 913 l 257
 420 0 l 257
 250 0 l 257
 250 913 l 257
 68 913 l 257
 68 1026 l 257
 250 1026 l 257
 250 1115 l 258
 250 1370 295 1485 635 1485 c 258
 682 1485 l 257
 681 1351 l 257
 438 1351 420 1301 420 1136 c 258
 420 1026 l 257
 892 1026 l 257
 892 1115 l 258
 892 1370 937 1485 1277 1485 c 258
 1324 1485 l 257
 1323 1351 l 257
 1080 1351 1062 1301 1062 1136 c 258
 1062 1026 l 257
 1310 1026 l 257
 1310 913 l 257
 1062 913 l 257
EndSplineSet
EndChar

StartChar: uniFB03
Encoding: 64259 64259 263
Width: 1830
VWidth: 0
GlyphClass: 2
Flags: W
PickledData: "(dp1
S'org.robofab.postScriptHintData'
p2
(dp3
sS'com.typemytype.robofont.layerData'
p4
(dp5
s."
LayerCount: 2
Fore
SplineSet
1656 1295 m 257
 1487 1295 l 257
 1487 1456 l 257
 1656 1456 l 257
 1656 1295 l 257
1656 0 m 257
 1487 0 l 257
 1487 913 l 257
 1045 913 l 257
 1045 0 l 257
 874 0 l 257
 874 913 l 257
 420 913 l 257
 420 0 l 257
 250 0 l 257
 250 913 l 257
 68 913 l 257
 68 1026 l 257
 250 1026 l 257
 250 1114 l 258
 250 1369 295 1485 635 1485 c 258
 682 1485 l 257
 681 1350 l 257
 438 1350 420 1300 420 1135 c 258
 420 1026 l 257
 874 1026 l 257
 874 1114 l 258
 874 1369 918 1485 1259 1485 c 258
 1305 1485 l 257
 1303 1350 l 257
 1061 1350 1045 1300 1045 1135 c 258
 1045 1026 l 257
 1656 1026 l 257
 1656 0 l 257
EndSplineSet
EndChar

StartChar: uniFB04
Encoding: 64260 64260 264
Width: 1896
VWidth: 0
GlyphClass: 2
Flags: W
PickledData: "(dp1
S'org.robofab.postScriptHintData'
p2
(dp3
sS'com.typemytype.robofont.layerData'
p4
(dp5
s."
AnchorPoint: "top" 358 1456 basechar 0
LayerCount: 2
Fore
SplineSet
251 0 m 257
 251 913 l 257
 68 913 l 257
 68 1026 l 257
 251 1026 l 257
 251 1107 l 258
 251 1368 295 1485 645 1485 c 258
 693 1485 l 257
 690 1342 l 257
 454 1342 436 1296 436 1125 c 258
 436 1026 l 257
 680 1026 l 257
 680 913 l 257
 436 913 l 257
 436 0 l 257
 251 0 l 257
EndSplineSet
Refer: 269 64258 N 1 0 0 1 562 0 2
EndChar

StartChar: uniFB01
Encoding: 64257 64257 266
Width: 1224
VWidth: 0
GlyphClass: 2
Flags: W
PickledData: "(dp1
S'org.robofab.postScriptHintData'
p2
(dp3
sS'com.typemytype.robofont.layerData'
p4
(dp5
S'b'
(dp6
S'name'
p7
S'fi'
p8
sS'lib'
p9
(dp10
sS'unicodes'
p11
(tsS'width'
p12
F1237.6500000000001
sS'contours'
p13
((dp14
S'points'
p15
((dp16
S'segmentType'
p17
S'line'
p18
sS'x'
F249
sS'smooth'
p19
I00
sS'y'
F0
s(dp20
g17
S'line'
p21
sS'x'
F249
sg19
I00
sS'y'
F919
s(dp22
g17
S'line'
p23
sS'x'
F68
sg19
I00
sS'y'
F919
s(dp24
g17
S'line'
p25
sS'x'
F68
sg19
I00
sS'y'
F1026
s(dp26
g17
S'line'
p27
sS'x'
F249
sg19
I00
sS'y'
F1026
s(dp28
g17
S'line'
p29
sS'x'
F249
sg19
I01
sS'y'
F1127
s(dp30
S'y'
F1378
sS'x'
F249
sg19
I00
s(dp31
S'y'
F1492
sS'x'
F295
sg19
I00
s(dp32
g17
S'curve'
p33
sS'x'
F630
sg19
I01
sS'y'
F1492
s(dp34
g17
S'line'
p35
sS'x'
F676
sg19
I00
sS'y'
F1492
s(dp36
g17
S'line'
p37
sS'x'
F676
sg19
I00
sS'y'
F1364
s(dp38
S'y'
F1364
sS'x'
F431
sg19
I00
s(dp39
S'y'
F1311
sS'x'
F413
sg19
I00
s(dp40
g17
S'curve'
p41
sS'x'
F413
sg19
I01
sS'y'
F1150
s(dp42
g17
S'line'
p43
sS'x'
F413
sg19
I00
sS'y'
F1026
s(dp44
g17
S'line'
p45
sS'x'
F662
sg19
I00
sS'y'
F1026
s(dp46
g17
S'line'
p47
sS'x'
F662
sg19
I00
sS'y'
F919
s(dp48
g17
S'line'
p49
sS'x'
F413
sg19
I00
sS'y'
F919
s(dp50
g17
S'line'
p51
sS'x'
F413
sg19
I00
sS'y'
F0
stp52
s(dp53
g15
((dp54
g17
S'line'
p55
sS'x'
F869
sg19
I00
sS'y'
F0
s(dp56
g17
S'line'
p57
sS'x'
F869
sg19
I00
sS'y'
F1026
s(dp58
g17
S'line'
p59
sS'x'
F1033
sg19
I00
sS'y'
F1026
s(dp60
g17
S'line'
p61
sS'x'
F1033
sg19
I00
sS'y'
F0
stp62
s(dp63
g15
((dp64
g17
S'line'
p65
sS'x'
F869
sg19
I00
sS'y'
F1307
s(dp66
g17
S'line'
p67
sS'x'
F869
sg19
I00
sS'y'
F1462
s(dp68
g17
S'line'
p69
sS'x'
F1033
sg19
I00
sS'y'
F1462
s(dp70
g17
S'line'
p71
sS'x'
F1033
sg19
I00
sS'y'
F1307
stp72
stp73
sS'components'
p74
(tsS'anchors'
p75
(tsss."
LayerCount: 2
Fore
SplineSet
250 0 m 257
 250 912 l 257
 69 912 l 257
 69 1026 l 257
 250 1026 l 257
 250 1114 l 258
 250 1369 295 1485 637 1485 c 258
 684 1485 l 257
 683 1349 l 257
 441 1349 424 1300 424 1134 c 258
 424 1026 l 257
 914 1026 l 257
 914 912 l 257
 424 912 l 257
 424 0 l 257
 250 0 l 257
EndSplineSet
Refer: 295 105 N 1 0 0 1 704 0 2
EndChar

StartChar: five
Encoding: 53 53 267
Width: 1231
VWidth: 0
GlyphClass: 2
Flags: W
PickledData: "(dp1
S'org.robofab.postScriptHintData'
p2
(dp3
sS'com.typemytype.robofont.layerData'
p4
(dp5
s."
LayerCount: 2
Fore
SplineSet
603 -23 m 256
 445 -23 283 29 162 147 c 257
 253 289 l 257
 355 183 484 139 601 139 c 256
 787 139 911 266 911 469 c 256
 911 636 815 773 645 773 c 256
 555 773 459 738 417 673 c 257
 237 690 l 257
 241 1456 l 257
 1022 1456 l 257
 1022 1293 l 257
 416 1293 l 257
 400 839 l 257
 461 908 565 940 667 940 c 256
 928 940 1107 738 1107 465 c 256
 1107 161 888 -23 603 -23 c 256
EndSplineSet
EndChar

StartChar: uniFB02
Encoding: 64258 64258 269
Width: 1265
VWidth: 0
GlyphClass: 2
Flags: W
PickledData: "(dp1
S'org.robofab.postScriptHintData'
p2
(dp3
sS'com.typemytype.robofont.layerData'
p4
(dp5
S'b'
(dp6
S'name'
p7
S'fl'
p8
sS'lib'
p9
(dp10
sS'unicodes'
p11
(tsS'width'
p12
F1252.7
sS'contours'
p13
(tsS'components'
p14
((dp15
S'transformation'
p16
(I1
I0
I0
I1
I20
I0
tp17
sS'baseGlyph'
p18
S'f'
s(dp19
g16
(I1
I0
I0
I1
I714
I0
tp20
sg18
S'l'
stp21
sS'anchors'
p22
(tsss."
LayerCount: 2
Fore
SplineSet
268 0 m 257
 268 913 l 257
 69 913 l 257
 69 1026 l 257
 268 1026 l 257
 268 1105 l 258
 268 1364 356 1466 735 1466 c 258
 1093 1466 l 257
 1093 0 l 257
 920 0 l 257
 920 1331 l 257
 741 1331 l 258
 484 1331 441 1285 441 1132 c 258
 441 1026 l 257
 688 1026 l 257
 688 913 l 257
 441 913 l 257
 441 0 l 257
 268 0 l 257
EndSplineSet
EndChar

StartChar: florin
Encoding: 402 402 270
Width: 1070
VWidth: 0
GlyphClass: 2
Flags: W
PickledData: "(dp1
S'org.robofab.postScriptHintData'
p2
(dp3
sS'com.typemytype.robofont.layerData'
p4
(dp5
S'b'
(dp6
S'name'
p7
S'florin'
p8
sS'lib'
p9
(dp10
sS'unicodes'
p11
(tsS'width'
p12
F1073.0999999999999
sS'contours'
p13
(tsS'components'
p14
(tsS'anchors'
p15
(tsss."
LayerCount: 2
Fore
SplineSet
201 -299 m 256
 180 -299 139 -294 96 -282 c 257
 110 -157 l 257
 129 -162 157 -167 181 -167 c 256
 267 -167 333 -114 359 34 c 258
 500 815 l 257
 347 815 l 257
 369 935 l 257
 521 935 l 257
 556 1126 l 257
 585 1294 649 1469 891 1469 c 256
 979 1469 1050 1435 1050 1435 c 257
 1034 1313 l 257
 998 1324 956 1333 918 1333 c 256
 813 1333 762 1278 738 1157 c 258
 693 935 l 257
 907 935 l 257
 884 815 l 257
 672 815 l 257
 541 86 l 257
 498 -163 437 -299 201 -299 c 256
EndSplineSet
EndChar

StartChar: foundryicon
Encoding: 65539 -1 271
Width: 1347
VWidth: 0
GlyphClass: 2
Flags: W
PickledData: "(dp1
S'org.robofab.postScriptHintData'
p2
(dp3
s."
LayerCount: 2
Fore
SplineSet
280 2 m 257
 423 461 l 257
 34 755 l 257
 519 755 l 257
 669 1215 l 257
 828 755 l 257
 1313 755 l 257
 922 461 l 257
 1066 2 l 257
 669 278 l 257
 280 2 l 257
485 405 m 257
 591 405 l 257
 591 552 l 257
 761 405 l 257
 867 405 l 257
 867 672 l 257
 761 672 l 257
 761 523 l 257
 591 672 l 257
 485 672 l 257
 485 405 l 257
EndSplineSet
EndChar

StartChar: four
Encoding: 52 52 272
Width: 1231
VWidth: 0
GlyphClass: 2
Flags: W
PickledData: "(dp1
S'org.robofab.postScriptHintData'
p2
(dp3
sS'com.typemytype.robofont.layerData'
p4
(dp5
S'b'
(dp6
S'name'
p7
S'four'
p8
sS'lib'
p9
(dp10
sS'unicodes'
p11
(tsS'width'
p12
F1234.0999999999999
sS'contours'
p13
(tsS'components'
p14
(tsS'anchors'
p15
(tsss."
LayerCount: 2
Fore
SplineSet
305 527 m 257
 751 527 l 257
 751 1272 l 257
 606.609 1019.39 454.318 774.682 305 527 c 257
752 0 m 257
 752 385 l 257
 105 385 l 257
 105 513 l 257
 702 1456 l 257
 936 1456 l 257
 936 527 l 257
 1153 527 l 257
 1153 385 l 257
 935 385 l 257
 935 0 l 257
 752 0 l 257
EndSplineSet
EndChar

StartChar: uni2074
Encoding: 8308 8308 273
Width: 1167
VWidth: 0
GlyphClass: 2
Flags: W
PickledData: "(dp1
S'org.robofab.postScriptHintData'
p2
(dp3
sS'com.typemytype.robofont.layerData'
p4
(dp5
s."
LayerCount: 2
Fore
SplineSet
429 952 m 257
 668 952 l 257
 668 1291 l 257
 429 952 l 257
670 658 m 257
 670 846 l 257
 290 846 l 257
 290 938 l 257
 658 1456 l 257
 796 1456 l 257
 796 952 l 257
 903 952 l 257
 902 846 l 257
 795 846 l 257
 795 658 l 257
 670 658 l 257
EndSplineSet
EndChar

StartChar: fraction
Encoding: 8260 8260 274
Width: 1073
VWidth: 0
GlyphClass: 2
Flags: W
PickledData: "(dp1
S'org.robofab.postScriptHintData'
p2
(dp3
sS'com.typemytype.robofont.layerData'
p4
(dp5
S'b'
(dp6
S'name'
p7
S'fraction'
p8
sS'lib'
p9
(dp10
sS'unicodes'
p11
(tsS'width'
p12
F1077.8
sS'contours'
p13
(tsS'components'
p14
(tsS'anchors'
p15
(tsss."
LayerCount: 2
Fore
SplineSet
24 0 m 257
 924 1456 l 257
 1097 1456 l 257
 199 0 l 257
 24 0 l 257
EndSplineSet
EndChar

StartChar: g
Encoding: 103 103 275
Width: 1267
VWidth: 0
GlyphClass: 2
Flags: W
PickledData: "(dp1
S'org.robofab.postScriptHintData'
p2
(dp3
sS'com.typemytype.robofont.layerData'
p4
(dp5
S'b'
(dp6
S'name'
p7
S'g'
sS'lib'
p8
(dp9
sS'unicodes'
p10
(tsS'width'
p11
I1254
sS'contours'
p12
((dp13
S'points'
p14
((dp15
S'segmentType'
p16
S'curve'
p17
sS'x'
F580
sS'smooth'
p18
I01
sS'y'
F134
s(dp19
S'y'
F134
sS'x'
F799
sg18
I00
s(dp20
S'y'
F295
sS'x'
F920
sg18
I00
s(dp21
g16
S'curve'
p22
sS'x'
F920
sg18
I01
sS'y'
F550
s(dp23
S'y'
F775
sS'x'
F920
sg18
I00
s(dp24
S'y'
F918
sS'x'
F796
sg18
I00
s(dp25
g16
S'curve'
p26
sS'x'
F600
sg18
I01
sS'y'
F918
s(dp27
S'y'
F918
sS'x'
F399
sg18
I00
s(dp28
S'y'
F762
sS'x'
F268
sg18
I00
s(dp29
g16
S'curve'
p30
sS'x'
F268
sg18
I01
sS'y'
F515
s(dp31
S'y'
F282
sS'x'
F268
sg18
I00
s(dp32
S'y'
F134
sS'x'
F389
sg18
I00
stp33
s(dp34
g14
((dp35
g16
S'curve'
p36
sS'x'
F534
sg18
I01
sS'y'
F-420
s(dp37
S'y'
F-420
sS'x'
F408
sg18
I00
s(dp38
S'y'
F-381
sS'x'
F289
sg18
I00
s(dp39
g16
S'curve'
p40
sS'x'
F189
sg18
I00
sS'y'
F-331
s(dp41
g16
S'line'
p42
sS'x'
F216
sg18
I00
sS'y'
F-187
s(dp43
S'y'
F-238
sS'x'
F300
sg18
I00
s(dp44
S'y'
F-282
sS'x'
F416
sg18
I00
s(dp45
g16
S'curve'
p46
sS'x'
F528
sg18
I01
sS'y'
F-282
s(dp47
S'y'
F-282
sS'x'
F790
sg18
I00
s(dp48
S'y'
F-183
sS'x'
F920
sg18
I00
s(dp49
g16
S'curve'
p50
sS'x'
F920
sg18
I01
sS'y'
F49
s(dp51
g16
S'line'
p52
sS'x'
F920
sg18
I00
sS'y'
F273
s(dp53
g16
S'line'
p54
sS'x'
F948
sg18
I00
sS'y'
F253
s(dp55
S'y'
F139
sS'x'
F905
sg18
I00
s(dp56
S'y'
F0
sS'x'
F802
sg18
I00
s(dp57
g16
S'curve'
p58
sS'x'
F579
sg18
I01
sS'y'
F0
s(dp59
S'y'
F0
sS'x'
F298
sg18
I00
s(dp60
S'y'
F201
sS'x'
F98
sg18
I00
s(dp61
g16
S'curve'
p62
sS'x'
F98
sg18
I01
sS'y'
F511
s(dp63
S'y'
F843
sS'x'
F98
sg18
I00
s(dp64
S'y'
F1052
sS'x'
F284
sg18
I00
s(dp65
g16
S'curve'
p66
sS'x'
F579
sg18
I01
sS'y'
F1052
s(dp67
S'y'
F1052
sS'x'
F820
sg18
I00
s(dp68
S'y'
F900
sS'x'
F903
sg18
I00
s(dp69
g16
S'curve'
p70
sS'x'
F958
sg18
I00
sS'y'
F798
s(dp71
g16
S'line'
p72
sS'x'
F919
sg18
I00
sS'y'
F787
s(dp73
g16
S'line'
p74
sS'x'
F926
sg18
I00
sS'y'
F1026
s(dp75
g16
S'line'
p76
sS'x'
F1090
sg18
I00
sS'y'
F1026
s(dp77
S'y'
F1026
sS'x'
F1090
sg18
I00
s(dp78
S'y'
F857
sS'x'
F1084
sg18
I00
s(dp79
g16
S'curve'
p80
sS'x'
F1084
sg18
I01
sS'y'
F773
s(dp81
g16
S'line'
p82
sS'x'
F1084
sg18
I01
sS'y'
F143
s(dp83
S'y'
F-255
sS'x'
F1084
sg18
I00
s(dp84
S'y'
F-420
sS'x'
F903
sg18
I00
stp85
stp86
sS'components'
p87
(tsS'anchors'
p88
(tsss."
AnchorPoint: "top" 552 1026 basechar 0
LayerCount: 2
Fore
SplineSet
594 158 m 256
 809 158 912 313 912 532 c 256
 912 754 801 902 607 902 c 256
 408 902 292 743 292 518 c 256
 292 291 401 158 594 158 c 256
571 -418 m 256
 437 -418 314 -391 192 -331 c 257
 221 -172 l 257
 340 -240 448 -269 564 -269 c 256
 776 -269 908 -158 908 85 c 258
 908 192 l 257
 857 100 753 14 583 14 c 256
 304 14 101 203 101 516 c 256
 101 827 271 1052 582 1052 c 256
 749 1052 854 968 908 874 c 257
 911 1026 l 257
 1101 1026 l 257
 1101 1026 1090 860 1090 750 c 258
 1090 140 l 258
 1090 -179 937 -418 571 -418 c 256
EndSplineSet
EndChar

StartChar: germandbls
Encoding: 223 223 282
Width: 1251
VWidth: 0
GlyphClass: 2
Flags: W
PickledData: "(dp1
S'org.robofab.postScriptHintData'
p2
(dp3
sS'com.typemytype.robofont.layerData'
p4
(dp5
S'b'
(dp6
S'name'
p7
S'germandbls'
p8
sS'lib'
p9
(dp10
sS'unicodes'
p11
(tsS'width'
p12
F1250.95
sS'contours'
p13
(tsS'components'
p14
(tsS'anchors'
p15
(tsss."
LayerCount: 2
Fore
SplineSet
761.492 124.054 m 256
 888.317 124.054 981 193.763 981 331 c 256
 981 521 833 635 556 751 c 257
 556 891 l 257
 755 960 824 1047 824 1174 c 256
 824 1285 736 1355 602 1355 c 256
 436 1355 348 1227 348 1028 c 258
 348 0 l 257
 167 0 l 257
 166 1026 l 258
 166 1337 331 1503 603 1503 c 256
 855 1503 1015 1374 1015 1181 c 256
 1015 1024 935 924 769 854 c 256
 755 846 718 832 702 827 c 257
 718 823 755 811 771 805 c 256
 978 730 1177 595 1177 343 c 256
 1177 118 1008 -24 799 -24 c 256
 636 -24 497 29 477 37 c 257
 506 182 l 257
 524.567 174.573 650.002 124.054 761.492 124.054 c 256
EndSplineSet
EndChar

StartChar: grave
Encoding: 96 96 283
Width: 597
VWidth: 0
GlyphClass: 4
Flags: W
PickledData: "(dp1
S'org.robofab.postScriptHintData'
p2
(dp3
sS'com.typemytype.robofont.layerData'
p4
(dp5
s."
AnchorPoint: "top" 463 1026 mark 0
LayerCount: 2
Fore
SplineSet
383 1173 m 257
 46 1533 l 257
 286 1533 l 257
 536 1173 l 257
 383 1173 l 257
EndSplineSet
EndChar

StartChar: greater
Encoding: 62 62 284
Width: 1256
VWidth: 0
GlyphClass: 2
Flags: W
PickledData: "(dp1
S'org.robofab.postScriptHintData'
p2
(dp3
sS'com.typemytype.robofont.layerData'
p4
(dp5
S'b'
(dp6
S'name'
p7
S'greater'
p8
sS'lib'
p9
(dp10
sS'unicodes'
p11
(tsS'width'
p12
F1268.05
sS'contours'
p13
(tsS'components'
p14
(tsS'anchors'
p15
(tsss."
LayerCount: 2
Fore
SplineSet
215 68 m 257
 215 242 l 257
 914 560 l 257
 220 903 l 257
 220 1075 l 257
 1153 602 l 257
 1153 504 l 257
 215 68 l 257
EndSplineSet
EndChar

StartChar: greaterequal
Encoding: 8805 8805 285
Width: 1350
VWidth: 0
GlyphClass: 2
Flags: W
PickledData: "(dp1
S'org.robofab.postScriptHintData'
p2
(dp3
sS'com.typemytype.robofont.layerData'
p4
(dp5
S'b'
(dp6
S'name'
p7
S'greaterequal'
p8
sS'lib'
p9
(dp10
sS'unicodes'
p11
(tsS'width'
p12
F1350.3499999999999
sS'contours'
p13
(tsS'components'
p14
(tsS'anchors'
p15
(tsss."
LayerCount: 2
Fore
SplineSet
188 0 m 257
 188 130 l 257
 1163 130 l 257
 1163 0 l 257
 188 0 l 257
199 214 m 257
 199 387 l 257
 903 708 l 257
 203 1049 l 257
 203 1220 l 257
 1135 753 l 257
 1135 657 l 257
 199 214 l 257
EndSplineSet
EndChar

StartChar: guillemotleft
Encoding: 171 171 286
Width: 1118
VWidth: 0
GlyphClass: 2
Flags: W
PickledData: "(dp1
S'org.robofab.postScriptHintData'
p2
(dp3
sS'com.typemytype.robofont.layerData'
p4
(dp5
S'b'
(dp6
S'name'
p7
S'guillemotright'
p8
sS'lib'
p9
(dp10
sS'unicodes'
p11
(tsS'width'
p12
F1122.45
sS'contours'
p13
(tsS'components'
p14
(tsS'anchors'
p15
(tsss."
LayerCount: 2
Fore
SplineSet
832 170 m 257
 561 543 l 257
 838 918 l 257
 1001 918 l 257
 752 543 l 257
 993 170 l 257
 832 170 l 257
403 170 m 257
 132 543 l 257
 408 918 l 257
 570 918 l 257
 323 543 l 257
 562 170 l 257
 403 170 l 257
EndSplineSet
EndChar

StartChar: guillemotright
Encoding: 187 187 287
Width: 1118
VWidth: 0
GlyphClass: 2
Flags: W
PickledData: "(dp1
S'org.robofab.postScriptHintData'
p2
(dp3
sS'com.typemytype.robofont.layerData'
p4
(dp5
S'b'
(dp6
S'name'
p7
S'guillemotright'
p8
sS'lib'
p9
(dp10
sS'unicodes'
p11
(tsS'width'
p12
F1122.45
sS'contours'
p13
(tsS'components'
p14
(tsS'anchors'
p15
(tsss."
LayerCount: 2
Fore
SplineSet
565 168 m 257
 812 543 l 257
 573 916 l 257
 732 916 l 257
 1003 543 l 257
 727 168 l 257
 565 168 l 257
135 168 m 257
 382 543 l 257
 143 916 l 257
 303 916 l 257
 574 543 l 257
 297 168 l 257
 135 168 l 257
EndSplineSet
EndChar

StartChar: guilsinglleft
Encoding: 8249 8249 288
Width: 685
VWidth: 0
GlyphClass: 2
Flags: W
PickledData: "(dp1
S'org.robofab.postScriptHintData'
p2
(dp3
sS'com.typemytype.robofont.layerData'
p4
(dp5
S'b'
(dp6
S'name'
p7
S'guilsinglleft'
p8
sS'lib'
p9
(dp10
sS'unicodes'
p11
(tsS'width'
p12
F688.39999999999998
sS'contours'
p13
(tsS'components'
p14
(tsS'anchors'
p15
(tsss."
LayerCount: 2
Fore
SplineSet
409 168 m 257
 138 541 l 257
 415 916 l 257
 577 916 l 257
 329 541 l 257
 569 168 l 257
 409 168 l 257
EndSplineSet
EndChar

StartChar: guilsinglright
Encoding: 8250 8250 289
Width: 685
VWidth: 0
GlyphClass: 2
Flags: W
PickledData: "(dp1
S'org.robofab.postScriptHintData'
p2
(dp3
sS'com.typemytype.robofont.layerData'
p4
(dp5
S'b'
(dp6
S'name'
p7
S'guilsinglleft'
p8
sS'lib'
p9
(dp10
sS'unicodes'
p11
(tsS'width'
p12
F688.39999999999998
sS'contours'
p13
(tsS'components'
p14
(tsS'anchors'
p15
(tsss."
LayerCount: 2
Fore
SplineSet
133 167 m 257
 380 543 l 257
 141 915 l 257
 300 915 l 257
 571 542 l 257
 295 167 l 257
 133 167 l 257
EndSplineSet
EndChar

StartChar: h
Encoding: 104 104 290
Width: 1237
VWidth: 0
GlyphClass: 2
Flags: W
PickledData: "(dp1
S'org.robofab.postScriptHintData'
p2
(dp3
sS'com.typemytype.robofont.layerData'
p4
(dp5
S'b'
(dp6
S'name'
p7
S'h'
sS'lib'
p8
(dp9
sS'unicodes'
p10
(tsS'width'
p11
F1237.95
sS'contours'
p12
((dp13
S'points'
p14
((dp15
S'segmentType'
p16
S'line'
p17
sS'x'
F178
sS'smooth'
p18
I00
sS'y'
F0
s(dp19
g16
S'line'
p20
sS'x'
F178
sg18
I01
sS'y'
F779
s(dp21
S'y'
F902
sS'x'
F178
sg18
I00
s(dp22
S'y'
F1026
sS'x'
F172
sg18
I00
s(dp23
g16
S'curve'
p24
sS'x'
F172
sg18
I00
sS'y'
F1026
s(dp25
g16
S'line'
p26
sS'x'
F339
sg18
I00
sS'y'
F1026
s(dp27
g16
S'line'
p28
sS'x'
F343
sg18
I00
sS'y'
F864
s(dp29
S'y'
F976
sS'x'
F423
sg18
I00
s(dp30
S'y'
F1051
sS'x'
F548
sg18
I00
s(dp31
g16
S'curve'
p32
sS'x'
F700
sg18
I01
sS'y'
F1051
s(dp33
S'y'
F1051
sS'x'
F999
sg18
I00
s(dp34
S'y'
F844
sS'x'
F1082
sg18
I00
s(dp35
g16
S'curve'
p36
sS'x'
F1082
sg18
I01
sS'y'
F550
s(dp37
g16
S'line'
p38
sS'x'
F1082
sg18
I00
sS'y'
F0
s(dp39
g16
S'line'
p40
sS'x'
F917
sg18
I00
sS'y'
F0
s(dp41
g16
S'line'
p42
sS'x'
F917
sg18
I01
sS'y'
F531
s(dp43
S'y'
F764
sS'x'
F917
sg18
I00
s(dp44
S'y'
F917
sS'x'
F886
sg18
I00
s(dp45
g16
S'curve'
p46
sS'x'
F670
sg18
I01
sS'y'
F917
s(dp47
S'y'
F917
sS'x'
F471
sg18
I00
s(dp48
S'y'
F742
sS'x'
F344
sg18
I00
s(dp49
g16
S'curve'
p50
sS'x'
F343
sg18
I00
sS'y'
F652
s(dp51
g16
S'line'
p52
sS'x'
F343
sg18
I00
sS'y'
F0
stp53
stp54
sS'components'
p55
(tsS'anchors'
p56
(tsss."
AnchorPoint: "top" 698 1026 basechar 0
LayerCount: 2
Fore
SplineSet
166 0 m 257
 166 1486 l 257
 350 1486 l 257
 350 865 l 257
 412 977 554 1052 699 1052 c 256
 962 1052 1079 857 1079 619 c 258
 1079 0 l 257
 894 0 l 257
 894 614 l 258
 894 814 829 902 674 902 c 256
 506 902 350 769 350 622 c 258
 350 0 l 257
 166 0 l 257
EndSplineSet
EndChar

StartChar: hungarumlaut
Encoding: 733 733 293
Width: 969
VWidth: 0
GlyphClass: 4
Flags: W
PickledData: "(dp1
S'org.robofab.postScriptHintData'
p2
(dp3
s."
AnchorPoint: "top" 281 1026 mark 0
LayerCount: 2
Fore
SplineSet
407 1160 m 257
 648 1532 l 257
 856 1532 l 257
 544 1160 l 257
 407 1160 l 257
83 1160 m 257
 295 1532 l 257
 494 1532 l 257
 216 1160 l 257
 83 1160 l 257
EndSplineSet
EndChar

StartChar: hyphen
Encoding: 45 45 294
Width: 679
VWidth: 0
GlyphClass: 2
Flags: W
PickledData: "(dp1
S'org.robofab.postScriptHintData'
p2
(dp3
sS'com.typemytype.robofont.layerData'
p4
(dp5
S'b'
(dp6
S'name'
p7
S'hyphen'
p8
sS'lib'
p9
(dp10
sS'unicodes'
p11
(tsS'width'
p12
F683.5
sS'contours'
p13
(tsS'components'
p14
(tsS'anchors'
p15
(tsss."
LayerCount: 2
Fore
SplineSet
61 487 m 257
 61 629 l 257
 617 629 l 257
 617 487 l 257
 61 487 l 257
EndSplineSet
EndChar

StartChar: i
Encoding: 105 105 295
Width: 520
VWidth: 0
GlyphClass: 2
Flags: W
PickledData: "(dp1
S'org.robofab.postScriptHintData'
p2
(dp3
sS'com.typemytype.robofont.layerData'
p4
(dp5
S'b'
(dp6
S'name'
p7
S'i'
sS'lib'
p8
(dp9
sS'unicodes'
p10
(tsS'width'
p11
F521.10000000000002
sS'contours'
p12
(tsS'components'
p13
(tsS'anchors'
p14
(tsss."
LayerCount: 2
Fore
SplineSet
173 1285 m 257
 173 1456 l 257
 355 1456 l 257
 355 1285 l 257
 173 1285 l 257
172 0 m 257
 172 1026 l 257
 355 1026 l 257
 355 0 l 257
 172 0 l 257
EndSplineSet
EndChar

StartChar: Delta
Encoding: 8710 8710 307
Width: 1309
VWidth: 0
GlyphClass: 2
Flags: W
PickledData: "(dp1
S'org.robofab.postScriptHintData'
p2
(dp3
sS'com.typemytype.robofont.layerData'
p4
(dp5
S'b'
(dp6
S'name'
p7
S'uni2206'
p8
sS'lib'
p9
(dp10
sS'unicodes'
p11
(tsS'width'
p12
F1312.25
sS'contours'
p13
(tsS'components'
p14
(tsS'anchors'
p15
(tsss."
LayerCount: 2
Fore
SplineSet
254 142 m 257
 1047 142 l 257
 657 1237 l 257
 254 142 l 257
56 0 m 257
 56 84 l 257
 584 1455 l 257
 738 1455 l 257
 1249 84 l 257
 1249 0 l 257
 56 0 l 257
EndSplineSet
EndChar

StartChar: infinity
Encoding: 8734 8734 308
Width: 1728
VWidth: 0
GlyphClass: 2
Flags: W
PickledData: "(dp1
S'org.robofab.postScriptHintData'
p2
(dp3
s."
LayerCount: 2
Fore
SplineSet
1268 363 m 256
 1416 363 1482 476 1482 621 c 256
 1482 732 1393 826 1263 826 c 256
 1132 826 1018 714 936 595 c 257
 1054 443 1145 363 1268 363 c 256
468 363 m 256
 596 363 702 466 794 591 c 257
 702 724 596 826 458 826 c 256
 316 826 236 720 236 595 c 256
 236 477 326 363 468 363 c 256
461 235 m 256
 244 235 96 410 96 616 c 256
 96 803 266 952 456 952 c 256
 621 952 748 853 865 699 c 257
 976 849 1098 952 1267 952 c 256
 1487 952 1627 804 1627 597 c 256
 1627 383 1459 235 1265 235 c 256
 1117 235 996 317 863 488 c 257
 748 338 623 235 461 235 c 256
EndSplineSet
EndChar

StartChar: integral
Encoding: 8747 8747 309
Width: 749
VWidth: 0
GlyphClass: 2
Flags: W
PickledData: "(dp1
S'org.robofab.postScriptHintData'
p2
(dp3
sS'com.typemytype.robofont.layerData'
p4
(dp5
S'b'
(dp6
S'name'
p7
S'integral'
p8
sS'lib'
p9
(dp10
sS'unicodes'
p11
(tsS'width'
p12
F754
sS'contours'
p13
(tsS'components'
p14
(tsS'anchors'
p15
(tsss."
LayerCount: 2
Fore
SplineSet
181 -305 m 256
 91 -305 36 -283 36 -283 c 257
 36 -139 l 257
 36 -139 115 -154 169 -154 c 256
 293 -154 316 -83 316 50 c 258
 316 1189 l 258
 316 1406 373 1567 600 1567 c 256
 688 1567 740 1545 740 1545 c 257
 740 1399 l 257
 740 1399 687 1416 630 1416 c 256
 506 1416 485 1345 485 1212 c 258
 485 73 l 258
 485 -145 409 -305 181 -305 c 256
EndSplineSet
EndChar

StartChar: j
Encoding: 106 106 312
Width: 503
VWidth: 0
GlyphClass: 2
Flags: W
PickledData: "(dp1
S'org.robofab.postScriptHintData'
p2
(dp3
sS'com.typemytype.robofont.layerData'
p4
(dp5
S'b'
(dp6
S'name'
p7
S'j'
sS'lib'
p8
(dp9
sS'unicodes'
p10
(tsS'width'
p11
F536.89999999999998
sS'contours'
p12
((dp13
S'points'
p14
((dp15
S'segmentType'
p16
S'curve'
p17
sS'x'
F65
sS'smooth'
p18
I01
sS'y'
F-410
s(dp19
S'y'
F-410
sS'x'
F-24
sg18
I00
s(dp20
S'y'
F-390
sS'x'
F-117
sg18
I00
s(dp21
g16
S'curve'
p22
sS'x'
F-117
sg18
I00
sS'y'
F-390
s(dp23
g16
S'line'
p24
sS'x'
F-102
sg18
I00
sS'y'
F-267
s(dp25
S'y'
F-267
sS'x'
F-102
sg18
I00
s(dp26
S'y'
F-280
sS'x'
F-44
sg18
I00
s(dp27
g16
S'curve'
p28
sS'x'
F19
sg18
I01
sS'y'
F-280
s(dp29
S'y'
F-280
sS'x'
F153
sg18
I00
s(dp30
S'y'
F-208
sS'x'
F177
sg18
I00
s(dp31
g16
S'curve'
p32
sS'x'
F177
sg18
I01
sS'y'
F-2
s(dp33
g16
S'line'
p34
sS'x'
F177
sg18
I00
sS'y'
F1026
s(dp35
g16
S'line'
p36
sS'x'
F341
sg18
I00
sS'y'
F1026
s(dp37
g16
S'line'
p38
sS'x'
F341
sg18
I01
sS'y'
F-6
s(dp39
S'y'
F-274
sS'x'
F341
sg18
I00
s(dp40
S'y'
F-410
sS'x'
F246
sg18
I00
stp41
s(dp42
g14
((dp43
g16
S'line'
p44
sS'x'
F177
sg18
I00
sS'y'
F1307
s(dp45
g16
S'line'
p46
sS'x'
F177
sg18
I00
sS'y'
F1462
s(dp47
g16
S'line'
p48
sS'x'
F341
sg18
I00
sS'y'
F1462
s(dp49
g16
S'line'
p50
sS'x'
F341
sg18
I00
sS'y'
F1307
stp51
stp52
sS'components'
p53
(tsS'anchors'
p54
(tsss."
LayerCount: 2
Fore
SplineSet
163 1277 m 257
 163 1456 l 257
 346 1456 l 257
 346 1277 l 257
 163 1277 l 257
EndSplineSet
Refer: 235 567 N 1 0 0 1 0 0 2
EndChar

StartChar: k
Encoding: 107 107 315
Width: 1111
VWidth: 0
GlyphClass: 2
Flags: W
PickledData: "(dp1
S'org.robofab.postScriptHintData'
p2
(dp3
sS'com.typemytype.robofont.layerData'
p4
(dp5
S'b'
(dp6
S'name'
p7
S'k'
sS'lib'
p8
(dp9
sS'unicodes'
p10
(tsS'width'
p11
F1078.6500000000001
sS'contours'
p12
(tsS'components'
p13
(tsS'anchors'
p14
(tsss."
AnchorPoint: "top" 696 1026 basechar 0
LayerCount: 2
Fore
SplineSet
174 0 m 257
 174 1486 l 257
 358 1486 l 257
 358 587 l 257
 803 1026 l 257
 1055 1026 l 257
 535 537 l 257
 1091 0 l 257
 847 0 l 257
 358 485 l 257
 358 0 l 257
 174 0 l 257
EndSplineSet
EndChar

StartChar: kgreenlandic
Encoding: 312 312 318
Width: 1082
VWidth: 0
GlyphClass: 2
Flags: W
PickledData: "(dp1
S'org.robofab.postScriptHintData'
p2
(dp3
sS'com.typemytype.robofont.layerData'
p4
(dp5
s."
LayerCount: 2
Fore
SplineSet
170 0 m 257
 170 1026 l 257
 355 1026 l 257
 355 571 l 257
 794 1026 l 257
 1038 1026 l 257
 517 517 l 257
 1075 0 l 257
 838 0 l 257
 355 455 l 257
 355 0 l 257
 170 0 l 257
EndSplineSet
EndChar

StartChar: l
Encoding: 108 108 319
Width: 526
VWidth: 0
GlyphClass: 2
Flags: W
PickledData: "(dp1
S'org.robofab.postScriptHintData'
p2
(dp3
sS'com.typemytype.robofont.layerData'
p4
(dp5
S'b'
(dp6
S'name'
p7
S'l'
sS'lib'
p8
(dp9
sS'unicodes'
p10
(tsS'width'
p11
F521.79999999999995
sS'contours'
p12
(tsS'components'
p13
(tsS'anchors'
p14
(tsss."
AnchorPoint: "caron.alt" 253 1026 basechar 0
AnchorPoint: "top" 268 1456 basechar 0
LayerCount: 2
Fore
SplineSet
177 0 m 257
 177 1486 l 257
 361 1486 l 257
 361 0 l 257
 177 0 l 257
EndSplineSet
EndChar

StartChar: less
Encoding: 60 60 324
Width: 1255
VWidth: 0
GlyphClass: 2
Flags: W
PickledData: "(dp1
S'org.robofab.postScriptHintData'
p2
(dp3
sS'com.typemytype.robofont.layerData'
p4
(dp5
S'b'
(dp6
S'name'
p7
S'less'
p8
sS'lib'
p9
(dp10
sS'unicodes'
p11
(tsS'width'
p12
F1267.3499999999999
sS'contours'
p13
(tsS'components'
p14
(tsS'anchors'
p15
(tsss."
LayerCount: 2
Fore
SplineSet
1038 67 m 257
 105 534 l 257
 105 630 l 257
 1042 1072 l 257
 1042 900 l 257
 337 579 l 257
 1038 238 l 257
 1038 67 l 257
EndSplineSet
EndChar

StartChar: lessequal
Encoding: 8804 8804 325
Width: 1350
VWidth: 0
GlyphClass: 2
Flags: W
PickledData: "(dp1
S'org.robofab.postScriptHintData'
p2
(dp3
sS'com.typemytype.robofont.layerData'
p4
(dp5
S'b'
(dp6
S'name'
p7
S'lessequal'
p8
sS'lib'
p9
(dp10
sS'unicodes'
p11
(tsS'width'
p12
F1350.3499999999999
sS'contours'
p13
(tsS'components'
p14
(tsS'anchors'
p15
(tsss."
LayerCount: 2
Fore
SplineSet
168 0 m 257
 168 130 l 257
 1143 130 l 257
 1143 0 l 257
 168 0 l 257
1122 215 m 257
 189 680 l 257
 189 776 l 257
 1127 1220 l 257
 1127 1047 l 257
 421 726 l 257
 1122 384 l 257
 1122 215 l 257
EndSplineSet
EndChar

StartChar: logicalnot
Encoding: 172 172 327
Width: 1464
VWidth: 0
GlyphClass: 2
Flags: W
PickledData: "(dp1
S'org.robofab.postScriptHintData'
p2
(dp3
sS'com.typemytype.robofont.layerData'
p4
(dp5
S'b'
(dp6
S'name'
p7
S'logicalnot'
p8
sS'lib'
p9
(dp10
sS'unicodes'
p11
(tsS'width'
p12
F1463.2
sS'contours'
p13
(tsS'components'
p14
(tsS'anchors'
p15
(tsss."
LayerCount: 2
Fore
SplineSet
1079 234 m 257
 1079 646 l 257
 197 646 l 257
 197 802 l 257
 1249 802 l 257
 1249 234 l 257
 1079 234 l 257
EndSplineSet
EndChar

StartChar: lozenge
Encoding: 9674 9674 329
Width: 1248
VWidth: 0
GlyphClass: 2
Flags: W
PickledData: "(dp1
S'org.robofab.postScriptHintData'
p2
(dp3
sS'com.typemytype.robofont.layerData'
p4
(dp5
s."
LayerCount: 2
Fore
SplineSet
610 132 m 257
 954 710 l 257
 619 1282 l 257
 274 710 l 257
 610 132 l 257
550 -42 m 257
 102 710 l 257
 557 1463 l 257
 677 1463 l 257
 1128 711 l 257
 669 -42 l 257
 550 -42 l 257
EndSplineSet
EndChar

StartChar: lslash
Encoding: 322 322 330
Width: 503
VWidth: 0
GlyphClass: 2
Flags: W
PickledData: "(dp1
S'org.robofab.postScriptHintData'
p2
(dp3
s."
LayerCount: 2
Fore
SplineSet
156 0 m 257
 156 698 l 257
 1 598 l 257
 1 756 l 257
 156 856 l 257
 156 1483 l 257
 341 1483 l 257
 341 977 l 257
 495 1077 l 257
 495 919 l 257
 341 817 l 257
 341 0 l 257
 156 0 l 257
EndSplineSet
EndChar

StartChar: m
Encoding: 109 109 331
Width: 1881
VWidth: 0
GlyphClass: 2
Flags: W
PickledData: "(dp1
S'org.robofab.postScriptHintData'
p2
(dp3
sS'com.typemytype.robofont.guides'
p4
(tsS'com.typemytype.robofont.layerData'
p5
(dp6
S'b'
(dp7
S'name'
p8
S'm'
sS'lib'
p9
(dp10
sS'unicodes'
p11
(tsS'width'
p12
F1873.95
sS'contours'
p13
(tsS'components'
p14
(tsS'anchors'
p15
(tsss."
AnchorPoint: "top" 997 1026 basechar 0
LayerCount: 2
Fore
SplineSet
177 0 m 257
 177 758 l 258
 177 871 169 967 166 1026 c 257
 357 1026 l 257
 359 860 l 257
 415 982 548 1052 687 1052 c 256
 832 1052 949 973 999 830 c 257
 1073 967 1204 1052 1366 1052 c 256
 1603 1052 1722 892 1722 628 c 258
 1722 0 l 257
 1538 0 l 257
 1538 613 l 258
 1538 787 1483 902 1350 902 c 256
 1186 902 1052 767 1044 592 c 257
 1044 0 l 257
 860 0 l 257
 860 629 l 258
 860 780 807 902 659 902 c 256
 494 902 372 775 362 625 c 257
 362 0 l 257
 177 0 l 257
EndSplineSet
EndChar

StartChar: macron
Encoding: 175 175 332
Width: 720
VWidth: 0
GlyphClass: 4
Flags: W
PickledData: "(dp1
S'org.robofab.postScriptHintData'
p2
(dp3
sS'com.typemytype.robofont.layerData'
p4
(dp5
S'b'
(dp6
S'name'
p7
S'macron'
p8
sS'lib'
p9
(dp10
sS'unicodes'
p11
(tsS'width'
p12
F723
sS'contours'
p13
(tsS'components'
p14
(tsS'anchors'
p15
(tsss."
AnchorPoint: "top" 341 1026 mark 0
LayerCount: 2
Fore
SplineSet
68 1242 m 257
 68 1366 l 257
 652 1366 l 257
 652 1242 l 257
 68 1242 l 257
EndSplineSet
EndChar

StartChar: minus
Encoding: 8722 8722 335
Width: 1287
VWidth: 0
GlyphClass: 2
Flags: W
PickledData: "(dp1
S'org.robofab.postScriptHintData'
p2
(dp3
s."
LayerCount: 2
Fore
SplineSet
174 443 m 257
 174 595 l 257
 1113 595 l 257
 1113 443 l 257
 174 443 l 257
EndSplineSet
EndChar

StartChar: uni03BC
Encoding: 956 956 336
Width: 1197
VWidth: 0
GlyphClass: 2
Flags: W
PickledData: "(dp1
S'org.robofab.postScriptHintData'
p2
(dp3
s."
LayerCount: 2
Fore
SplineSet
866 259 m 257
 825 205 739 113 568 113 c 256
 398 113 336 221 336 408 c 258
 336 1082 l 257
 154 1082 l 257
 154 -288 l 257
 336 -288 l 257
 336 23.0174 l 257
 392.285 -5.67166 461.393 -20 543 -20 c 256
 702 -20 808 44 880 135 c 257
 890 0 l 257
 1047 0 l 257
 1047 1082 l 257
 866 1082 l 257
 866 259 l 257
EndSplineSet
EndChar

StartChar: multiply
Encoding: 215 215 337
Width: 1231
VWidth: 0
GlyphClass: 2
Flags: W
PickledData: "(dp1
S'org.robofab.postScriptHintData'
p2
(dp3
sS'com.typemytype.robofont.layerData'
p4
(dp5
s."
LayerCount: 2
Fore
SplineSet
335 145 m 257
 218 262 l 257
 507 553 l 257
 218 842 l 257
 335 960 l 257
 625 670 l 257
 914 960 l 257
 1032 842 l 257
 742 553 l 257
 1032 263 l 257
 914 145 l 257
 625 433 l 257
 335 145 l 257
EndSplineSet
EndChar

StartChar: n
Encoding: 110 110 338
Width: 1244
VWidth: 0
GlyphClass: 2
Flags: W
PickledData: "(dp1
S'org.robofab.postScriptHintData'
p2
(dp3
sS'com.typemytype.robofont.layerData'
p4
(dp5
S'b'
(dp6
S'name'
p7
S'n'
sS'lib'
p8
(dp9
sS'unicodes'
p10
(tsS'width'
p11
F1240.05
sS'contours'
p12
(tsS'components'
p13
(tsS'anchors'
p14
(tsss."
AnchorPoint: "top" 685 1026 basechar 0
LayerCount: 2
Fore
SplineSet
177 0 m 257
 177 742 l 258
 177 896 166 1026 166 1026 c 257
 356 1026 l 257
 358 865 l 257
 430 986 571 1052 708 1052 c 256
 968 1052 1086 894 1086 578 c 258
 1086 0 l 257
 902 0 l 257
 902 577 l 258
 902 789 851 902 676 902 c 256
 520 902 373 778 362 643 c 257
 362 0 l 257
 177 0 l 257
EndSplineSet
EndChar

StartChar: nine
Encoding: 57 57 343
Width: 1232
VWidth: 0
GlyphClass: 2
Flags: W
PickledData: "(dp1
S'org.robofab.postScriptHintData'
p2
(dp3
sS'com.typemytype.robofont.layerData'
p4
(dp5
S'b'
(dp6
S'name'
p7
S'nine'
p8
sS'lib'
p9
(dp10
sS'unicodes'
p11
(tsS'width'
p12
F1235.4000000000001
sS'contours'
p13
((dp14
S'points'
p15
((dp16
S'segmentType'
p17
S'curve'
p18
sS'x'
F314
sS'smooth'
p19
I01
sS'y'
F1010
s(dp20
S'y'
F827
sS'x'
F314
sg19
I00
s(dp21
S'y'
F687
sS'x'
F393
sg19
I00
s(dp22
g17
S'curve'
p23
sS'x'
F604
sg19
I01
sS'y'
F687
s(dp24
S'y'
F687
sS'x'
F784
sg19
I00
s(dp25
S'y'
F803
sS'x'
F908
sg19
I00
s(dp26
g17
S'curve'
p27
sS'x'
F908
sg19
I01
sS'y'
F991
s(dp28
S'y'
F1166
sS'x'
F908
sg19
I00
s(dp29
S'y'
F1334
sS'x'
F815
sg19
I00
s(dp30
g17
S'curve'
p31
sS'x'
F605
sg19
I01
sS'y'
F1334
s(dp32
S'y'
F1334
sS'x'
F419
sg19
I00
s(dp33
S'y'
F1196
sS'x'
F314
sg19
I00
stp34
s(dp35
g15
((dp36
g17
S'curve'
p37
sS'x'
F555
sg19
I01
sS'y'
F-24
s(dp38
S'y'
F-24
sS'x'
F434
sg19
I00
s(dp39
S'y'
F13
sS'x'
F304
sg19
I00
s(dp40
g17
S'curve'
p41
sS'x'
F175
sg19
I00
sS'y'
F79
s(dp42
g17
S'line'
p43
sS'x'
F232
sg19
I00
sS'y'
F211
s(dp44
S'y'
F152
sS'x'
F346
sg19
I00
s(dp45
S'y'
F124
sS'x'
F450
sg19
I00
s(dp46
g17
S'curve'
p47
sS'x'
F542
sg19
I01
sS'y'
F124
s(dp48
S'y'
F124
sS'x'
F773
sg19
I00
s(dp49
S'y'
F308
sS'x'
F920
sg19
I00
s(dp50
g17
S'curve'
p51
sS'x'
F920
sg19
I01
sS'y'
F657
s(dp52
g17
S'line'
p53
sS'x'
F920
sg19
I00
sS'y'
F722
s(dp54
S'y'
F600
sS'x'
F856
sg19
I00
s(dp55
S'y'
F544
sS'x'
F742
sg19
I00
s(dp56
g17
S'curve'
p57
sS'x'
F577
sg19
I01
sS'y'
F544
s(dp58
S'y'
F544
sS'x'
F298
sg19
I00
s(dp59
S'y'
F735
sS'x'
F138
sg19
I00
s(dp60
g17
S'curve'
p61
sS'x'
F138
sg19
I01
sS'y'
F1004
s(dp62
S'y'
F1275
sS'x'
F138
sg19
I00
s(dp63
S'y'
F1483
sS'x'
F311
sg19
I00
s(dp64
g17
S'curve'
p65
sS'x'
F613
sg19
I01
sS'y'
F1483
s(dp66
S'y'
F1483
sS'x'
F939
sg19
I00
s(dp67
S'y'
F1231
sS'x'
F1095
sg19
I00
s(dp68
g17
S'curve'
p69
sS'x'
F1095
sg19
I01
sS'y'
F774
s(dp70
S'y'
F203
sS'x'
F1095
sg19
I00
s(dp71
S'y'
F-24
sS'x'
F855
sg19
I00
stp72
stp73
sS'components'
p74
(tsS'anchors'
p75
(tsss."
LayerCount: 2
Fore
SplineSet
597 692 m 256
 779 692 900 813 900 984 c 256
 900 1156 810 1321 609 1321 c 256
 429 1321 325 1186 325 1004 c 256
 325 829 405 692 597 692 c 256
559 -22 m 256
 441 -22 325 9 207 71 c 257
 273 223 l 257
 360 169 452 139 546 139 c 256
 781 139 908 346 909 651 c 256
 910 656 910 698 910 701 c 257
 849 595 729 534 577 534 c 256
 306 534 131 723 131 1000 c 256
 131 1273 312 1482 608 1482 c 256
 936 1482 1100 1227 1100 772 c 256
 1100 270 897 -22 559 -22 c 256
EndSplineSet
EndChar

StartChar: notequal
Encoding: 8800 8800 345
Width: 1360
VWidth: 0
GlyphClass: 2
Flags: W
PickledData: "(dp1
S'org.robofab.postScriptHintData'
p2
(dp3
sS'com.typemytype.robofont.layerData'
p4
(dp5
S'b'
(dp6
S'name'
p7
S'notequal'
p8
sS'lib'
p9
(dp10
sS'unicodes'
p11
(tsS'width'
p12
F1362.5
sS'contours'
p13
(tsS'components'
p14
(tsS'anchors'
p15
(tsss."
LayerCount: 2
Fore
SplineSet
481 43 m 257
 342 64 l 257
 466 319 l 257
 172 319 l 257
 172 456 l 257
 535 456 l 257
 670 714 l 257
 172 714 l 257
 172 852 l 257
 735 852 l 257
 869 1123 l 257
 1012 1102 l 257
 888 852 l 257
 1205 852 l 257
 1205 714 l 257
 823 714 l 257
 686 456 l 257
 1205 456 l 257
 1205 319 l 257
 619 319 l 257
 481 43 l 257
EndSplineSet
EndChar

StartChar: numbersign
Encoding: 35 35 347
Width: 1300
VWidth: 0
GlyphClass: 2
Flags: W
PickledData: "(dp1
S'org.robofab.postScriptHintData'
p2
(dp3
sS'com.typemytype.robofont.layerData'
p4
(dp5
s."
LayerCount: 2
Fore
SplineSet
497 608 m 257
 752 608 l 257
 806 890 l 257
 554 890 l 257
 497 608 l 257
241 42 m 257
 327 483 l 257
 78 483 l 257
 88 608 l 257
 351 608 l 257
 404 890 l 257
 142 890 l 257
 153 1015 l 257
 428 1015 l 257
 508 1431 l 257
 658 1431 l 257
 578 1015 l 257
 831 1015 l 257
 910 1431 l 257
 1058 1431 l 257
 977 1015 l 257
 1214 1015 l 257
 1204 890 l 257
 954 890 l 257
 900 608 l 257
 1152 608 l 257
 1141 483 l 257
 876 483 l 257
 790 42 l 257
 643 42 l 257
 727 483 l 257
 475 483 l 257
 388 42 l 257
 241 42 l 257
EndSplineSet
EndChar

StartChar: o
Encoding: 111 111 348
Width: 1258
VWidth: 0
GlyphClass: 2
Flags: W
PickledData: "(dp1
S'org.robofab.postScriptHintData'
p2
(dp3
sS'com.typemytype.robofont.layerData'
p4
(dp5
S'b'
(dp6
S'name'
p7
S'o'
sS'lib'
p8
(dp9
sS'unicodes'
p10
(tsS'width'
p11
F1259.2
sS'contours'
p12
(tsS'components'
p13
(tsS'anchors'
p14
(tsss."
AnchorPoint: "top" 633 1026 basechar 0
LayerCount: 2
Fore
SplineSet
631 -22 m 256
 292 -22 101 202 101 512 c 256
 101 828 295 1052 633 1052 c 256
 971 1052 1157 828 1157 512 c 256
 1157 203 967 -22 631 -22 c 256
631 128 m 256
 854 128 964 288 964 512 c 256
 964 741 850 902 630 902 c 256
 408 902 294 741 294 512 c 256
 294 288 406 128 631 128 c 256
EndSplineSet
EndChar

StartChar: oe
Encoding: 339 339 355
Width: 1978
VWidth: 0
GlyphClass: 2
Flags: W
PickledData: "(dp1
S'org.robofab.postScriptHintData'
p2
(dp3
sS'com.typemytype.robofont.layerData'
p4
(dp5
S'b'
(dp6
S'name'
p7
S'oe'
p8
sS'lib'
p9
(dp10
sS'unicodes'
p11
(tsS'width'
p12
F1979.8
sS'contours'
p13
(tsS'components'
p14
((dp15
S'transformation'
p16
(I1
I0
I0
I1
I-6
I0
tp17
sS'baseGlyph'
p18
S'o'
s(dp19
g16
(I1
I0
I0
I1
I811
I0
tp20
sg18
S'e'
stp21
sS'anchors'
p22
(tsss."
LayerCount: 2
Fore
SplineSet
1115 615 m 257
 1692 615 l 257
 1692 639 l 257
 1674 791 1569 902 1413 902 c 256
 1246 902 1129 771 1115 615 c 257
624 128 m 256
 831 128 931 300 931 511 c 256
 931 736 832 902 620 902 c 256
 408 902 289 733 289 506 c 256
 289 294 399 128 624 128 c 256
620 -22 m 256
 288 -22 95 203 95 509 c 256
 95 817 283 1052 621 1052 c 256
 815 1052 949 961 1023 823 c 257
 1093 967 1221 1054 1412 1054 c 256
 1700 1054 1864 840 1864 524 c 258
 1864 471 l 257
 1113 471 l 257
 1114 469 1114 443 1115 440 c 256
 1126 253 1254 128 1455 128 c 256
 1636 128 1757 221 1777 235 c 257
 1833 101 l 257
 1812 85 1677 -22 1436 -22 c 256
 1261 -22 1090 67 1021 208 c 257
 956 66 797 -22 620 -22 c 256
EndSplineSet
EndChar

StartChar: ogonek
Encoding: 731 731 356
Width: 508
VWidth: 0
GlyphClass: 2
Flags: W
PickledData: "(dp1
S'org.robofab.postScriptHintData'
p2
(dp3
s."
LayerCount: 2
Fore
SplineSet
280 -424 m 256
 154 -424 47 -366 47 -250 c 256
 47 -135 166 -37 264 15 c 257
 369 10 l 257
 277 -51 207 -153 207 -221 c 256
 207 -274 244 -307 321 -307 c 256
 364 -307 418 -294 454 -284 c 257
 454 -396 l 257
 397 -414 337 -424 280 -424 c 256
EndSplineSet
EndChar

StartChar: one
Encoding: 49 49 361
Width: 1231
VWidth: 0
GlyphClass: 2
Flags: W
PickledData: "(dp1
S'org.robofab.postScriptHintData'
p2
(dp3
sS'com.typemytype.robofont.layerData'
p4
(dp5
S'b'
(dp6
S'name'
p7
S'one'
p8
sS'lib'
p9
(dp10
sS'unicodes'
p11
(tsS'width'
p12
F1234.0999999999999
sS'contours'
p13
(tsS'components'
p14
(tsS'anchors'
p15
(tsss."
LayerCount: 2
Fore
SplineSet
282 0 m 257
 282 150 l 257
 563 150 l 257
 563 1250 l 257
 479 1204 371 1161 266 1122 c 257
 266 1295 l 257
 369 1331 516 1403 605 1456 c 257
 755 1456 l 257
 755 150 l 257
 1019 150 l 257
 1019 0 l 257
 282 0 l 257
EndSplineSet
EndChar

StartChar: onehalf
Encoding: 189 189 362
Width: 2126
VWidth: 0
GlyphClass: 2
Flags: W
PickledData: "(dp1
S'org.robofab.postScriptHintData'
p2
(dp3
sS'com.typemytype.robofont.layerData'
p4
(dp5
s."
LayerCount: 2
Fore
SplineSet
210 631 m 257
 210 744 l 257
 376 744 l 257
 376 1317 l 257
 196 1253 l 257
 197 1371 l 257
 221 1378 385 1446 401 1456 c 257
 518 1456 l 257
 518 742 l 257
 669 742 l 257
 669 631 l 257
 210 631 l 257
461 0 m 257
 1363 1456 l 257
 1521 1456 l 257
 623 0 l 257
 461 0 l 257
1572 840 m 256
 1732.46 840 1846.23 750.536 1846.23 592.053 c 256
 1846.23 457.487 1769.9 385.416 1640 272 c 257
 1474 124 l 257
 1841 124 l 257
 1841 0 l 257
 1283 0 l 257
 1283 126 l 257
 1555 377 l 258
 1660.04 473.596 1696.47 520.94 1696.47 589.141 c 256
 1696.47 664.224 1653.52 714 1564 714 c 256
 1486 714 1407 671 1358 597 c 257
 1284 692 l 257
 1344 786 1452 840 1572 840 c 256
EndSplineSet
EndChar

StartChar: onequarter
Encoding: 188 188 363
Width: 1970
VWidth: 0
GlyphClass: 2
Flags: W
PickledData: "(dp1
S'org.robofab.postScriptHintData'
p2
(dp3
sS'com.typemytype.robofont.layerData'
p4
(dp5
s."
LayerCount: 2
Fore
SplineSet
1278 300 m 257
 1522 300 l 257
 1522 643 l 257
 1278 300 l 257
492 0 m 257
 1394 1456 l 257
 1553 1456 l 257
 654 0 l 257
 492 0 l 257
1524 0 m 257
 1524 190 l 257
 1146 190 l 257
 1146 285 l 257
 1515 800 l 257
 1661 800 l 257
 1661 300 l 257
 1771 300 l 257
 1771 190 l 257
 1659 190 l 257
 1659 0 l 257
 1524 0 l 257
212 631 m 257
 212 744 l 257
 378 744 l 257
 378 1317 l 257
 197 1253 l 257
 198 1371 l 257
 222 1378 386 1446 402 1456 c 257
 520 1456 l 257
 520 742 l 257
 670 742 l 257
 670 631 l 257
 212 631 l 257
EndSplineSet
EndChar

StartChar: uni00B9
Encoding: 185 185 364
Width: 1055
VWidth: 0
GlyphClass: 2
Flags: W
PickledData: "(dp1
S'org.robofab.postScriptHintData'
p2
(dp3
sS'com.typemytype.robofont.layerData'
p4
(dp5
s."
LayerCount: 2
Fore
SplineSet
328 618 m 257
 328 736 l 257
 478 736 l 257
 478 1291 l 257
 455 1279 336 1235 309 1225 c 257
 309 1352 l 257
 346 1364 474 1418 498 1433 c 257
 608 1441 l 257
 608 733 l 257
 748 733 l 257
 748 618 l 257
 328 618 l 257
EndSplineSet
EndChar

StartChar: ordfeminine
Encoding: 170 170 366
Width: 791
VWidth: 0
GlyphClass: 2
Flags: W
PickledData: "(dp1
S'org.robofab.postScriptHintData'
p2
(dp3
sS'com.typemytype.robofont.layerData'
p4
(dp5
S'b'
(dp6
S'name'
p7
S'ordfeminine'
p8
sS'lib'
p9
(dp10
sS'unicodes'
p11
(tsS'width'
p12
F797.10000000000002
sS'contours'
p13
(tsS'components'
p14
(tsS'anchors'
p15
(tsss."
LayerCount: 2
Fore
SplineSet
348 867 m 256
 466 867 546 949 546 1067 c 258
 546 1089 l 257
 326 1089 229 1089 229 974 c 256
 229 904 278 867 348 867 c 256
333 760 m 256
 195 760 91 839 91 969 c 256
 91 1099 183 1178 372 1178 c 258
 546 1178 l 257
 546 1214 l 258
 546 1324 504 1367 404 1367 c 256
 285 1367 170 1313 170 1313 c 257
 128 1414 l 257
 128 1414 248 1481 414 1481 c 256
 565 1481 692 1414 694 1229 c 256
 694 1220 693 917 693 917 c 258
 693 877 695 849 700 783 c 257
 559 783 l 257
 551 878 l 257
 518 814 439 760 333 760 c 256
EndSplineSet
EndChar

StartChar: ordmasculine
Encoding: 186 186 367
Width: 885
VWidth: 0
GlyphClass: 2
Flags: W
PickledData: "(dp1
S'org.robofab.postScriptHintData'
p2
(dp3
sS'com.typemytype.robofont.layerData'
p4
(dp5
S'b'
(dp6
S'name'
p7
S'ordmasculine'
p8
sS'lib'
p9
(dp10
sS'unicodes'
p11
(tsS'width'
p12
F887.85000000000002
sS'contours'
p13
(tsS'components'
p14
(tsS'anchors'
p15
(tsss."
LayerCount: 2
Fore
SplineSet
447 752 m 256
 204 752 78 909 78 1111 c 256
 78 1310 211 1466 445 1466 c 256
 682 1466 810 1308 810 1107 c 256
 810 912 681 752 447 752 c 256
447 879 m 256
 576 879 658 968 658 1105 c 256
 658 1248 576 1336 445 1336 c 256
 317 1336 234 1248 234 1109 c 256
 234 965 310 879 447 879 c 256
EndSplineSet
EndChar

StartChar: oslash
Encoding: 248 248 368
Width: 1254
VWidth: 0
GlyphClass: 2
Flags: W
PickledData: "(dp1
S'org.robofab.postScriptHintData'
p2
(dp3
sS'com.typemytype.robofont.layerData'
p4
(dp5
S'b'
(dp6
S'name'
p7
S'oslash'
p8
sS'lib'
p9
(dp10
sS'unicodes'
p11
(tsS'width'
p12
F1255
sS'contours'
p13
(tsS'components'
p14
(tsS'anchors'
p15
(tsss."
LayerCount: 2
Fore
SplineSet
631 -22 m 256
 967 -22 1157 203 1157 512 c 256
 1157 732.9 1066.11 908.842 895.937 994.734 c 257
 984 1189 l 257
 896 1227 l 257
 806.538 1029.34 l 257
 754.162 1044.16 696.242 1052 633 1052 c 256
 295 1052 101 828 101 512 c 256
 101 298.655 191.464 126.043 358.375 39.1447 c 257
 261 -176 l 257
 348 -214 l 257
 446.599 3.50631 l 257
 501.983 -13.1358 563.563 -22 631 -22 c 256
827.122 842.931 m 257
 917.683 776.304 964 657.966 964 512 c 256
 964 288 854 128 631 128 c 256
 586.665 128 546.717 134.212 511.149 145.902 c 257
 827.122 842.931 l 257
741.624 885.915 m 257
 426.505 189.674 l 257
 338.086 256.119 294 371.464 294 512 c 256
 294 741 408 902 630 902 c 256
 670.886 902 708.112 896.439 741.624 885.915 c 257
EndSplineSet
EndChar

StartChar: p
Encoding: 112 112 371
Width: 1263
VWidth: 0
GlyphClass: 2
Flags: W
PickledData: "(dp1
S'org.robofab.postScriptHintData'
p2
(dp3
sS'com.typemytype.robofont.layerData'
p4
(dp5
S'b'
(dp6
S'name'
p7
S'p'
sS'lib'
p8
(dp9
sS'unicodes'
p10
(tsS'width'
p11
F1260.25
sS'contours'
p12
(tsS'components'
p13
(tsS'anchors'
p14
(tsss."
AnchorPoint: "top" 676 1026 basechar 0
LayerCount: 2
Fore
SplineSet
669 127 m 256
 867 127 971 289 971 516 c 256
 971 742 866 901 670 901 c 256
 468 901 355 736 355 503 c 256
 355 282 465 127 669 127 c 256
177 -428 m 257
 177 728 l 258
 177 814 170 942 166 1026 c 257
 359 1026 l 257
 360 842 l 257
 397 951 537 1051 704 1051 c 256
 986 1051 1162 828 1162 522 c 256
 1162 212 984 -23 700 -23 c 256
 530 -23 395 72 360 166 c 257
 360 -428 l 257
 177 -428 l 257
EndSplineSet
EndChar

StartChar: paragraph
Encoding: 182 182 372
Width: 1210
VWidth: 0
GlyphClass: 2
Flags: W
PickledData: "(dp1
S'org.robofab.postScriptHintData'
p2
(dp3
sS'com.typemytype.robofont.layerData'
p4
(dp5
S'b'
(dp6
S'name'
p7
S'paragraph'
p8
sS'lib'
p9
(dp10
sS'unicodes'
p11
(tsS'width'
p12
F1211.95
sS'contours'
p13
(tsS'components'
p14
(tsS'anchors'
p15
(tsss."
LayerCount: 2
Fore
SplineSet
483 -179 m 257
 483 813 l 257
 293 818 130 929 130 1133 c 256
 130 1387 321 1456 599 1456 c 258
 1049 1456 l 257
 1049 1315 l 257
 945 1315 l 257
 945 -179 l 257
 810 -179 l 257
 810 1315 l 257
 619 1315 l 257
 619 -179 l 257
 483 -179 l 257
EndSplineSet
EndChar

StartChar: parenleft
Encoding: 40 40 373
Width: 635
VWidth: 0
GlyphClass: 2
Flags: W
PickledData: "(dp1
S'org.robofab.postScriptHintData'
p2
(dp3
sS'com.typemytype.robofont.layerData'
p4
(dp5
S'b'
(dp6
S'name'
p7
S'parenleft'
p8
sS'lib'
p9
(dp10
sS'unicodes'
p11
(tsS'width'
p12
F639.35000000000002
sS'contours'
p13
(tsS'components'
p14
(tsS'anchors'
p15
(tsss."
LayerCount: 2
Fore
SplineSet
412 -173 m 257
 256 66 138 362 138 663 c 256
 138 978 241 1252 408 1516 c 257
 586 1516 l 257
 418 1249 322 960 322 665 c 256
 322 390 427 79 587 -173 c 257
 412 -173 l 257
EndSplineSet
EndChar

StartChar: parenright
Encoding: 41 41 374
Width: 635
VWidth: 0
GlyphClass: 2
Flags: W
PickledData: "(dp1
S'org.robofab.postScriptHintData'
p2
(dp3
sS'com.typemytype.robofont.layerData'
p4
(dp5
S'b'
(dp6
S'name'
p7
S'parenright'
p8
sS'lib'
p9
(dp10
sS'unicodes'
p11
(tsS'width'
p12
F639.35000000000002
sS'contours'
p13
(tsS'components'
p14
(tsS'anchors'
p15
(tsss."
LayerCount: 2
Fore
SplineSet
49 -193 m 257
 218 74 314 363 314 659 c 256
 314 933 208 1243 49 1496 c 257
 224 1496 l 257
 380 1258 498 961 498 660 c 256
 498 345 395 70 228 -193 c 257
 49 -193 l 257
EndSplineSet
EndChar

StartChar: partialdiff
Encoding: 8706 8706 375
Width: 1164
VWidth: 0
GlyphClass: 2
Flags: W
PickledData: "(dp1
S'org.robofab.postScriptHintData'
p2
(dp3
sS'com.typemytype.robofont.layerData'
p4
(dp5
S'b'
(dp6
S'name'
p7
S'partialdiff'
p8
sS'lib'
p9
(dp10
sS'unicodes'
p11
(tsS'width'
p12
F1163.95
sS'contours'
p13
(tsS'components'
p14
(tsS'anchors'
p15
(tsss."
LayerCount: 2
Fore
SplineSet
490 128 m 256
 702 128 822 336 861 652 c 257
 823 757 729 853 602 853 c 256
 411 853 263 652 263 418 c 256
 263 243 350 128 490 128 c 256
878.444 899.481 m 256
 878.444 1189.19 764.431 1373 560 1373 c 256
 452 1373 348 1332 279 1287 c 257
 267 1429 l 257
 349 1485 463 1524 581 1524 c 256
 884 1524 1071 1313 1071 845 c 256
 1071 415 878 -24 488 -24 c 256
 215 -24 74 171 74 422 c 256
 74 748 301 1002 582 1002 c 256
 747 1002 845 904 878 834 c 257
 878 840.667 878.444 874.444 878.444 899.481 c 256
EndSplineSet
EndChar

StartChar: percent
Encoding: 37 37 377
Width: 1869
VWidth: 0
GlyphClass: 2
Flags: W
PickledData: "(dp1
S'org.robofab.postScriptHintData'
p2
(dp3
sS'com.typemytype.robofont.layerData'
p4
(dp5
S'b'
(dp6
S'name'
p7
S'percent'
p8
sS'lib'
p9
(dp10
sS'unicodes'
p11
(tsS'width'
p12
F1769.3
sS'contours'
p13
(tsS'components'
p14
(tsS'anchors'
p15
(tsss."
LayerCount: 2
Fore
SplineSet
1414 -19 m 256
 1193 -19 1068 142 1068 371 c 256
 1068 598 1195 765 1417 765 c 256
 1638 765 1760 600 1760 372 c 256
 1760 143 1634 -19 1414 -19 c 256
1416 104 m 256
 1545 104 1601 204 1601 372 c 256
 1601 541 1549 643 1417 643 c 256
 1281 643 1228 537 1228 371 c 256
 1228 200 1285 104 1416 104 c 256
440 0 m 257
 1285 1456 l 257
 1441 1456 l 257
 594 0 l 257
 440 0 l 257
455 692 m 256
 233 692 109 842 109 1081 c 256
 109 1317 235 1475 457 1475 c 256
 679 1475 801 1320 801 1082 c 256
 801 845 675 692 455 692 c 256
456 814 m 256
 585 814 641 914 641 1083 c 256
 641 1251 588 1353 457 1353 c 256
 322 1353 269 1248 269 1082 c 256
 269 911 325 814 456 814 c 256
EndSplineSet
EndChar

StartChar: period
Encoding: 46 46 378
Width: 543
VWidth: 0
GlyphClass: 2
Flags: W
PickledData: "(dp1
S'org.robofab.postScriptHintData'
p2
(dp3
sS'com.typemytype.robofont.layerData'
p4
(dp5
s."
LayerCount: 2
Fore
SplineSet
151 0 m 257
 151 225 l 257
 386 225 l 257
 386 0 l 257
 151 0 l 257
EndSplineSet
EndChar

StartChar: periodcentered
Encoding: 183 183 379
Width: 509
VWidth: 0
GlyphClass: 2
Flags: W
PickledData: "(dp1
S'org.robofab.postScriptHintData'
p2
(dp3
sS'com.typemytype.robofont.layerData'
p4
(dp5
S'b'
(dp6
S'name'
p7
S'middot'
p8
sS'lib'
p9
(dp10
sS'unicodes'
p11
(tsS'width'
p12
I509
sS'contours'
p13
(tsS'components'
p14
(tsS'anchors'
p15
(tsss."
LayerCount: 2
Fore
SplineSet
282 517 m 257
 282 717 l 257
 481 717 l 257
 481 517 l 257
 282 517 l 257
EndSplineSet
EndChar

StartChar: perthousand
Encoding: 8240 8240 380
Width: 2701
VWidth: 0
GlyphClass: 2
Flags: W
PickledData: "(dp1
S'org.robofab.postScriptHintData'
p2
(dp3
sS'com.typemytype.robofont.layerData'
p4
(dp5
S'b'
(dp6
S'name'
p7
S'perthousand'
p8
sS'lib'
p9
(dp10
sS'unicodes'
p11
(tsS'width'
p12
F2581.1999999999998
sS'contours'
p13
(tsS'components'
p14
(tsS'anchors'
p15
(tsss."
LayerCount: 2
Fore
SplineSet
2247 -19 m 256
 2025 -19 1901 142 1901 371 c 256
 1901 598 2027 765 2249 765 c 256
 2471 765 2593 600 2593 372 c 256
 2593 143 2467 -19 2247 -19 c 256
2248 104 m 256
 2377 104 2433 204 2433 372 c 256
 2433 541 2381 643 2249 643 c 256
 2114 643 2061 537 2061 371 c 256
 2061 200 2117 104 2248 104 c 256
EndSplineSet
Refer: 377 37 N 1 0 0 1 0 0 2
EndChar

StartChar: pi
Encoding: 960 960 381
Width: 1445
VWidth: 0
GlyphClass: 2
Flags: W
PickledData: "(dp1
S'org.robofab.postScriptHintData'
p2
(dp3
sS'com.typemytype.robofont.layerData'
p4
(dp5
S'b'
(dp6
S'name'
p7
S'pi'
p8
sS'lib'
p9
(dp10
sS'unicodes'
p11
(tsS'width'
p12
F1288
sS'contours'
p13
(tsS'components'
p14
(tsS'anchors'
p15
(tsss."
LayerCount: 2
Fore
SplineSet
1143 -13 m 256
 1222 -13 1289 11 1324 45 c 257
 1324 176 l 257
 1295 166 1239 142 1197 142 c 256
 1118 142 1073 233 1073 434 c 256
 1073 549 1084 718 1109 906 c 257
 1350 906 l 257
 1350 1082 l 257
 441 1082 l 258
 198 1082 123 992 123 771 c 257
 221 771 l 257
 233 849 274 906 355 906 c 258
 480 906 l 257
 415 398 l 258
 387 176 258 115 135 115 c 257
 135 4 l 257
 489 4 562 108 572 332 c 258
 598 906 l 257
 977 906 l 257
 945 675 903 443 903 281 c 256
 903 97 964 -13 1143 -13 c 256
EndSplineSet
EndChar

StartChar: plus
Encoding: 43 43 382
Width: 1202
VWidth: 0
GlyphClass: 2
Flags: W
PickledData: "(dp1
S'org.robofab.postScriptHintData'
p2
(dp3
sS'com.typemytype.robofont.layerData'
p4
(dp5
S'b'
(dp6
S'name'
p7
S'plus'
p8
sS'lib'
p9
(dp10
sS'unicodes'
p11
(tsS'width'
p12
F1206.9000000000001
sS'contours'
p13
(tsS'components'
p14
(tsS'anchors'
p15
(tsss."
LayerCount: 2
Fore
SplineSet
514 103 m 257
 514 518 l 257
 131 518 l 257
 131 674 l 257
 515 674 l 257
 515 1075 l 257
 686 1075 l 257
 686 674 l 257
 1072 674 l 257
 1072 518 l 257
 686 518 l 257
 686 103 l 257
 514 103 l 257
EndSplineSet
EndChar

StartChar: plusminus
Encoding: 177 177 383
Width: 1232
VWidth: 0
GlyphClass: 2
Flags: W
PickledData: "(dp1
S'org.robofab.postScriptHintData'
p2
(dp3
sS'com.typemytype.robofont.layerData'
p4
(dp5
S'b'
(dp6
S'name'
p7
S'plusminus'
p8
sS'lib'
p9
(dp10
sS'unicodes'
p11
(tsS'width'
p12
F1234.75
sS'contours'
p13
(tsS'components'
p14
(tsS'anchors'
p15
(tsss."
LayerCount: 2
Fore
SplineSet
184 0 m 257
 184 132 l 257
 1057 132 l 257
 1057 0 l 257
 184 0 l 257
532 255 m 257
 532 594 l 257
 194 594 l 257
 194 749 l 257
 530 749 l 257
 530 1089 l 257
 700 1089 l 257
 700 749 l 257
 1034 749 l 257
 1034 594 l 257
 705 594 l 257
 705 255 l 257
 532 255 l 257
EndSplineSet
EndChar

StartChar: product
Encoding: 8719 8719 384
Width: 1559
VWidth: 0
GlyphClass: 2
Flags: W
PickledData: "(dp1
S'org.robofab.postScriptHintData'
p2
(dp3
sS'com.typemytype.robofont.guides'
p4
(tsS'com.typemytype.robofont.layerData'
p5
(dp6
S'b'
(dp7
S'name'
p8
S'product'
p9
sS'lib'
p10
(dp11
sS'unicodes'
p12
(tsS'width'
p13
F1568
sS'contours'
p14
(tsS'components'
p15
(tsS'anchors'
p16
(tsss."
LayerCount: 2
Fore
SplineSet
276 -89 m 257
 276 1300 l 257
 111 1300 l 257
 111 1456 l 257
 1427 1456 l 257
 1427 1300 l 257
 1279 1300 l 257
 1279 -89 l 257
 1084 -89 l 257
 1084 1300 l 257
 467 1300 l 257
 467 -89 l 257
 276 -89 l 257
EndSplineSet
EndChar

StartChar: q
Encoding: 113 113 385
Width: 1259
VWidth: 0
GlyphClass: 2
Flags: W
PickledData: "(dp1
S'org.robofab.postScriptHintData'
p2
(dp3
sS'com.typemytype.robofont.layerData'
p4
(dp5
S'b'
(dp6
S'name'
p7
S'q'
sS'lib'
p8
(dp9
sS'unicodes'
p10
(tsS'width'
p11
F1254.3
sS'contours'
p12
(tsS'components'
p13
(tsS'anchors'
p14
(tsss."
LayerCount: 2
Fore
SplineSet
596 129 m 256
 795 129 902 288 902 531 c 256
 902 750 792 901 603 901 c 256
 408 901 295 744 295 510 c 256
 295 283 403 129 596 129 c 256
899 -419 m 257
 899 150 l 257
 845 68 735 -22 574 -22 c 256
 284 -22 100 198 100 512 c 256
 100 832 285 1052 582 1052 c 256
 720 1052 835 986 899 884 c 257
 899 1026 l 257
 1090 1026 l 257
 1089 999 1083 818 1083 792 c 258
 1083 -419 l 257
 899 -419 l 257
EndSplineSet
EndChar

StartChar: question
Encoding: 63 63 386
Width: 1058
VWidth: 0
GlyphClass: 2
Flags: W
PickledData: "(dp1
S'org.robofab.postScriptHintData'
p2
(dp3
sS'com.typemytype.robofont.layerData'
p4
(dp5
S'b'
(dp6
S'name'
p7
S'question'
p8
sS'lib'
p9
(dp10
sS'unicodes'
p11
(tsS'width'
p12
F1055.9000000000001
sS'contours'
p13
(tsS'components'
p14
(tsS'anchors'
p15
(tsss."
LayerCount: 2
Fore
SplineSet
343 -4 m 257
 343 217 l 257
 530 217 l 257
 530 -4 l 257
 343 -4 l 257
361 379 m 257
 361 521 l 258
 361 770 737 894 737 1123 c 256
 737 1264 625 1319 487 1319 c 256
 365 1319 246 1271 198 1245 c 257
 198 1411 l 257
 273 1448 397 1479 508 1479 c 256
 749 1479 928 1365 928 1130 c 256
 928 831 510 718 510 478 c 258
 510 379 l 257
 361 379 l 257
EndSplineSet
EndChar

StartChar: quotedbl
Encoding: 34 34 388
Width: 932
VWidth: 0
GlyphClass: 2
Flags: W
PickledData: "(dp1
S'org.robofab.postScriptHintData'
p2
(dp3
sS'com.typemytype.robofont.layerData'
p4
(dp5
S'b'
(dp6
S'name'
p7
S'quotedbl'
p8
sS'lib'
p9
(dp10
sS'unicodes'
p11
(tsS'width'
p12
F785.64999999999998
sS'contours'
p13
(tsS'components'
p14
(tsS'anchors'
p15
(tsss."
LayerCount: 2
Fore
SplineSet
583 955 m 257
 540 1456 l 257
 730 1456 l 257
 697 955 l 257
 583 955 l 257
247 955 m 257
 205 1456 l 257
 394 1456 l 257
 360 955 l 257
 247 955 l 257
EndSplineSet
EndChar

StartChar: quotedblbase
Encoding: 8222 8222 389
Width: 960
VWidth: 0
GlyphClass: 2
Flags: W
PickledData: "(dp1
S'org.robofab.postScriptHintData'
p2
(dp3
s."
LayerCount: 2
Fore
SplineSet
505 -327 m 257
 587 216 l 257
 785 216 l 257
 657 -327 l 257
 505 -327 l 257
155 -327 m 257
 237 216 l 257
 435 216 l 257
 307 -327 l 257
 155 -327 l 257
EndSplineSet
EndChar

StartChar: quotedblleft
Encoding: 8220 8220 390
Width: 1024
VWidth: 0
GlyphClass: 2
Flags: W
PickledData: "(dp1
S'org.robofab.postScriptHintData'
p2
(dp3
sS'com.typemytype.robofont.layerData'
p4
(dp5
S'b'
(dp6
S'name'
p7
S'quotedblleft'
p8
sS'lib'
p9
(dp10
sS'unicodes'
p11
(tsS'width'
p12
F1024
sS'contours'
p13
(tsS'components'
p14
(tsS'anchors'
p15
(tsss."
LayerCount: 2
Fore
SplineSet
558 882 m 257
 707 1456 l 257
 857 1456 l 257
 764 882 l 257
 558 882 l 257
166 882 m 257
 321 1456 l 257
 470 1456 l 257
 377 882 l 257
 166 882 l 257
EndSplineSet
EndChar

StartChar: quotedblright
Encoding: 8221 8221 391
Width: 1024
VWidth: 0
GlyphClass: 2
Flags: W
PickledData: "(dp1
S'org.robofab.postScriptHintData'
p2
(dp3
sS'com.typemytype.robofont.layerData'
p4
(dp5
S'b'
(dp6
S'name'
p7
S'quotedblright'
p8
sS'lib'
p9
(dp10
sS'unicodes'
p11
(tsS'width'
p12
F1024
sS'contours'
p13
(tsS'components'
p14
(tsS'anchors'
p15
(tsss."
LayerCount: 2
Fore
SplineSet
561 882 m 257
 653 1456 l 257
 858 1456 l 257
 712 882 l 257
 561 882 l 257
197 882 m 257
 287 1456 l 257
 493 1456 l 257
 347 882 l 257
 197 882 l 257
EndSplineSet
EndChar

StartChar: quoteleft
Encoding: 8216 8216 392
Width: 530
VWidth: 0
GlyphClass: 2
Flags: W
PickledData: "(dp1
S'org.robofab.postScriptHintData'
p2
(dp3
sS'com.typemytype.robofont.layerData'
p4
(dp5
S'b'
(dp6
S'name'
p7
S'quoteleft'
p8
sS'lib'
p9
(dp10
sS'unicodes'
p11
(tsS'width'
p12
F518.5
sS'contours'
p13
(tsS'components'
p14
(tsS'anchors'
p15
(tsss."
LayerCount: 2
Fore
SplineSet
411 1456 m 257
 343 882 l 257
 123 882 l 257
 277 1456 l 257
 411 1456 l 257
EndSplineSet
EndChar

StartChar: quoteright
Encoding: 8217 8217 393
Width: 530
VWidth: 0
GlyphClass: 2
Flags: W
PickledData: "(dp1
S'org.robofab.postScriptHintData'
p2
(dp3
sS'com.typemytype.robofont.layerData'
p4
(dp5
S'b'
(dp6
S'name'
p7
S'quoteright'
p8
sS'lib'
p9
(dp10
g4
(dp11
S'b'
(dp12
g7
S'quoteleft'
p13
sg9
(dp14
sS'unicodes'
p15
(tsS'width'
p16
I494
sS'contours'
p17
(tsS'components'
p18
(tsS'anchors'
p19
(tssssg15
(tsg16
F537.25
sg17
((dp20
S'points'
p21
((dp22
S'segmentType'
p23
S'line'
p24
sS'x'
F416
sS'smooth'
p25
I00
sS'y'
F888
s(dp26
g23
S'line'
p27
sS'x'
F300
sg25
I00
sS'y'
F888
s(dp28
g23
S'line'
p29
sS'x'
F150
sg25
I00
sS'y'
F1456
s(dp30
g23
S'line'
p31
sS'x'
F360
sg25
I00
sS'y'
F1456
stp32
stp33
sg18
(tsg19
(tsss."
LayerCount: 2
Fore
SplineSet
123 882 m 257
 191 1456 l 257
 411 1456 l 257
 257 882 l 257
 123 882 l 257
EndSplineSet
EndChar

StartChar: quotesinglbase
Encoding: 8218 8218 394
Width: 587
VWidth: 0
GlyphClass: 2
Flags: W
PickledData: "(dp1
S'org.robofab.postScriptHintData'
p2
(dp3
sS'com.typemytype.robofont.layerData'
p4
(dp5
S'b'
(dp6
S'name'
p7
S'quotesinglbase'
p8
sS'lib'
p9
(dp10
sS'unicodes'
p11
(tsS'width'
p12
F595.70000000000005
sS'contours'
p13
(tsS'components'
p14
(tsS'anchors'
p15
(tsss."
LayerCount: 2
Fore
SplineSet
155 -327 m 257
 237 216 l 257
 435 216 l 257
 307 -327 l 257
 155 -327 l 257
EndSplineSet
EndChar

StartChar: quotesingle
Encoding: 39 39 395
Width: 509
VWidth: 0
GlyphClass: 2
Flags: W
PickledData: "(dp1
S'org.robofab.postScriptHintData'
p2
(dp3
sS'com.typemytype.robofont.layerData'
p4
(dp5
S'b'
(dp6
S'name'
p7
S'quotesingle'
p8
sS'lib'
p9
(dp10
sS'unicodes'
p11
(tsS'width'
p12
F507.85000000000002
sS'contours'
p13
(tsS'components'
p14
(tsS'anchors'
p15
(tsss."
LayerCount: 2
Fore
SplineSet
199 936 m 257
 162 1456 l 257
 359 1456 l 257
 331 936 l 257
 199 936 l 257
EndSplineSet
EndChar

StartChar: r
Encoding: 114 114 396
Width: 803
VWidth: 0
GlyphClass: 2
Flags: W
PickledData: "(dp1
S'org.robofab.postScriptHintData'
p2
(dp3
sS'com.typemytype.robofont.layerData'
p4
(dp5
S'b'
(dp6
S'name'
p7
S'r'
sS'lib'
p8
(dp9
sS'unicodes'
p10
(tsS'width'
p11
F818.89999999999998
sS'contours'
p12
(tsS'components'
p13
(tsS'anchors'
p14
(tsss."
AnchorPoint: "top" 518 1026 basechar 0
LayerCount: 2
Fore
SplineSet
179 0 m 257
 179 774 l 258
 179 851 166 1026 166 1026 c 257
 361 1026 l 257
 363 866 l 257
 424 987 520 1050 637 1050 c 256
 671 1050 706 1047 741 1038 c 257
 740 875 l 257
 707 884 667 891 627 891 c 256
 475 891 365 784 365 571 c 258
 365 0 l 257
 179 0 l 257
EndSplineSet
EndChar

StartChar: radical
Encoding: 8730 8730 398
Width: 1314
VWidth: 0
GlyphClass: 2
Flags: W
PickledData: "(dp1
S'org.robofab.postScriptHintData'
p2
(dp3
sS'com.typemytype.robofont.layerData'
p4
(dp5
s."
LayerCount: 2
Fore
SplineSet
671 -150 m 257
 346 676 l 258
 345 676 176 648 176 648 c 257
 150 777 l 257
 464 830 l 257
 735 98 l 257
 1132 1585 l 257
 1286 1585 l 257
 823 -150 l 257
 671 -150 l 257
EndSplineSet
EndChar

StartChar: registered
Encoding: 174 174 402
Width: 1728
VWidth: 0
GlyphClass: 2
Flags: W
PickledData: "(dp1
S'org.robofab.postScriptHintData'
p2
(dp3
sS'com.typemytype.robofont.layerData'
p4
(dp5
S'b'
(dp6
S'name'
p7
S'registered'
p8
sS'lib'
p9
(dp10
sS'unicodes'
p11
(tsS'width'
p12
F1727.05
sS'contours'
p13
(tsS'components'
p14
(tsS'anchors'
p15
(tsss."
LayerCount: 2
Fore
SplineSet
863 -25 m 256
 448 -25 108 312 108 728 c 256
 108 1144 448 1483 863 1483 c 256
 1280 1483 1621 1144 1621 728 c 256
 1621 312 1280 -25 863 -25 c 256
865 75 m 256
 1218 75 1503 371 1503 725 c 256
 1503 1080 1218 1381 865 1381 c 256
 510 1381 225 1080 225 725 c 256
 225 371 510 75 865 75 c 256
706 777 m 257
 823 777 l 258
 983 777 1063 801 1063 914 c 256
 1063 1038 1015 1055 822 1055 c 258
 706 1055 l 257
 706 777 l 257
544 278 m 257
 544 1187 l 257
 827 1187 l 258
 1117 1187 1233 1094 1233 928 c 256
 1233 812 1191 715 1025 681 c 257
 1235 278 l 257
 1051 278 l 257
 867 660 l 257
 708 660 l 257
 708 278 l 257
 544 278 l 257
EndSplineSet
EndChar

StartChar: ring
Encoding: 730 730 403
Width: 628
VWidth: 0
GlyphClass: 2
Flags: W
PickledData: "(dp1
S'org.robofab.postScriptHintData'
p2
(dp3
sS'com.typemytype.robofont.layerData'
p4
(dp5
S'b'
(dp6
S'name'
p7
S'ring'
p8
sS'lib'
p9
(dp10
sS'unicodes'
p11
(tsS'width'
p12
F633.35000000000002
sS'contours'
p13
(tsS'components'
p14
(tsS'anchors'
p15
(tsss."
AnchorPoint: "top" 315 1486 basechar 0
AnchorPoint: "top" 315 1026 mark 0
LayerCount: 2
Fore
SplineSet
315 1137 m 256
 203 1137 114 1220 114 1332 c 256
 114 1445 203 1527 315 1527 c 256
 427 1527 516 1445 516 1332 c 256
 516 1220 427 1137 315 1137 c 256
314 1222 m 256
 373 1222 420 1271 420 1332 c 256
 420 1393 373 1442 314 1442 c 256
 255 1442 208 1393 208 1332 c 256
 208 1271 255 1222 314 1222 c 256
EndSplineSet
EndChar

StartChar: s
Encoding: 115 115 405
Width: 978
VWidth: 0
GlyphClass: 2
Flags: W
PickledData: "(dp1
S'org.robofab.postScriptHintData'
p2
(dp3
sS'com.typemytype.robofont.layerData'
p4
(dp5
S'b'
(dp6
S'name'
p7
S's'
sS'lib'
p8
(dp9
sS'unicodes'
p10
(tsS'width'
p11
F981.89999999999998
sS'contours'
p12
((dp13
S'points'
p14
((dp15
S'segmentType'
p16
S'curve'
p17
sS'x'
F498
sS'smooth'
p18
I01
sS'y'
F-23
s(dp19
S'y'
F-23
sS'x'
F282
sg18
I00
s(dp20
S'y'
F70
sS'x'
F145
sg18
I00
s(dp21
g16
S'curve'
p22
sS'x'
F116
sg18
I00
sS'y'
F94
s(dp23
g16
S'line'
p24
sS'x'
F160
sg18
I00
sS'y'
F222
s(dp25
S'y'
F189
sS'x'
F208
sg18
I00
s(dp26
S'y'
F109
sS'x'
F348
sg18
I00
s(dp27
g16
S'curve'
p28
sS'x'
F484
sg18
I01
sS'y'
F109
s(dp29
S'y'
F109
sS'x'
F589
sg18
I00
s(dp30
S'y'
F141
sS'x'
F711
sg18
I00
s(dp31
g16
S'curve'
p32
sS'x'
F711
sg18
I01
sS'y'
F272
s(dp33
S'y'
F395
sS'x'
F711
sg18
I00
s(dp34
S'y'
F426
sS'x'
F561
sg18
I00
s(dp35
g16
S'curve'
p36
sS'x'
F412
sg18
I00
sS'y'
F474
s(dp37
S'y'
F521
sS'x'
F262
sg18
I00
s(dp38
S'y'
F585
sS'x'
F112
sg18
I00
s(dp39
g16
S'curve'
p40
sS'x'
F112
sg18
I01
sS'y'
F771
s(dp41
S'y'
F970
sS'x'
F112
sg18
I00
s(dp42
S'y'
F1051
sS'x'
F318
sg18
I00
s(dp43
g16
S'curve'
p44
sS'x'
F488
sg18
I01
sS'y'
F1051
s(dp45
S'y'
F1051
sS'x'
F715
sg18
I00
s(dp46
S'y'
F991
sS'x'
F792
sg18
I00
s(dp47
g16
S'curve'
p48
sS'x'
F832
sg18
I00
sS'y'
F966
s(dp49
g16
S'line'
p50
sS'x'
F785
sg18
I00
sS'y'
F851
s(dp51
S'y'
F858
sS'x'
F772
sg18
I00
s(dp52
S'y'
F917
sS'x'
F667
sg18
I00
s(dp53
g16
S'curve'
p54
sS'x'
F504
sg18
I01
sS'y'
F917
s(dp55
S'y'
F917
sS'x'
F355
sg18
I00
s(dp56
S'y'
F882
sS'x'
F283
sg18
I00
s(dp57
g16
S'curve'
p58
sS'x'
F283
sg18
I01
sS'y'
F774
s(dp59
S'y'
F660
sS'x'
F283
sg18
I00
s(dp60
S'y'
F629
sS'x'
F433
sg18
I00
s(dp61
g16
S'curve'
p62
sS'x'
F582
sg18
I01
sS'y'
F581
s(dp63
S'y'
F533
sS'x'
F732
sg18
I00
s(dp64
S'y'
F468
sS'x'
F881
sg18
I00
s(dp65
g16
S'curve'
p66
sS'x'
F881
sg18
I01
sS'y'
F284
s(dp67
S'y'
F62
sS'x'
F881
sg18
I00
s(dp68
S'y'
F-23
sS'x'
F685
sg18
I00
stp69
stp70
sS'components'
p71
(tsS'anchors'
p72
(tsss."
AnchorPoint: "top" 487 1026 basechar 0
LayerCount: 2
Fore
SplineSet
518 -22 m 256
 315 -22 176 62 126 102 c 257
 177 239 l 257
 239 193 367 129 503 129 c 256
 608 129 707 160 707 279 c 256
 707 369 641 395 482 449 c 258
 394 479 l 257
 243 533 129 594 129 767 c 256
 129 970 309 1051 498 1051 c 256
 662 1051 776 1003 840 962 c 257
 789 830 l 257
 746 853 636 902 519 902 c 256
 387 902 312 855 312 772 c 256
 312 694 352 672 474 628 c 256
 492 622 553 602 577 593 c 256
 755 530 881 475 881 286 c 256
 881 59 697 -22 518 -22 c 256
EndSplineSet
EndChar

StartChar: section
Encoding: 167 167 412
Width: 1069
VWidth: 0
GlyphClass: 2
Flags: W
PickledData: "(dp1
S'org.robofab.postScriptHintData'
p2
(dp3
sS'com.typemytype.robofont.layerData'
p4
(dp5
S'b'
(dp6
S'name'
p7
S'section'
p8
sS'lib'
p9
(dp10
sS'unicodes'
p11
(tsS'width'
p12
F1071.6500000000001
sS'contours'
p13
(tsS'components'
p14
(tsS'anchors'
p15
(tsss."
LayerCount: 2
Fore
SplineSet
611 530 m 257
 669 566 723 629 723 701 c 256
 723 798 629 830 508 888 c 257
 444 859 363 800 363 727 c 256
 363 638 462 595 611 530 c 257
507 -75 m 256
 409 -75 300 -56 205 -19 c 257
 205 131 l 257
 313 86 413 65 495 65 c 256
 630.858 65 719.007 122.17 719.007 225.229 c 256
 719.007 307.388 618.97 346.485 412 444 c 256
 272 509 188 587 188 714 c 256
 188 821 280 914 384 958 c 257
 281 1023 214 1087 214 1201 c 256
 214 1396 390 1486 592 1486 c 256
 679 1486 761 1474 843 1446 c 257
 843 1311 l 257
 773 1337 692 1352 618 1352 c 256
 497 1352 394 1310 394 1208 c 256
 394 1134 464 1084 627 1008 c 256
 788 930 910 864 910 721 c 256
 910 614 825 523 731 464 c 257
 828 413 900 344 900 231 c 256
 900 25 722 -75 507 -75 c 256
EndSplineSet
EndChar

StartChar: semicolon
Encoding: 59 59 413
Width: 543
VWidth: 0
GlyphClass: 2
Flags: W
PickledData: "(dp1
S'org.robofab.postScriptHintData'
p2
(dp3
sS'com.typemytype.robofont.layerData'
p4
(dp5
s."
LayerCount: 2
Fore
SplineSet
169 827 m 257
 169 1053 l 257
 395 1053 l 257
 395 827 l 257
 169 827 l 257
96 -265 m 257
 203 222 l 257
 413 222 l 257
 246 -265 l 257
 96 -265 l 257
EndSplineSet
EndChar

StartChar: seven
Encoding: 55 55 414
Width: 1231
VWidth: 0
GlyphClass: 2
Flags: W
PickledData: "(dp1
S'org.robofab.postScriptHintData'
p2
(dp3
sS'com.typemytype.robofont.layerData'
p4
(dp5
s."
LayerCount: 2
Fore
SplineSet
354 0 m 257
 876 1295 l 257
 171 1295 l 257
 171 1456 l 257
 1092 1456 l 257
 1092 1312 l 257
 560 0 l 257
 354 0 l 257
EndSplineSet
EndChar

StartChar: six
Encoding: 54 54 415
Width: 1231
VWidth: 0
GlyphClass: 2
Flags: W
PickledData: "(dp1
S'org.robofab.postScriptHintData'
p2
(dp3
sS'com.typemytype.robofont.layerData'
p4
(dp5
s."
LayerCount: 2
Fore
SplineSet
656 139 m 256
 834 139 938 279 938 463 c 256
 938 644 849 784 661 784 c 256
 475 784 355 654 355 503 c 256
 355 289 465 139 656 139 c 256
656 -22 m 256
 303 -22 140 268 140 694 c 256
 140 1126 326 1482 707 1482 c 256
 852 1482 971 1435 1049 1367 c 257
 984 1227 l 257
 912 1284 816 1321 709 1321 c 256
 449.502 1321 340 1036.71 340 761 c 257
 405 862 520 941 685 941 c 256
 947 941 1135 757 1135 466 c 256
 1135 189 952 -22 656 -22 c 256
EndSplineSet
EndChar

StartChar: slash
Encoding: 47 47 416
Width: 910
VWidth: 0
GlyphClass: 2
Flags: W
PickledData: "(dp1
S'org.robofab.postScriptHintData'
p2
(dp3
sS'com.typemytype.robofont.layerData'
p4
(dp5
s."
LayerCount: 2
Fore
SplineSet
125 0 m 257
 655 1456 l 257
 826 1456 l 257
 292 0 l 257
 125 0 l 257
EndSplineSet
EndChar

StartChar: uni00AD
Encoding: 173 173 418
Width: 679
VWidth: 0
GlyphClass: 2
Flags: W
PickledData: "(dp1
S'org.robofab.postScriptHintData'
p2
(dp3
s."
LayerCount: 2
Fore
SplineSet
61 487 m 257
 61 629 l 257
 617 629 l 257
 617 487 l 257
 61 487 l 257
EndSplineSet
EndChar

StartChar: sterling
Encoding: 163 163 420
Width: 1203
VWidth: 0
GlyphClass: 2
Flags: W
PickledData: "(dp1
S'org.robofab.postScriptHintData'
p2
(dp3
sS'com.typemytype.robofont.layerData'
p4
(dp5
S'b'
(dp6
S'name'
p7
S'sterling'
p8
sS'lib'
p9
(dp10
sS'unicodes'
p11
(tsS'width'
p12
F1207.3
sS'contours'
p13
(tsS'components'
p14
(tsS'anchors'
p15
(tsss."
LayerCount: 2
Fore
SplineSet
801.679 1323.19 m 256
 600.856 1323.19 525 1204.47 525 982 c 258
 525 820 l 257
 888 820 l 257
 888 696 l 257
 527 696 l 257
 527 589 l 258
 527 363 439 214 385 157 c 257
 1042 157 l 257
 1042 0 l 257
 155 0 l 257
 155 150 l 257
 262 229 338 380 338 591 c 258
 338 696 l 257
 147 696 l 257
 147 820 l 257
 336 820 l 257
 336 939 l 258
 336 1242 427 1480 782 1480 c 256
 919 1480 1001 1447 1058 1405 c 257
 1008 1265 l 257
 964.871 1290.88 897.858 1323.19 801.679 1323.19 c 256
EndSplineSet
EndChar

StartChar: summation
Encoding: 8721 8721 421
Width: 1193
VWidth: 0
GlyphClass: 2
Flags: W
PickledData: "(dp1
S'org.robofab.postScriptHintData'
p2
(dp3
sS'com.typemytype.robofont.layerData'
p4
(dp5
S'b'
(dp6
S'name'
p7
S'summation'
p8
sS'lib'
p9
(dp10
sS'unicodes'
p11
(tsS'width'
p12
F1198.3
sS'contours'
p13
(tsS'components'
p14
(tsS'anchors'
p15
(tsss."
LayerCount: 2
Fore
SplineSet
132 -110 m 257
 132 -14 l 257
 628 681 l 257
 152 1358 l 257
 152 1455 l 257
 1053 1455 l 257
 1053 1308 l 257
 381 1308 l 257
 826 688 l 257
 355 40 l 257
 1095 40 l 257
 1095 -110 l 257
 132 -110 l 257
EndSplineSet
EndChar

StartChar: t
Encoding: 116 116 422
Width: 803
VWidth: 0
GlyphClass: 2
Flags: W
PickledData: "(dp1
S'org.robofab.postScriptHintData'
p2
(dp3
sS'com.typemytype.robofont.layerData'
p4
(dp5
S'b'
(dp6
S'name'
p7
S't'
sS'lib'
p8
(dp9
sS'unicodes'
p10
(tsS'width'
p11
F763.89999999999998
sS'contours'
p12
(tsS'components'
p13
(tsS'anchors'
p14
(tsss."
AnchorPoint: "caron.alt" 260 1280 basechar 0
AnchorPoint: "top" 328 1347 basechar 0
LayerCount: 2
Fore
SplineSet
704 0 m 257
 619 0 l 257
 328 3 240 87 240 355 c 258
 240 903 l 257
 43 903 l 257
 43 1026 l 257
 244 1026 l 257
 244 1290 l 257
 424 1343 l 257
 424 1026 l 257
 702 1026 l 257
 702 903 l 257
 424 903 l 257
 424 345 l 258
 424 169 472 144 704 144 c 257
 704 0 l 257
EndSplineSet
EndChar

StartChar: thorn
Encoding: 254 254 427
Width: 1236
VWidth: 0
GlyphClass: 2
Flags: W
PickledData: "(dp1
S'org.robofab.postScriptHintData'
p2
(dp3
sS'com.typemytype.robofont.layerData'
p4
(dp5
s."
LayerCount: 2
Fore
SplineSet
639 126 m 256
 844 126 941 304 941 519 c 256
 941 727 856 900 644 900 c 256
 413 900 335 706 335 498 c 256
 335 283 440 126 639 126 c 256
154 -419 m 257
 154 1458 l 257
 337 1458 l 257
 337 879 l 257
 399 987 525 1051 665 1051 c 256
 979 1051 1137 819 1137 523 c 256
 1137 228 978 -22 665 -22 c 256
 532 -22 403 31 337 138 c 257
 337 -419 l 257
 154 -419 l 257
EndSplineSet
EndChar

StartChar: three
Encoding: 51 51 428
Width: 1231
VWidth: 0
GlyphClass: 2
Flags: W
PickledData: "(dp1
S'org.robofab.postScriptHintData'
p2
(dp3
sS'com.typemytype.robofont.layerData'
p4
(dp5
S'b'
(dp6
S'name'
p7
S'three'
p8
sS'lib'
p9
(dp10
sS'unicodes'
p11
(tsS'width'
p12
F1234.0999999999999
sS'contours'
p13
((dp14
S'points'
p15
((dp16
S'segmentType'
p17
S'curve'
p18
sS'x'
F344
sS'smooth'
p19
I01
sS'y'
F1010
s(dp20
S'y'
F827
sS'x'
F344
sg19
I00
s(dp21
S'y'
F687
sS'x'
F423
sg19
I00
s(dp22
g17
S'curve'
p23
sS'x'
F634
sg19
I01
sS'y'
F687
s(dp24
S'y'
F687
sS'x'
F814
sg19
I00
s(dp25
S'y'
F803
sS'x'
F938
sg19
I00
s(dp26
g17
S'curve'
p27
sS'x'
F938
sg19
I01
sS'y'
F991
s(dp28
S'y'
F1166
sS'x'
F938
sg19
I00
s(dp29
S'y'
F1334
sS'x'
F845
sg19
I00
s(dp30
g17
S'curve'
p31
sS'x'
F635
sg19
I01
sS'y'
F1334
s(dp32
S'y'
F1334
sS'x'
F449
sg19
I00
s(dp33
S'y'
F1196
sS'x'
F344
sg19
I00
stp34
s(dp35
g15
((dp36
g17
S'curve'
p37
sS'x'
F594
sg19
I01
sS'y'
F-24
s(dp38
S'y'
F-24
sS'x'
F473
sg19
I00
s(dp39
S'y'
F-1
sS'x'
F367
sg19
I00
s(dp40
g17
S'curve'
p41
sS'x'
F238
sg19
I00
sS'y'
F65
s(dp42
g17
S'line'
p43
sS'x'
F287
sg19
I00
sS'y'
F197
s(dp44
S'y'
F138
sS'x'
F401
sg19
I00
s(dp45
S'y'
F124
sS'x'
F489
sg19
I00
s(dp46
g17
S'curve'
p47
sS'x'
F581
sg19
I01
sS'y'
F124
s(dp48
S'y'
F124
sS'x'
F812
sg19
I00
s(dp49
S'y'
F308
sS'x'
F950
sg19
I00
s(dp50
g17
S'curve'
p51
sS'x'
F950
sg19
I01
sS'y'
F657
s(dp52
g17
S'line'
p53
sS'x'
F950
sg19
I00
sS'y'
F722
s(dp54
S'y'
F600
sS'x'
F886
sg19
I00
s(dp55
S'y'
F544
sS'x'
F772
sg19
I00
s(dp56
g17
S'curve'
p57
sS'x'
F607
sg19
I01
sS'y'
F544
s(dp58
S'y'
F544
sS'x'
F328
sg19
I00
s(dp59
S'y'
F735
sS'x'
F168
sg19
I00
s(dp60
g17
S'curve'
p61
sS'x'
F168
sg19
I01
sS'y'
F1004
s(dp62
S'y'
F1275
sS'x'
F168
sg19
I00
s(dp63
S'y'
F1483
sS'x'
F341
sg19
I00
s(dp64
g17
S'curve'
p65
sS'x'
F643
sg19
I01
sS'y'
F1483
s(dp66
S'y'
F1483
sS'x'
F969
sg19
I00
s(dp67
S'y'
F1231
sS'x'
F1125
sg19
I00
s(dp68
g17
S'curve'
p69
sS'x'
F1125
sg19
I01
sS'y'
F774
s(dp70
S'y'
F203
sS'x'
F1125
sg19
I00
s(dp71
S'y'
F-24
sS'x'
F894
sg19
I00
stp72
stp73
sS'components'
p74
(tsS'anchors'
p75
(tsss."
LayerCount: 2
Fore
SplineSet
582 -22 m 256
 357 -22 202 67 179 81 c 257
 232 227 l 257
 275 206 417 139 565 139 c 256
 760 139 885 242 885 410 c 256
 885 594.923 740.269 683.033 503.994 683.033 c 256
 501.341 683.033 498.676 683.022 496 683 c 258
 419 682 l 257
 417 845 l 257
 492 845 l 258
 729 845 850 915 850 1107 c 256
 850 1248 714 1321 561 1321 c 256
 401 1321 288 1252 222 1189 c 257
 134 1317 l 257
 244 1426 380 1482 583 1482 c 256
 822 1482 1038 1353 1038 1109 c 256
 1038 949 948 806 768 767 c 257
 961 731 1074 588 1074 403 c 256
 1074 138 858 -22 582 -22 c 256
EndSplineSet
EndChar

StartChar: threequarters
Encoding: 190 190 429
Width: 2126
VWidth: 0
GlyphClass: 2
Flags: W
PickledData: "(dp1
S'org.robofab.postScriptHintData'
p2
(dp3
sS'com.typemytype.robofont.layerData'
p4
(dp5
s."
LayerCount: 2
Fore
SplineSet
1289 300 m 257
 1533 300 l 257
 1533 643 l 257
 1289 300 l 257
528 0 m 257
 1431 1456 l 257
 1590 1456 l 257
 691 0 l 257
 528 0 l 257
1535 0 m 257
 1535 190 l 257
 1157 190 l 257
 1157 285 l 257
 1526 800 l 257
 1672 800 l 257
 1672 300 l 257
 1782 300 l 257
 1782 190 l 257
 1670 190 l 257
 1670 0 l 257
 1535 0 l 257
474 603 m 256
 376 603 278 636 207 697 c 257
 264 792 l 257
 331 741 402 715 466 715 c 256
 559 715 624 776 624 859 c 256
 624 943 554 989 436 989 c 258
 357 989 l 257
 357 1100 l 257
 432 1100 l 258
 534 1100 602 1148 602 1224 c 256
 602 1301 545 1349 462 1349 c 256
 395 1349 325 1323 261 1274 c 257
 205 1362 l 257
 276 1422 378 1458 477 1458 c 256
 623 1458 743 1381 743 1236 c 256
 743 1163 699 1091 599 1057 c 257
 711 1024 766 946 766 857 c 256
 766 692 633 603 474 603 c 256
EndSplineSet
EndChar

StartChar: uni00B3
Encoding: 179 179 430
Width: 1064
VWidth: 0
GlyphClass: 2
Flags: W
PickledData: "(dp1
S'org.robofab.postScriptHintData'
p2
(dp3
sS'com.typemytype.robofont.layerData'
p4
(dp5
s."
LayerCount: 2
Fore
SplineSet
540 601 m 256
 442 601 342 634 275 696 c 257
 331 793 l 257
 393 742 469 715 533 715 c 256
 628 715 692 768 692 854 c 256
 692 943 619 989 495 989 c 258
 422 989 l 257
 422 1102 l 257
 490 1102 l 258
 598 1102 670 1141 670 1223 c 256
 670 1302 617 1341 533 1341 c 256
 463 1341 390 1314 330 1265 c 257
 274 1357 l 257
 340 1418 443 1456 541 1456 c 256
 686 1456 804 1377 804 1231 c 256
 804 1156 767 1080 656 1051 c 257
 771 1023 826 943 826 851 c 256
 826 691 699 601 540 601 c 256
EndSplineSet
EndChar

StartChar: tilde
Encoding: 732 732 431
Width: 667
VWidth: 0
GlyphClass: 4
Flags: W
PickledData: "(dp1
S'org.robofab.postScriptHintData'
p2
(dp3
sS'com.typemytype.robofont.layerData'
p4
(dp5
S'b'
(dp6
S'name'
p7
S'tilde'
p8
sS'lib'
p9
(dp10
sS'unicodes'
p11
(tsS'width'
p12
F672.35000000000002
sS'contours'
p13
(tsS'components'
p14
(tsS'anchors'
p15
(tsss."
AnchorPoint: "top" 331 1026 mark 0
LayerCount: 2
Fore
SplineSet
487.461 1174.93 m 256
 395.374 1174.93 266.179 1276 195 1276 c 256
 155 1276 131 1246 125 1183 c 257
 7 1183 l 257
 7 1323 76 1416 187 1416 c 256
 291.426 1416 408.947 1314.97 478.431 1314.97 c 256
 519.643 1314.97 536.038 1340.43 538 1414 c 257
 660 1414 l 257
 660 1267.34 600.898 1174.93 487.461 1174.93 c 256
EndSplineSet
EndChar

StartChar: trademark
Encoding: 8482 8482 432
Width: 1869
VWidth: 0
GlyphClass: 2
Flags: W
PickledData: "(dp1
S'org.robofab.postScriptHintData'
p2
(dp3
sS'com.typemytype.robofont.layerData'
p4
(dp5
S'b'
(dp6
S'name'
p7
S'trademark'
p8
sS'lib'
p9
(dp10
sS'unicodes'
p11
(tsS'width'
p12
F1869
sS'contours'
p13
(tsS'components'
p14
(tsS'anchors'
p15
(tsss."
LayerCount: 2
Fore
SplineSet
321 690 m 257
 321 1341 l 257
 71 1341 l 257
 71 1460 l 257
 708 1460 l 257
 708 1341 l 257
 461 1341 l 257
 461 690 l 257
 321 690 l 257
828 690 m 257
 828 1460 l 257
 990 1460 l 257
 1249 877 l 257
 1517 1460 l 257
 1671 1460 l 257
 1671 690 l 257
 1547 690 l 257
 1547 1264 l 257
 1290 690 l 257
 1203 690 l 257
 950 1259 l 257
 950 690 l 257
 828 690 l 257
EndSplineSet
EndChar

StartChar: two
Encoding: 50 50 433
Width: 1238
VWidth: 0
GlyphClass: 2
Flags: W
PickledData: "(dp1
S'org.robofab.postScriptHintData'
p2
(dp3
sS'com.typemytype.robofont.layerData'
p4
(dp5
S'b'
(dp6
S'name'
p7
S'two'
p8
sS'lib'
p9
(dp10
sS'unicodes'
p11
(tsS'width'
p12
F1244.5
sS'contours'
p13
(tsS'components'
p14
(tsS'anchors'
p15
(tsss."
LayerCount: 2
Fore
SplineSet
599 1482 m 256
 873.653 1482 1049.16 1301.01 1049.16 1045.51 c 256
 1049.16 845.043 940.027 688.809 762 501 c 258
 438 158 l 257
 1043 158 l 257
 1043 0 l 257
 209 0 l 257
 209 150 l 257
 652 620 l 258
 804.215 781.67 862.576 897.753 862.576 1030.79 c 256
 862.576 1204 767.613 1320 588 1320 c 256
 406 1320 249 1211 225 1198 c 257
 163 1347 l 257
 188 1361 357 1482 599 1482 c 256
EndSplineSet
EndChar

StartChar: uni00B2
Encoding: 178 178 434
Width: 1114
VWidth: 0
GlyphClass: 2
Flags: W
PickledData: "(dp1
S'org.robofab.postScriptHintData'
p2
(dp3
sS'com.typemytype.robofont.layerData'
p4
(dp5
s."
LayerCount: 2
Fore
SplineSet
309 619 m 257
 309 719 l 257
 583 985 l 258
 685 1083 725 1157 725 1224 c 256
 725 1291 677 1336 588 1336 c 256
 508 1336 433 1294 391 1212 c 257
 314 1295 l 257
 365 1397 470 1456 595 1456 c 256
 750 1456 862 1369 862 1226 c 256
 862 1112 784 1008 661 894 c 258
 483 728 l 257
 859 728 l 257
 859 619 l 257
 309 619 l 257
EndSplineSet
EndChar

StartChar: u
Encoding: 117 117 435
Width: 1234
VWidth: 0
GlyphClass: 2
Flags: W
PickledData: "(dp1
S'org.robofab.postScriptHintData'
p2
(dp3
sS'com.typemytype.robofont.layerData'
p4
(dp5
S'b'
(dp6
S'name'
p7
S'u'
sS'lib'
p8
(dp9
sS'unicodes'
p10
(tsS'width'
p11
F1227.2
sS'contours'
p12
(tsS'components'
p13
(tsS'anchors'
p14
(tsss."
AnchorPoint: "top" 608 1026 basechar 0
LayerCount: 2
Fore
SplineSet
555 -23 m 256
 282 -23 160 151 160 392 c 258
 160 1026 l 257
 343 1026 l 257
 343 392 l 258
 343 214 430 127 586 127 c 256
 771 127 873 246 873 403 c 258
 873 1026 l 257
 1057 1026 l 257
 1057 254 l 258
 1057 175 1063 39 1066 0 c 257
 879 0 l 257
 874 165 l 257
 826 76 727 -23 555 -23 c 256
EndSplineSet
EndChar

StartChar: underscore
Encoding: 95 95 446
Width: 941
VWidth: 0
GlyphClass: 2
Flags: W
PickledData: "(dp1
S'org.robofab.postScriptHintData'
p2
(dp3
sS'com.typemytype.robofont.layerData'
p4
(dp5
s."
LayerCount: 2
Fore
SplineSet
-5 -268 m 257
 -5 -123 l 257
 946 -123 l 257
 946 -268 l 257
 -5 -268 l 257
EndSplineSet
EndChar

StartChar: uni0307
Encoding: 775 775 459
Width: 524
VWidth: 0
GlyphClass: 4
Flags: W
PickledData: "(dp1
S'org.robofab.postScriptHintData'
p2
(dp3
s."
AnchorPoint: "top" 261 1026 mark 0
LayerCount: 2
Fore
SplineSet
171 1268 m 257
 171 1447 l 257
 353 1447 l 257
 353 1268 l 257
 171 1268 l 257
EndSplineSet
EndChar

StartChar: uni030F
Encoding: 783 783 460
Width: 969
VWidth: 0
GlyphClass: 4
Flags: W
PickledData: "(dp1
S'org.robofab.postScriptHintData'
p2
(dp3
s."
AnchorPoint: "top" 591 1026 mark 0
LayerCount: 2
Fore
SplineSet
718 1174 m 257
 435 1567 l 257
 615 1567 l 257
 840 1174 l 257
 718 1174 l 257
376 1174 m 257
 68 1567 l 257
 248 1567 l 257
 500 1174 l 257
 376 1174 l 257
EndSplineSet
EndChar

StartChar: uni0311
Encoding: 785 785 461
Width: 615
VWidth: 0
GlyphClass: 4
Flags: W
PickledData: "(dp1
S'org.robofab.postScriptHintData'
p2
(dp3
sS'com.typemytype.robofont.layerData'
p4
(dp5
s."
AnchorPoint: "top" 315 1026 mark 0
LayerCount: 2
Fore
SplineSet
305 1440 m 256
 476 1440 571 1361 583 1180 c 257
 452 1180 l 257
 445 1279 389 1308 305 1308 c 256
 222 1308 171 1275 161 1180 c 257
 32 1180 l 257
 44 1359 140 1440 305 1440 c 256
EndSplineSet
EndChar

StartChar: uni0312
Encoding: 786 786 462
Width: 600
VWidth: 0
GlyphClass: 4
Flags: W
PickledData: "(dp1
S'org.robofab.postScriptHintData'
p2
(dp3
s."
AnchorPoint: "top" 291 1026 mark 0
LayerCount: 2
Fore
SplineSet
501 1681 m 257
 393 1192 l 257
 184 1192 l 257
 351 1681 l 257
 501 1681 l 257
EndSplineSet
EndChar

StartChar: uni0326
Encoding: 806 806 463
Width: 540
VWidth: 0
GlyphClass: 2
Flags: W
PickledData: "(dp1
S'org.robofab.postScriptHintData'
p2
(dp3
s."
LayerCount: 2
Fore
SplineSet
111 -607 m 257
 220 -134 l 257
 429 -134 l 257
 261 -607 l 257
 111 -607 l 257
EndSplineSet
EndChar

StartChar: afii00208
Encoding: 8213 8213 464
Width: 4097
VWidth: 0
GlyphClass: 2
Flags: W
PickledData: "(dp1
S'org.robofab.postScriptHintData'
p2
(dp3
s."
LayerCount: 2
Fore
SplineSet
62 480 m 257
 62 630 l 257
 4034 630 l 257
 4034 480 l 257
 62 480 l 257
EndSplineSet
EndChar

StartChar: v
Encoding: 118 118 469
Width: 1056
VWidth: 0
GlyphClass: 2
Flags: W
PickledData: "(dp1
S'org.robofab.postScriptHintData'
p2
(dp3
sS'com.typemytype.robofont.layerData'
p4
(dp5
S'b'
(dp6
S'name'
p7
S'v'
sS'lib'
p8
(dp9
sS'unicodes'
p10
(tsS'width'
p11
F1056.8
sS'contours'
p12
(tsS'components'
p13
(tsS'anchors'
p14
(tsss."
LayerCount: 2
Fore
SplineSet
441 0 m 257
 11 1026 l 257
 212 1026 l 257
 319.97 747.304 431.52 472.187 536 190 c 257
 633.136 476.198 745.436 747.231 850 1026 c 257
 1047 1026 l 257
 617 0 l 257
 441 0 l 257
EndSplineSet
EndChar

StartChar: w
Encoding: 119 119 470
Width: 1636
VWidth: 0
GlyphClass: 2
Flags: W
PickledData: "(dp1
S'org.robofab.postScriptHintData'
p2
(dp3
sS'com.typemytype.robofont.layerData'
p4
(dp5
S'b'
(dp6
S'name'
p7
S'w'
sS'lib'
p8
(dp9
sS'unicodes'
p10
(tsS'width'
p11
F1634.0999999999999
sS'contours'
p12
(tsS'components'
p13
(tsS'anchors'
p14
(tsss."
AnchorPoint: "top" 839 1026 basechar 0
LayerCount: 2
Fore
SplineSet
372 0 m 257
 31 1026 l 257
 227 1026 l 257
 309.091 756.091 389.978 484.978 473 216 c 257
 563.319 486.681 655.074 755.926 746 1026 c 257
 925 1026 l 257
 1013.09 755.757 1100.15 484.48 1189 215 c 257
 1269.4 483.935 1346.84 755.831 1426 1026 c 257
 1605 1026 l 257
 1264 0 l 257
 1091 0 l 257
 1002.75 267.754 912.999 533.999 826 803 c 257
 734.222 533.112 637.835 267.832 544 0 c 257
 372 0 l 257
EndSplineSet
EndChar

StartChar: x
Encoding: 120 120 475
Width: 1066
VWidth: 0
GlyphClass: 2
Flags: W
PickledData: "(dp1
S'org.robofab.postScriptHintData'
p2
(dp3
sS'com.typemytype.robofont.layerData'
p4
(dp5
S'b'
(dp6
S'name'
p7
S'x'
sS'lib'
p8
(dp9
sS'unicodes'
p10
(tsS'width'
p11
F1062.8499999999999
sS'contours'
p12
(tsS'components'
p13
(tsS'anchors'
p14
(tsssS'com.fontlab.hintData'
p15
(dp16
S'hhints'
p17
((dp18
S'position'
p19
I0
sg11
I21
s(dp20
g19
I1006
sg11
I20
stp21
ss."
HStem: 0 21<45 45 45 240 819 819 819 1019> 1006 20<269 269 817 1011 1011 1011>
LayerCount: 2
Fore
SplineSet
45 0 m 257
 434 512 l 257
 68 1027 l 257
 269 1026 l 257
 533 645 l 257
 817 1026 l 257
 1011 1026 l 257
 636 524 l 257
 1019 0 l 257
 819 0 l 257
 535 392 l 257
 240 0 l 257
 45 0 l 257
EndSplineSet
EndChar

StartChar: y
Encoding: 121 121 476
Width: 1065
VWidth: 0
GlyphClass: 2
Flags: W
PickledData: "(dp1
S'org.robofab.postScriptHintData'
p2
(dp3
sS'com.typemytype.robofont.layerData'
p4
(dp5
S'b'
(dp6
S'name'
p7
S'y'
sS'lib'
p8
(dp9
sS'unicodes'
p10
(tsS'width'
p11
F1065.05
sS'contours'
p12
(tsS'components'
p13
(tsS'anchors'
p14
(tsss."
AnchorPoint: "top" 550 1026 basechar 0
LayerCount: 2
Fore
SplineSet
209 -433 m 257
 134 -307 l 257
 329 -242 410 -143 443 -44 c 258
 460 8 l 257
 41 1026 l 257
 234 1026 l 257
 551 206 l 257
 848 1026 l 257
 1033 1026 l 257
 619 -54 l 257
 547 -245 403 -385 209 -433 c 257
EndSplineSet
EndChar

StartChar: yen
Encoding: 165 165 480
Width: 1221
VWidth: 0
GlyphClass: 2
Flags: W
PickledData: "(dp1
S'org.robofab.postScriptHintData'
p2
(dp3
sS'com.typemytype.robofont.layerData'
p4
(dp5
S'b'
(dp6
S'name'
p7
S'yen'
p8
sS'lib'
p9
(dp10
sS'unicodes'
p11
(tsS'width'
p12
F1225.45
sS'contours'
p13
(tsS'components'
p14
(tsS'anchors'
p15
(tsss."
LayerCount: 2
Fore
SplineSet
178 281 m 257
 178 397 l 257
 509 397 l 257
 509 558 l 257
 178 558 l 257
 178 678 l 257
 450.427 678 l 257
 8 1456 l 257
 220 1456 l 257
 609 743 l 257
 1000 1456 l 257
 1213 1456 l 257
 759.314 678 l 257
 1032 678 l 257
 1032 558 l 257
 701 558 l 257
 701 397 l 257
 1033 397 l 257
 1033 281 l 257
 701 281 l 257
 701 0 l 257
 509 0 l 257
 509 281 l 257
 178 281 l 257
EndSplineSet
EndChar

StartChar: z
Encoding: 122 122 484
Width: 969
VWidth: 0
GlyphClass: 2
Flags: W
PickledData: "(dp1
S'org.robofab.postScriptHintData'
p2
(dp3
sS'com.typemytype.robofont.layerData'
p4
(dp5
S'b'
(dp6
S'name'
p7
S'z'
sS'lib'
p8
(dp9
sS'unicodes'
p10
(tsS'width'
p11
F971.85000000000002
sS'contours'
p12
(tsS'components'
p13
(tsS'anchors'
p14
(tsss."
AnchorPoint: "top" 506 1026 basechar 0
LayerCount: 2
Fore
SplineSet
104 0 m 257
 104 100 l 257
 640 877 l 257
 120 877 l 257
 120 1026 l 257
 877 1026 l 257
 877 928 l 257
 342 148 l 257
 893 148 l 257
 893 0 l 257
 104 0 l 257
EndSplineSet
EndChar

StartChar: zero
Encoding: 48 48 488
Width: 1231
VWidth: 0
GlyphClass: 2
Flags: W
PickledData: "(dp1
S'org.robofab.postScriptHintData'
p2
(dp3
sS'com.typemytype.robofont.layerData'
p4
(dp5
s."
LayerCount: 2
Fore
SplineSet
620 -22 m 256
 294 -22 124 277 124 732 c 256
 124 1205 294 1482 621 1482 c 256
 947 1482 1107 1198 1107 732 c 256
 1107 277 947 -22 620 -22 c 256
623 139 m 256
 833 139 909 381 909 732 c 256
 909 1069 833 1321 622 1321 c 256
 404 1321 320 1069 320 732 c 256
 320 381 405 139 623 139 c 256
EndSplineSet
EndChar

StartChar: emptyset
Encoding: 8709 8709 493
Width: 1678
VWidth: 0
GlyphClass: 2
Flags: W
LayerCount: 2
Fore
SplineSet
112 733 m 256
 112 1150 459 1473 832 1473 c 256
 1006 1473 1174 1403 1304 1286 c 257
 1481 1485 l 257
 1518 1456 l 257
 1337 1254 l 257
 1467 1122 1552 939 1552 733 c 256
 1552 316 1205 -7 832 -7 c 256
 662 -7 498 60 369 172 c 257
 177 -43 l 257
 145 -14 l 257
 337 202 l 257
 201 335 112 522 112 733 c 256
398 204 m 257
 519 99 673 37 832 37 c 256
 1183 37 1509 341 1509 733 c 256
 1509 926 1430 1097 1308 1222 c 257
 398 204 l 257
366 234 m 257
 1275 1254 l 257
 1153 1364 995 1429 832 1429 c 256
 481 1429 155 1125 155 733 c 256
 155 535 238 359 366 234 c 257
EndSplineSet
EndChar

StartChar: Sigma
Encoding: 931 931 494
Width: 1064
VWidth: 0
GlyphClass: 2
Flags: W
LayerCount: 2
Fore
SplineSet
86 1456 m 257
 86 1349 l 257
 570 622 l 257
 65 -97 l 257
 65 -199 l 257
 1037 -199 l 257
 1037 -37 l 257
 309 -37 l 257
 783 618 l 257
 330 1302 l 257
 991 1302 l 257
 991 1456 l 257
 86 1456 l 257
EndSplineSet
EndChar

StartChar: uni0358
Encoding: 856 856 495
Width: 524
VWidth: 0
GlyphClass: 4
Flags: W
AnchorPoint: "top" 261 1026 mark 0
LayerCount: 2
Fore
SplineSet
171 1268 m 257
 171 1447 l 257
 353 1447 l 257
 353 1268 l 257
 171 1268 l 257
EndSplineSet
EndChar

StartChar: uni02C9
Encoding: 713 713 496
Width: 600
VWidth: 0
GlyphClass: 4
Flags: W
AnchorPoint: "top" 307 1066 mark 0
LayerCount: 2
Fore
SplineSet
-9 1316 m 257
 602 1316 l 257
 602 1447 l 257
 -9 1447 l 257
 -9 1316 l 257
EndSplineSet
EndChar

